SplineFontDB: 1.0
FontName: URWBookmanL-LighItal
FullName: URW Bookman L Light Italic
FamilyName: URW Bookman L
Weight: Regular
Copyright: Copyright (URW)++,Copyright 1999 by (URW)++ Design & Development; Cyrillic glyphs added by Valek Filippov (C) 2001-2002
Version: 1.06
ItalicAngle: -10.3
UnderlinePosition: -125
UnderlineWidth: 60
Ascent: 800
Descent: 200
NeedsXUIDChange: 1
UniqueID: 4114289
FSType: 0
OS2WinAscent: 0
OS2WinAOffset: 1
OS2WinDescent: 0
OS2WinDOffset: 1
HheadAscent: 0
HheadAOffset: 1
HheadDescent: 0
HheadDOffset: 1
ScriptLang: 2
 1 latn 1 dflt 
 1 DFLT 1 dflt 
Encoding: adobestandard
UnicodeInterp: none
DisplaySize: -36
AntiAlias: 1
FitToEm: 1
WinInfo: 315 21 14
BeginPrivate: 7
BlueValues 23 [-20 0 486 506 681 701]
BlueScale 8 0.039625
StdHW 4 [48]
StdVW 4 [95]
StemSnapH 203 [33 38 43 48 53 58 69] 
systemdict /internaldict known
{1183615869 systemdict /internaldict get exec
/StemSnapLength 2 copy known { get 7 lt } { pop pop true } ifelse }
{ true } ifelse { pop [43 48] } if
StemSnapV 2 []
ForceBold 5 false
EndPrivate
BeginChars: 767 660
StartChar: exclam
Encoding: 33 33 2
Width: 320
Flags: W
HStem: -13 135<157 181> 674 20G<268 302.5>
Fore
209 180 m 1
 172 180 l 1
 188 270 193 342 193 460 c 0
 194 556 198 599 212 638 c 0
 225 672 252 694 284 694 c 0
 321 694 342 672 342 632 c 0
 342 592 332 558 280 424 c 0
 238 314 225 266 209 180 c 1
181 122 m 0
 215 122 238 98 238 64 c 0
 238 24 199 -13 157 -13 c 0
 125 -13 103 9 103 41 c 0
 103 84 140 122 181 122 c 0
EndSplineSet
EndChar
StartChar: quotedbl
Encoding: 34 34 3
Width: 360
Flags: W
HStem: 674 20G<199.5 225.5 346.5 372.5>
Fore
142 462 m 1
 107 462 l 1
 164 648 l 2
 175 684 186 694 213 694 c 0
 238 694 255 681 255 662 c 0
 255 651 251 642 237 619 c 2
 142 462 l 1
289 462 m 1
 254 462 l 1
 311 648 l 2
 322 684 333 694 360 694 c 0
 385 694 402 681 402 662 c 0
 402 651 398 642 384 619 c 2
 289 462 l 1
EndSplineSet
EndChar
StartChar: numbersign
Encoding: 35 35 4
Width: 620
Flags: W
HStem: 0 21G<186 244 376 434> 216 57<107 218 284 408 474 569> 405 57<136 245 311 435 501 598> 405 261<284 435 474 598>
DStem: 218 216 275 216 186 0 244 0 245 405 303 405 226 273 284 273 284 666 341 666 254 462 311 462 408 216 465 216 376 0 434 0 435 405 493 405 416 273 474 273 474 666 531 666 444 462 501 462
Fore
493 405 m 1xd0
 474 273 l 1
 569 273 l 1
 569 216 l 1
 465 216 l 1
 434 0 l 1
 376 0 l 1
 408 216 l 1
 275 216 l 1
 244 0 l 1
 186 0 l 1
 218 216 l 1
 107 216 l 1
 107 273 l 1
 226 273 l 1
 245 405 l 1
 136 405 l 1
 136 462 l 1
 254 462 l 1xe0
 284 666 l 1
 341 666 l 1xd0
 311 462 l 1
 444 462 l 1xe0
 474 666 l 1
 531 666 l 1xd0
 501 462 l 1
 598 462 l 1
 598 405 l 1xe0
 493 405 l 1xd0
435 405 m 1
 303 405 l 1xd0
 284 273 l 1
 416 273 l 1
 435 405 l 1
EndSplineSet
EndChar
StartChar: dollar
Encoding: 36 36 5
Width: 620
Flags: W
VStem: 78 118<168 196> 140 93<464 495> 510 96<201 241> 526 93<526 555>
DStem: 284 25 326 25 264 -85 306 -85 335 305 375 296 291 67 334 68 392 622 434 620 352 401 393 394 418 762 460 762 399 661 441 659
Fore
460 762 m 1x40
 441 659 l 1
 490 652 515 644 547 627 c 0
 592 603 619 565 619 526 c 0
 619 490 592 460 559 460 c 0
 534 460 511 480 511 502 c 0
 511 509 513 517 517 526 c 0
 523 539 526 549 526 555 c 0x50
 526 565 515 581 500 593 c 0
 482 607 466 614 434 620 c 1
 393 394 l 1
 487 373 497 370 523 357 c 0
 579 330 606 292 606 241 c 0
 606 131 483 36 326 25 c 1
 306 -85 l 1
 264 -85 l 1
 284 25 l 1
 236 28 196 39 154 60 c 0
 104 86 78 122 78 168 c 0
 78 212 106 243 146 243 c 0
 174 243 196 222 196 196 c 0xa0
 196 182 194 175 183 152 c 0
 179 145 177 138 177 133 c 0
 177 121 192 102 211 89 c 0
 230 77 250 71 291 67 c 1
 335 305 l 1
 279 316 240 329 208 346 c 0
 165 369 140 413 140 464 c 0
 140 529 182 589 254 625 c 0
 296 647 335 656 399 661 c 1
 418 762 l 1
 460 762 l 1x40
352 401 m 1
 392 622 l 1
 300 619 233 565 233 495 c 0
 233 449 261 427 352 401 c 1
375 296 m 1
 334 68 l 1
 394 74 423 83 453 105 c 0
 488 132 510 168 510 201 c 0x20
 510 229 495 254 468 270 c 0
 455 277 435 284 394 292 c 0
 391 293 383 294 375 296 c 1
EndSplineSet
EndChar
StartChar: percent
Encoding: 37 37 6
Width: 800
Flags: W
HStem: -8 33<593 603> 265 33<197 202> 383 33<663 674> 656 33<263 275>
VStem: 56 70<403 428> 340 70<522 551> 457 70<130 156> 741 70<249 278>
DStem: 595 681 647 681 221 0 273 0
Fore
271 689 m 0
 356 689 410 625 410 524 c 0
 410 380 316 265 199 265 c 0
 112 265 56 329 56 426 c 0
 56 482 76 545 110 597 c 0
 149 657 205 689 271 689 c 0
265 656 m 0
 214 656 176 618 150 541 c 0
 135 493 126 445 126 403 c 0
 126 338 154 298 200 298 c 0
 248 298 288 331 311 389 c 0
 329 434 340 497 340 551 c 0
 340 619 313 656 265 656 c 0
647 681 m 1
 273 0 l 1
 221 0 l 1
 595 681 l 1
 647 681 l 1
672 416 m 0
 757 416 811 352 811 251 c 0
 811 107 717 -8 600 -8 c 0
 513 -8 457 56 457 154 c 0
 457 209 477 273 511 324 c 0
 550 384 606 416 672 416 c 0
666 383 m 0
 615 383 577 345 551 268 c 0
 536 220 527 172 527 130 c 0
 527 65 555 25 601 25 c 0
 649 25 689 58 712 116 c 0
 730 161 741 224 741 278 c 0
 741 345 714 383 666 383 c 0
EndSplineSet
EndChar
StartChar: ampersand
Encoding: 38 38 7
Width: 820
Flags: W
HStem: -13 42<302 322 680 711> 657 37<432 448>
VStem: 65 102<162 179> 245 89<518 548> 502 70<578 596> 577 142<359 375> 761 87<58 115>
Fore
523 65 m 1
 451 12 381 -13 304 -13 c 0
 166 -13 65 64 65 169 c 0
 65 274 154 370 287 407 c 1
 260 438 245 477 245 518 c 0
 245 614 336 694 446 694 c 0
 517 694 572 648 572 588 c 0
 572 512 510 445 408 407 c 1
 480 334 537 252 574 170 c 1
 612 206 646 264 646 292 c 0
 646 309 640 313 619 315 c 0
 596 317 577 340 577 368 c 0
 577 403 613 439 648 439 c 0
 689 439 719 406 719 361 c 0
 719 326 699 276 663 220 c 0
 646 193 632 175 593 132 c 1
 635 54 663 29 711 29 c 0
 740 29 761 41 761 58 c 0
 761 65 760 67 753 72 c 0
 736 83 730 95 730 115 c 0
 730 148 758 176 792 176 c 0
 823 176 848 149 848 115 c 0
 848 44 773 -13 680 -13 c 0
 615 -13 571 9 523 65 c 1
381 437 m 1
 386 440 387 440 394 443 c 0
 463 479 502 531 502 591 c 0
 502 631 475 657 434 657 c 0
 378 657 334 609 334 548 c 0
 334 509 349 474 381 437 c 1
313 375 m 1
 232 364 167 274 167 175 c 0
 167 84 223 29 316 29 c 0
 386 29 441 48 505 96 c 1
 469 187 389 303 313 375 c 1
EndSplineSet
EndChar
StartChar: quoteright
Encoding: 39 8217 8
Width: 280
Flags: W
HStem: 674 20G<213.5 249.5>
Fore
157 466 m 1
 148 484 l 1
 198 512 228 546 240 590 c 1
 226 578 214 573 200 573 c 0
 176 573 159 594 159 621 c 0
 159 661 193 694 234 694 c 0
 265 694 288 667 288 630 c 0
 288 564 234 497 157 466 c 1
EndSplineSet
KernsSLIF: 121 -40 1 0 119 -44 1 0 118 -43 1 0 116 -42 1 0 115 -55 1 0 114 -44 1 0 46 -82 1 0 111 -56 1 0 100 -62 1 0 44 -85 1 0 262 -110 1 0 256 -110 1 0 257 -110 1 0 225 -232 1 0 65 -109 1 0
EndChar
StartChar: parenleft
Encoding: 40 40 9
Width: 280
Flags: W
VStem: 96 82<41 81>
Fore
237 -89 m 1
 231 -120 l 1
 148 -99 96 -22 96 81 c 0
 96 165 125 336 160 460 c 0
 193 578 233 641 303 685 c 0
 329 701 354 710 383 715 c 1
 378 686 l 1
 323 658 295 619 264 524 c 0
 223 399 178 149 178 41 c 0
 178 4 188 -34 203 -58 c 0
 210 -69 219 -77 237 -89 c 1
EndSplineSet
EndChar
StartChar: parenright
Encoding: 41 41 10
Width: 280
Flags: W
VStem: 197 82<513 553>
Fore
138 684 m 1
 144 715 l 1
 227 694 279 617 279 513 c 0
 279 429 250 259 215 135 c 0
 182 17 142 -47 72 -90 c 0
 46 -106 21 -115 -8 -120 c 1
 -3 -91 l 1
 52 -63 80 -24 111 71 c 0
 152 196 197 446 197 553 c 0
 197 590 187 628 172 653 c 0
 165 664 156 672 138 684 c 1
EndSplineSet
EndChar
StartChar: asterisk
Encoding: 42 42 11
Width: 440
Flags: W
HStem: 678 20G<341.5 369>
VStem: 248 93<356 375> 303 93<647 666>
Fore
320 552 m 1xc0
 305 622 l 1
 303 647 l 1
 303 676 326 698 357 698 c 0
 381 698 396 685 396 666 c 0xa0
 396 655 392 643 381 622 c 2
 344 552 l 1
 358 540 l 1
 416 599 l 2
 437 620 452 629 469 629 c 0
 488 629 505 609 505 586 c 0
 505 557 485 541 442 533 c 2
 366 519 l 1
 360 499 l 1
 432 488 l 2
 465 482 480 471 480 451 c 0
 480 423 450 392 423 392 c 0
 409 392 397 400 383 422 c 1
 344 478 l 1
 324 470 l 1
 339 400 l 1
 341 375 l 1
 341 345 318 324 287 324 c 0
 263 324 248 336 248 356 c 0
 248 367 253 381 263 400 c 2
 300 470 l 1
 286 482 l 1
 228 423 l 2
 207 402 191 393 174 393 c 0
 156 393 139 414 139 437 c 0
 139 465 158 480 202 489 c 2
 278 503 l 1
 284 523 l 1
 212 534 l 2
 179 540 164 551 164 571 c 0
 164 599 194 630 221 630 c 0
 235 630 247 621 261 600 c 2
 300 544 l 1
 320 552 l 1xc0
EndSplineSet
EndChar
StartChar: plus
Encoding: 43 43 12
Width: 600
Flags: W
HStem: 310 80<91 304 382 595>
VStem: 304 78<106 310 390 594>
Fore
595 390 m 1
 595 310 l 1
 382 310 l 1
 382 106 l 1
 304 106 l 1
 304 310 l 1
 91 310 l 1
 91 390 l 1
 304 390 l 1
 304 594 l 1
 382 594 l 1
 382 390 l 1
 595 390 l 1
EndSplineSet
EndChar
StartChar: comma
Encoding: 44 44 13
Width: 300
Flags: W
HStem: -9 21G<127.5 147>
Fore
97 -115 m 1
 88 -97 l 1
 139 -69 168 -35 180 8 c 1
 167 -4 155 -9 139 -9 c 0
 116 -9 99 12 99 39 c 0
 99 79 133 112 174 112 c 0
 204 112 227 85 227 48 c 0
 227 -18 174 -85 97 -115 c 1
EndSplineSet
KernsSLIF: 39 -51 1 0 186 -51 1 0 49 -90 1 0
EndChar
StartChar: hyphen
Encoding: 45 45 14
Width: 320
Flags: W
HStem: 232 53<103 308>
Fore
104 285 m 1
 336 285 l 1
 308 232 l 1
 78 232 l 1
 104 285 l 1
EndSplineSet
KernsSLIF: 89 -77 1 0 87 -34 1 0 86 -44 1 0 84 -70 1 0 262 -16 1 0 256 -16 1 0 257 -16 1 0 225 -64 1 0 65 -16 1 0
EndChar
StartChar: period
Encoding: 46 46 15
Width: 300
Flags: W
HStem: -13 21G<134 171>
Fore
174 122 m 0
 208 122 231 98 231 64 c 0
 231 24 192 -13 150 -13 c 0
 118 -13 96 9 96 41 c 0
 96 84 133 122 174 122 c 0
EndSplineSet
KernsSLIF: 39 -49 1 0 186 -49 1 0 49 -92 1 0
EndChar
StartChar: slash
Encoding: 47 47 16
Width: 600
Flags: W
DStem: 484 715 562 715 104 -121 181 -121
Fore
562 715 m 1
 181 -121 l 1
 104 -121 l 1
 484 715 l 1
 562 715 l 1
EndSplineSet
EndChar
StartChar: zero
Encoding: 48 48 17
Width: 620
Flags: W
HStem: -13 47<293 311> 653 42<405 438>
VStem: 86 102<213 252> 544 102<423 474>
Fore
428 695 m 0
 562 695 646 590 646 423 c 0
 646 319 615 212 561 132 c 0
 499 41 404 -13 306 -13 c 0
 173 -13 86 92 86 252 c 0
 86 346 119 455 174 541 c 0
 237 642 325 695 428 695 c 0
422 653 m 0
 365 653 309 619 276 564 c 0
 227 479 188 326 188 213 c 0
 188 102 234 34 309 34 c 0
 353 34 399 55 436 92 c 0
 497 154 544 321 544 474 c 0
 544 589 500 653 422 653 c 0
EndSplineSet
KernsSLIF: 55 -38 1 0 49 -99 1 0 52 -14 1 0
EndChar
StartChar: one
Encoding: 49 49 18
Width: 620
Flags: W
HStem: 0 21G<154 495> 661 20G<455 495>
DStem: 375 540 495 681 299 121 394 127
Fore
495 681 m 1
 394 127 l 1
 392 115 390 94 390 84 c 0
 390 49 411 35 473 31 c 2
 500 29 l 1
 495 0 l 1
 154 0 l 1
 159 29 l 1
 197 31 212 33 240 41 c 0
 283 55 288 62 299 121 c 1
 375 540 l 1
 377 546 377 552 377 561 c 0
 377 602 358 614 290 614 c 2
 266 614 l 1
 271 642 l 1
 372 658 384 661 455 681 c 1
 495 681 l 1
EndSplineSet
KernsSLIF: 48 -85 1 0 50 -69 1 0 51 -81 1 0 54 -89 1 0 55 -120 1 0 46 -83 1 0 49 -113 1 0 57 -86 1 0 52 -113 1 0 53 -88 1 0 56 -87 1 0 44 -85 1 0
EndChar
StartChar: two
Encoding: 50 50 19
Width: 620
Flags: W
HStem: 0 80<174 532> 647 47<397 418>
VStem: 139 102<489 548> 139 119<479 497> 526 110<527 550>
Fore
611 185 m 1xe8
 532 0 l 1
 66 0 l 1
 79 71 l 1
 210 147 253 176 318 231 c 0
 379 281 431 336 466 385 c 0
 509 445 526 489 526 541 c 0
 526 603 474 647 399 647 c 0
 317 647 241 599 241 548 c 0xe8
 241 536 242 532 251 515 c 0
 256 506 258 498 258 490 c 0xd8
 258 458 230 432 194 432 c 0
 163 432 139 456 139 489 c 0
 139 531 166 580 209 619 c 0
 266 669 335 694 418 694 c 0
 547 694 636 630 636 539 c 0
 636 443 570 349 425 238 c 0
 348 179 336 172 174 80 c 1
 417 80 l 2
 492 80 526 105 577 198 c 1
 611 185 l 1xe8
EndSplineSet
KernsSLIF: 55 -39 1 0 49 -91 1 0 52 -22 1 0
EndChar
StartChar: three
Encoding: 51 51 20
Width: 620
Flags: W
HStem: -13 42<258 296> 354 37<311 343> 652 42<390 412>
VStem: 55 100<100 120> 145 115<519 532> 493 107<210.679 244> 515 107<533.268 564>
Fore
276 349 m 1xf4
 283 393 l 1
 297 391 304 391 312 391 c 0
 353 391 400 401 433 416 c 0
 482 440 515 494 515 550 c 0
 515 616 474 652 398 652 c 0
 319 652 252 615 252 572 c 0
 252 566 252 565 257 548 c 0
 259 540 260 533 260 528 c 0
 260 498 232 475 198 475 c 0
 167 475 145 494 145 521 c 0
 145 559 175 605 223 639 c 0
 271 674 340 694 410 694 c 0
 463 694 516 682 554 662 c 0
 595 640 622 595 622 549 c 0xea
 622 505 598 460 556 427 c 0
 524 402 496 390 434 375 c 1
 502 365 528 356 554 333 c 0
 584 306 600 270 600 229 c 0
 600 92 457 -13 271 -13 c 0
 145 -13 55 42 55 120 c 0
 55 164 91 205 129 205 c 0
 155 205 176 185 176 160 c 0
 176 149 174 145 163 126 c 0
 157 115 155 108 155 100 c 0
 155 58 206 29 282 29 c 0
 357 29 414 54 452 104 c 0
 478 139 493 186 493 232 c 0
 493 316 447 354 343 354 c 0
 319 354 304 353 276 349 c 1xf4
EndSplineSet
KernsSLIF: 55 -46 1 0 49 -108 1 0 52 -20 1 0
EndChar
StartChar: four
Encoding: 52 52 21
Width: 620
Flags: W
HStem: 0 239<138 551> 186 53<138 388 492 610> 661 20G<478 572>
DStem: 463 599 572 681 398 239 492 239 478 681 463 599 69 226 138 239
Fore
572 681 m 1x60
 492 239 l 1xa0
 634 239 l 1
 610 186 l 1
 482 186 l 1x60
 470 118 l 1
 469 111 468 103 468 98 c 0
 468 60 491 33 523 31 c 2
 556 29 l 1
 551 0 l 1
 259 0 l 1xa0
 264 29 l 1
 289 31 l 2
 339 34 370 68 378 128 c 1
 388 186 l 1
 79 186 l 1
 69 226 l 1
 478 681 l 1
 572 681 l 1x60
398 239 m 1
 463 599 l 1
 138 239 l 1
 398 239 l 1
EndSplineSet
KernsSLIF: 55 -67 1 0 49 -86 1 0 52 -3 1 0
EndChar
StartChar: five
Encoding: 53 53 22
Width: 620
Flags: W
HStem: -13 42<261 295> -13 210<141 277> 412 52<365 400> 601 80<209 587>
VStem: 70 102<84 116> 501 110<271 292>
DStem: 209 681 247 601 136 329 199 387
Fore
614 681 m 1xbc
 587 601 l 1
 247 601 l 1
 199 387 l 1
 265 440 326 464 400 464 c 0
 527 464 611 393 611 285 c 0
 611 120 462 -13 277 -13 c 0xbc
 157 -13 70 41 70 116 c 0
 70 158 105 197 141 197 c 0x7c
 168 197 188 178 188 152 c 0
 188 141 187 139 179 114 c 0
 175 102 172 90 172 84 c 0
 172 68 181 55 200 46 c 0
 222 35 251 29 278 29 c 0
 403 29 501 136 501 273 c 0
 501 358 448 412 365 412 c 0
 297 412 242 382 186 313 c 1
 136 329 l 1
 209 681 l 1
 614 681 l 1xbc
EndSplineSet
KernsSLIF: 55 -68 1 0 49 -117 1 0 52 -17 1 0
EndChar
StartChar: six
Encoding: 54 54 23
Width: 620
Flags: W
HStem: -13 47<311 330> 384 52<390 419> 647 47<452 474>
VStem: 89 102<162 230> 515 107<242 260> 544 113<569 582>
Fore
207 333 m 1xf4
 265 403 334 436 419 436 c 0
 542 436 622 365 622 255 c 0xf8
 622 110 480 -13 313 -13 c 0
 174 -13 89 79 89 230 c 0
 89 368 150 518 240 600 c 0
 306 661 387 694 467 694 c 0
 569 694 657 641 657 580 c 0
 657 548 628 519 597 519 c 0
 567 519 544 541 544 570 c 0
 544 577 545 583 548 593 c 0
 549 597 550 601 550 603 c 0
 550 627 506 647 454 647 c 0
 357 647 281 579 238 455 c 0
 223 414 217 387 207 333 c 1xf4
390 384 m 0
 327 384 272 357 238 309 c 0
 209 269 191 213 191 162 c 0
 191 83 241 34 322 34 c 0
 376 34 434 62 466 103 c 0
 496 142 515 200 515 256 c 0
 515 334 466 384 390 384 c 0
EndSplineSet
KernsSLIF: 55 -36 1 0 49 -94 1 0 52 -10 1 0
EndChar
StartChar: seven
Encoding: 55 55 24
Width: 620
Flags: W
HStem: 0 21G<178 309> 601 80<206 582>
Fore
669 681 m 1
 672 633 l 1
 472 431 337 196 309 0 c 1
 178 0 l 1
 219 152 350 361 507 524 c 1
 561 578 575 592 582 601 c 1
 375 601 l 2
 284 601 260 598 235 581 c 0
 212 566 186 534 176 510 c 1
 143 510 l 1
 206 681 l 1
 669 681 l 1
EndSplineSet
KernsSLIF: 50 -56 1 0 51 -50 1 0 54 -76 1 0 55 -42 1 0 46 -126 1 0 49 -83 1 0 52 -117 1 0 53 -48 1 0 56 -63 1 0 44 -129 1 0 58 -103 1 0
EndChar
StartChar: eight
Encoding: 56 56 25
Width: 620
Flags: W
HStem: -13 42<284 318> 657 37<428 462>
VStem: 61 82<146 164> 163 107<484 520> 515 102<187 226> 573 82<545 556>
Fore
469 384 m 1xf4
 530 358 547 349 567 333 c 0
 601 305 617 270 617 226 c 0xf8
 617 92 481 -13 306 -13 c 0
 159 -13 61 56 61 160 c 0
 61 257 134 329 264 360 c 1
 191 392 163 426 163 484 c 0
 163 600 287 694 438 694 c 0
 566 694 655 634 655 547 c 0
 655 496 624 449 571 419 c 0
 545 404 520 396 469 384 c 1xf4
418 404 m 1
 513 422 573 480 573 554 c 0xf4
 573 618 524 657 446 657 c 0
 348 657 270 596 270 520 c 0
 270 471 302 446 418 404 c 1
311 340 m 1
 212 315 143 240 143 155 c 0
 143 78 207 29 309 29 c 0
 423 29 515 100 515 187 c 0xf8
 515 219 502 248 479 266 c 0
 455 285 438 293 364 320 c 0
 352 325 334 331 311 340 c 1
EndSplineSet
KernsSLIF: 55 -30 1 0 49 -97 1 0 52 -12 1 0
EndChar
StartChar: nine
Encoding: 57 57 26
Width: 620
Flags: W
HStem: -13 42<265 286> 249 47<313 342> 652 42<396 430>
VStem: 77 111<98 106> 111 102<417 436> 547 102<468 524>
Fore
533 358 m 1xf4
 465 280 402 249 313 249 c 0
 195 249 111 322 111 425 c 0xec
 111 567 258 694 422 694 c 0
 559 694 649 605 649 468 c 0
 649 358 612 235 550 141 c 0
 487 45 381 -13 269 -13 c 0
 167 -13 77 41 77 103 c 0
 77 135 104 163 134 163 c 0
 165 163 188 138 188 104 c 0
 188 99 187 94 186 88 c 0
 185 82 184 77 184 74 c 0
 184 50 228 29 280 29 c 0
 408 29 495 143 533 358 c 1xf4
415 652 m 0
 358 652 300 624 267 580 c 0
 235 538 213 473 213 419 c 0
 213 346 266 296 342 296 c 0
 400 296 460 325 495 370 c 0
 526 411 547 471 547 524 c 0
 547 602 496 652 415 652 c 0
EndSplineSet
KernsSLIF: 55 -33 1 0 49 -100 1 0 52 -20 1 0
EndChar
StartChar: colon
Encoding: 58 58 27
Width: 300
Flags: W
HStem: -13 135<150 174> 364 135<211 235>
Fore
174 122 m 0
 208 122 231 98 231 64 c 0
 231 24 192 -13 150 -13 c 0
 118 -13 96 9 96 41 c 0
 96 84 133 122 174 122 c 0
235 499 m 0
 269 499 292 475 292 441 c 0
 292 401 253 364 211 364 c 0
 179 364 157 386 157 418 c 0
 157 461 194 499 235 499 c 0
EndSplineSet
EndChar
StartChar: semicolon
Encoding: 59 59 28
Width: 300
Flags: W
HStem: -9 121<139 174> 364 135<211 235>
Fore
97 -115 m 1
 88 -97 l 1
 139 -69 168 -35 180 8 c 1
 167 -4 155 -9 139 -9 c 0
 116 -9 99 12 99 39 c 0
 99 79 133 112 174 112 c 0
 204 112 227 85 227 48 c 0
 227 -18 174 -85 97 -115 c 1
235 499 m 0
 269 499 292 475 292 441 c 0
 292 401 253 364 211 364 c 0
 179 364 157 386 157 418 c 0
 157 461 194 499 235 499 c 0
EndSplineSet
EndChar
StartChar: less
Encoding: 60 60 29
Width: 600
Flags: W
DStem: 79 288 185 324 588 49 588 135 588 599 588 512 79 360 185 324
Fore
79 360 m 1
 588 599 l 1
 588 512 l 1
 185 324 l 1
 588 135 l 1
 588 49 l 1
 79 288 l 1
 79 360 l 1
EndSplineSet
EndChar
StartChar: equal
Encoding: 61 61 30
Width: 600
Flags: W
HStem: 212 80<91 595> 408 80<91 595>
Fore
595 488 m 1
 595 408 l 1
 91 408 l 1
 91 488 l 1
 595 488 l 1
595 292 m 1
 595 212 l 1
 91 212 l 1
 91 292 l 1
 595 292 l 1
EndSplineSet
EndChar
StartChar: greater
Encoding: 62 62 31
Width: 600
Flags: W
DStem: 93 512 93 599 496 324 602 360 496 324 602 288 93 135 93 49
Fore
602 360 m 1
 602 288 l 1
 93 49 l 1
 93 135 l 1
 496 324 l 1
 93 512 l 1
 93 599 l 1
 602 360 l 1
EndSplineSet
EndChar
StartChar: question
Encoding: 63 63 32
Width: 540
Flags: W
HStem: -13 136<231 256> 657 37<353 387>
VStem: 114 112<520 532> 176 136<41 65> 497 107<536 555>
Fore
285 177 m 1xe8
 240 177 l 1
 255 296 266 312 379 377 c 1
 432 410 444 419 464 448 c 0
 485 479 497 516 497 553 c 0
 497 618 449 657 369 657 c 0
 283 657 216 619 216 571 c 0
 216 566 218 556 221 548 c 0
 226 533 226 533 226 528 c 0
 226 499 196 472 165 472 c 0
 135 472 114 492 114 522 c 0
 114 612 238 694 373 694 c 0
 510 694 604 631 604 538 c 0
 604 489 582 440 544 400 c 0
 513 368 484 352 430 335 c 0
 330 306 297 269 285 177 c 1xe8
256 123 m 0
 289 123 312 99 312 65 c 0
 312 24 273 -13 231 -13 c 0
 198 -13 176 9 176 41 c 0xd8
 176 85 213 123 256 123 c 0
EndSplineSet
EndChar
StartChar: at
Encoding: 64 64 33
Width: 780
Flags: W
HStem: -13 47<464 487> 160 37<364 379> 516 37<455 473> 653 47<453 487>
VStem: 102 50<322 356> 231 73<284 306> 522 73<241 255> 754 48<386 406>
Fore
575 546 m 1
 647 546 l 1
 600 292 l 2
 597 275 595 257 595 250 c 0
 595 227 611 210 631 210 c 0
 656 210 686 231 712 266 c 0
 739 303 754 350 754 396 c 0
 754 538 624 653 464 653 c 0
 293 653 152 514 152 346 c 0
 152 174 292 34 464 34 c 0
 547 34 636 67 691 117 c 0
 712 137 726 155 745 188 c 1
 791 188 l 1
 772 145 757 122 732 97 c 0
 666 29 564 -13 464 -13 c 0
 263 -13 102 145 102 342 c 0
 102 540 264 700 467 700 c 0
 652 700 802 567 802 404 c 0
 802 345 781 288 743 243 c 0
 702 194 641 160 593 160 c 0
 554 160 522 198 522 244 c 2
 522 255 l 1
 474 189 426 160 365 160 c 0
 285 160 231 218 231 304 c 0
 231 438 335 553 455 553 c 0
 500 553 541 536 568 507 c 1
 575 546 l 1
562 474 m 1
 534 504 508 516 471 516 c 0
 423 516 380 489 348 437 c 1
 322 398 304 334 304 285 c 0
 304 232 333 197 377 197 c 0
 419 197 469 229 498 274 c 0
 526 318 541 365 562 474 c 1
EndSplineSet
EndChar
StartChar: A
Encoding: 65 65 34
Width: 700
Flags: W
HStem: 0 21G<-25 237 444 715> 253 40<269 502> 661 20G<422 518>
DStem: 422 681 434 598 137 175 269 293 422 681 246 253 137 175 193 157 434 598 518 681 497 293 624 156 502 253 518 681 524 136 624 156
Fore
518 681 m 1
 624 156 l 1
 645 57 654 44 708 31 c 2
 720 29 l 1
 715 0 l 1
 444 0 l 1
 449 29 l 1
 461 31 l 2
 510 39 531 57 531 89 c 0
 531 98 529 114 524 136 c 1
 502 253 l 1
 246 253 l 1
 193 157 l 1
 175 123 167 100 167 80 c 0
 167 53 187 38 230 31 c 2
 242 29 l 1
 237 0 l 1
 -25 0 l 1
 -20 29 l 1
 -7 31 l 2
 55 46 73 64 137 175 c 1
 422 681 l 1
 518 681 l 1
497 293 m 1
 434 598 l 1
 269 293 l 1
 497 293 l 1
EndSplineSet
KernsSLIF: 121 -35 0 0 119 -32 0 0 118 -32 0 0 117 -31 0 0 116 -26 0 0 39 -83 0 0 186 -83 0 0 113 -28 0 0 46 -7 0 0 111 -35 0 0 45 -19 0 0 172 -31 0 0 171 -29 0 0 103 -30 0 0 101 -37 0 0 100 -28 0 0 44 -11 0 0 332 -36 0 0 99 -36 0 0 98 -15 0 0 97 -32 0 0 89 -47 0 0 87 -82 0 0 86 -90 0 0 300 -50 0 0 298 -50 0 0 301 -50 0 0 299 -50 0 0 85 -50 0 0 84 -37 0 0 81 -49 0 0 286 -52 0 0 79 -52 0 0 71 -50 0 0 264 -51 0 0 67 -52 0 0
EndChar
StartChar: B
Encoding: 66 66 35
Width: 720
Flags: W
HStem: 0 40<308 377> 346 37<277 438> 642 39<145 486>
VStem: 610 110<223 241> 644 102<527 544>
DStem: 208 553 311 569 131 128 277 383 208 553 271 346 131 128 230 121
Fore
145 681 m 1xf0
 508 681 l 2
 605 681 654 670 696 640 c 0
 728 617 746 582 746 542 c 0xe8
 746 492 719 443 675 411 c 0
 647 390 621 380 570 370 c 1
 624 358 644 351 667 332 c 0
 701 305 720 267 720 227 c 0
 720 162 684 95 626 55 c 0
 565 13 506 0 375 0 c 2
 21 0 l 1
 26 29 l 1
 43 31 l 2
 98 38 117 59 131 128 c 1
 208 553 l 1
 210 561 212 587 212 596 c 0
 212 628 195 645 155 650 c 2
 139 652 l 1
 145 681 l 1xf0
277 383 m 1
 405 383 l 2
 487 383 543 395 582 420 c 0
 618 444 644 491 644 533 c 0
 644 608 583 642 450 642 c 0
 351 642 322 627 311 569 c 1
 277 383 l 1
271 346 m 1
 230 121 l 2
 228 111 227 101 227 94 c 0
 227 56 260 40 338 40 c 0
 437 40 492 53 537 86 c 0
 581 118 610 177 610 235 c 0xf0
 610 320 561 346 401 346 c 2
 271 346 l 1
EndSplineSet
KernsSLIF: 89 -28 0 0 87 -28 0 0 86 -28 0 0 233 -8 0 0 288 -9 0 0 286 -9 0 0 289 -9 0 0 287 -9 0 0 234 -10 0 0 79 -9 0 0 261 -20 0 0 262 -20 0 0 256 -20 0 0 259 -20 0 0 257 -20 0 0 225 -10 0 0 65 -20 0 0
EndChar
StartChar: C
Encoding: 67 67 36
Width: 720
Flags: W
HStem: -13 47<384 411> 647 47<487 521>
VStem: 88 107<251 277>
Fore
734 681 m 1
 746 444 l 1
 708 444 l 1
 660 589 600 647 500 647 c 0
 425 647 354 609 297 539 c 0
 233 459 195 354 195 253 c 0
 195 119 278 34 409 34 c 0
 523 34 624 95 690 203 c 1
 731 183 l 1
 703 130 682 105 637 71 c 0
 565 16 479 -13 386 -13 c 0
 207 -13 88 102 88 275 c 0
 88 503 272 694 493 694 c 0
 565 694 614 676 673 630 c 1
 703 681 l 1
 734 681 l 1
EndSplineSet
KernsSLIF: 286 -12 0 0 287 -12 0 0 79 -12 0 0 75 -17 0 0 72 -17 0 0 262 -25 0 0 256 -25 0 0 257 -25 0 0 225 -14 0 0 65 -25 0 0
EndChar
StartChar: D
Encoding: 68 68 37
Width: 740
Flags: W
HStem: 0 39<308 373> 640 41<145 474>
VStem: 675 107<399 418>
DStem: 208 553 312 572 131 128 228 110
Fore
21 0 m 1
 26 29 l 1
 43 31 l 2
 98 38 117 59 131 128 c 1
 208 553 l 1
 210 561 212 587 212 596 c 0
 212 628 195 645 155 650 c 2
 139 652 l 1
 145 681 l 1
 472 681 l 2
 565 681 647 659 693 622 c 0
 748 578 782 495 782 404 c 0
 782 304 743 199 677 124 c 0
 603 40 506 0 373 0 c 2
 21 0 l 1
312 572 m 1
 228 110 l 2
 226 100 225 90 225 84 c 0
 225 52 255 39 326 39 c 0
 440 39 530 79 589 155 c 0
 644 225 675 320 675 416 c 0
 675 556 592 640 452 640 c 0
 352 640 321 625 312 572 c 1
EndSplineSet
KernsSLIF: 89 -45 0 0 88 -42 0 0 87 -33 0 0 86 -41 0 0 84 16 0 0 74 21 0 0 261 -42 0 0 262 -42 0 0 258 -42 0 0 256 -42 0 0 259 -42 0 0 257 -42 0 0 65 -42 0 0
EndChar
StartChar: E
Encoding: 69 69 38
Width: 680
Flags: W
HStem: 0 43<308 608> 336 44<277 358> 481 20G<489 521> 638 43<145 454>
DStem: 208 553 310 560 131 128 277 380 208 553 269 336 131 128 229 115
Fore
698 681 m 1
 736 484 l 1
 694 474 l 1
 665 532 644 559 613 584 c 0
 564 622 511 638 436 638 c 0
 387 638 354 631 336 616 c 0
 321 605 315 592 310 560 c 1
 277 380 l 1
 354 380 l 2
 430 380 460 407 489 501 c 1
 521 501 l 1
 469 214 l 1
 437 214 l 1
 438 228 438 233 438 240 c 0
 438 301 407 336 352 336 c 2
 269 336 l 1
 229 115 l 1
 228 108 227 103 227 97 c 0
 227 59 258 43 330 43 c 0
 408 43 489 67 553 109 c 0
 596 137 628 166 675 218 c 1
 707 205 l 1
 608 0 l 1
 21 0 l 1
 26 29 l 1
 43 31 l 2
 98 38 117 60 131 128 c 1
 208 553 l 1
 210 561 212 587 212 596 c 0
 212 628 195 645 155 650 c 2
 139 652 l 1
 145 681 l 1
 698 681 l 1
EndSplineSet
EndChar
StartChar: F
Encoding: 70 70 39
Width: 620
Flags: W
HStem: 0 21G<21 309> 335 40<276 359> 480 20G<496 529> 638 43<145 476>
DStem: 208 553 304 531 131 128 276 375 208 553 269 335 131 128 231 128
Fore
698 681 m 1
 743 483 l 1
 705 471 l 1
 650 587 571 638 446 638 c 0
 378 638 352 632 331 612 c 0
 322 603 312 575 304 531 c 2
 276 375 l 1
 357 375 l 2
 400 375 425 383 447 402 c 0
 470 423 471 425 494 495 c 1
 496 500 l 1
 529 500 l 1
 476 210 l 1
 444 210 l 1
 444 218 l 1
 445 228 446 236 446 239 c 0
 446 266 436 297 423 312 c 0
 411 326 381 335 344 335 c 2
 269 335 l 1
 231 128 l 1
 229 114 227 97 227 86 c 0
 227 52 247 35 293 31 c 2
 314 29 l 1
 309 0 l 1
 21 0 l 1
 26 29 l 1
 43 31 l 2
 98 38 117 59 131 128 c 1
 208 553 l 1
 210 561 212 587 212 596 c 0
 212 628 195 645 155 650 c 2
 139 652 l 1
 145 681 l 1
 698 681 l 1
EndSplineSet
KernsSLIF: 117 26 0 0 114 26 0 0 46 -107 0 0 249 -30 0 0 250 -27 0 0 351 -30 0 0 352 -30 0 0 111 -30 0 0 106 30 0 0 105 21 0 0 45 -30 0 0 335 -43 0 0 101 -43 0 0 44 -110 0 0 328 -37 0 0 241 -33 0 0 322 -37 0 0 323 -37 0 0 97 -37 0 0 286 12 0 0 79 12 0 0 74 -36 0 0 261 -69 0 0 262 -69 0 0 258 -69 0 0 256 -69 0 0 259 -69 0 0 257 -69 0 0 65 -69 0 0
EndChar
StartChar: G
Encoding: 71 71 40
Width: 760
Flags: W
HStem: -13 47<362 390> 647 47<471 489>
VStem: 88 107<256 277>
Fore
541 324 m 1
 813 324 l 1
 808 295 l 1
 794 293 l 2
 745 286 718 255 710 196 c 1
 674 0 l 1
 620 0 l 1
 604 74 l 1
 546 20 454 -13 362 -13 c 0
 200 -13 88 105 88 275 c 0
 88 505 262 694 474 694 c 0
 549 694 619 671 660 633 c 1
 685 681 l 1
 715 681 l 1
 736 467 l 1
 705 467 l 1
 642 590 571 647 479 647 c 0
 397 647 324 601 270 515 c 0
 222 439 195 347 195 258 c 0
 195 196 209 146 235 110 c 0
 269 62 326 34 388 34 c 0
 514 34 614 120 614 227 c 0
 614 266 595 284 547 293 c 2
 536 295 l 1
 541 324 l 1
EndSplineSet
KernsSLIF: 89 -40 0 0 87 -40 0 0 86 -40 0 0 84 -13 0 0 261 -4 0 0 262 -4 0 0 258 -4 0 0 256 -4 0 0 259 -4 0 0 257 -4 0 0 225 5 0 0 65 -4 0 0
EndChar
StartChar: H
Encoding: 72 72 41
Width: 800
Flags: W
HStem: 347 40<278 640>
DStem: 208 553 308 553 131 128 278 387 208 553 271 347 131 128 231 128 640 347 778 553 601 128 701 128 678 553 778 553 648 387 701 128
Fore
640 347 m 1
 271 347 l 1
 231 128 l 1
 229 115 227 97 227 87 c 0
 227 53 247 34 285 31 c 2
 312 29 l 1
 307 0 l 1
 21 0 l 1
 26 29 l 1
 43 31 l 2
 98 38 117 59 131 128 c 1
 208 553 l 1
 210 561 212 587 212 596 c 0
 212 628 195 645 155 650 c 2
 139 652 l 1
 145 681 l 1
 431 681 l 1
 425 652 l 1
 397 650 l 1
 342 643 322 621 308 553 c 1
 278 387 l 1
 648 387 l 1
 678 553 l 1
 680 566 682 584 682 594 c 0
 682 628 662 647 624 650 c 2
 597 652 l 1
 602 681 l 1
 888 681 l 1
 883 652 l 1
 866 650 l 2
 811 643 792 622 778 553 c 1
 701 128 l 1
 699 120 697 94 697 85 c 0
 697 53 714 36 754 31 c 2
 770 29 l 1
 764 0 l 1
 478 0 l 1
 484 29 l 1
 512 31 l 1
 567 38 587 60 601 128 c 1
 640 347 l 1
EndSplineSet
EndChar
StartChar: I
Encoding: 73 73 42
Width: 320
Flags: W
HStem: 0 21G<21 288> 661 20G<145 412>
DStem: 205 553 305 553 128 128 228 128
Fore
294 29 m 1
 288 0 l 1
 21 0 l 1
 26 29 l 1
 43 31 l 2
 96 40 114 61 128 128 c 1
 205 553 l 2
 207 564 209 584 209 594 c 0
 209 627 191 645 155 650 c 2
 139 652 l 1
 145 681 l 1
 412 681 l 1
 407 652 l 1
 390 650 l 2
 337 641 319 620 305 553 c 1
 228 128 l 2
 226 117 224 97 224 87 c 0
 224 54 242 36 278 31 c 2
 294 29 l 1
EndSplineSet
EndChar
StartChar: J
Encoding: 74 74 43
Width: 560
Flags: W
HStem: -13 47<189 211> 661 20G<392 666>
VStem: -2 77<126 159>
DStem: 456 553 556 553 400 246 502 255
Fore
387 652 m 1
 392 681 l 1
 666 681 l 1
 661 652 l 1
 644 650 l 2
 589 643 570 622 556 553 c 1
 502 255 l 1
 482 146 471 115 439 80 c 0
 389 24 297 -13 209 -13 c 0
 83 -13 -2 57 -2 159 c 0
 -2 225 36 276 86 276 c 0
 114 276 134 259 134 233 c 0
 134 211 126 198 97 172 c 0
 81 158 75 145 75 126 c 0
 75 75 129 34 198 34 c 0
 259 34 315 59 349 101 c 0
 374 133 385 166 400 246 c 1
 456 553 l 1
 458 566 460 584 460 594 c 0
 460 629 443 645 402 650 c 2
 387 652 l 1
EndSplineSet
KernsSLIF: 262 -50 0 0 256 -50 0 0 225 -39 0 0 65 -50 0 0
EndChar
StartChar: K
Encoding: 75 75 44
Width: 720
Flags: W
HStem: 0 21G<21 303 459 749> 661 20G<145 426 532 804>
DStem: 208 553 308 553 131 128 269 336 208 553 258 277 131 128 231 128 381 371 459 430 534 98 636 127 562 568 621 552 269 336 459 430 562 568 381 371 269 336 258 277
Fore
804 681 m 1
 799 652 l 1
 746 639 689 607 621 552 c 1
 459 430 l 1
 636 127 l 1
 673 62 695 44 755 29 c 1
 749 0 l 1
 459 0 l 1
 464 29 l 1
 480 31 l 2
 525 37 543 47 543 68 c 0
 543 76 539 88 534 98 c 1
 381 371 l 1
 258 277 l 1
 231 128 l 1
 229 115 227 97 227 87 c 0
 227 53 247 34 285 31 c 2
 308 29 l 1
 303 0 l 1
 21 0 l 1
 26 29 l 1
 43 31 l 2
 98 38 117 59 131 128 c 1
 208 553 l 1
 210 561 212 586 212 596 c 0
 212 628 195 645 155 650 c 2
 139 652 l 1
 145 681 l 1
 426 681 l 1
 421 652 l 1
 397 650 l 2
 342 643 322 621 308 553 c 1
 269 336 l 1
 562 568 l 2
 580 583 589 598 589 613 c 0
 589 634 575 644 539 650 c 2
 527 652 l 1
 532 681 l 1
 804 681 l 1
EndSplineSet
KernsSLIF: 121 -28 0 0 362 -23 0 0 117 -23 0 0 351 -29 0 0 352 -29 0 0 111 -29 0 0 45 -49 0 0 101 -29 0 0 328 -25 0 0 241 -7 0 0 322 -25 0 0 97 -25 0 0 84 5 0 0 83 2 0 0 286 -52 0 0 287 -52 0 0 234 -52 0 0 79 -52 0 0 71 -50 0 0 67 -52 0 0
EndChar
StartChar: L
Encoding: 76 76 45
Width: 580
Flags: W
HStem: 0 39<292 559> 661 20G<145 419>
DStem: 208 553 308 553 131 128 233 139
Fore
656 209 m 1
 559 0 l 1
 21 0 l 1
 26 29 l 1
 43 31 l 2
 98 38 117 59 131 128 c 1
 208 553 l 1
 210 561 212 587 212 596 c 0
 212 628 195 645 155 650 c 2
 139 652 l 1
 145 681 l 1
 419 681 l 1
 413 652 l 1
 397 650 l 2
 342 643 322 622 308 553 c 1
 233 139 l 1
 227 100 226 96 226 85 c 0
 226 53 251 39 305 39 c 0
 379 39 450 64 519 115 c 0
 558 143 583 169 627 223 c 1
 656 209 l 1
EndSplineSet
KernsSLIF: 121 -1 0 0 362 -4 0 0 39 -83 0 0 186 -83 0 0 45 52 0 0 89 -59 0 0 87 -52 0 0 86 -61 0 0 298 1 0 0 85 1 0 0 84 -50 0 0 83 30 0 0 290 15 0 0 288 15 0 0 286 15 0 0 289 15 0 0 287 15 0 0 79 15 0 0 71 15 0 0 264 15 0 0 67 15 0 0 262 32 0 0 256 32 0 0 257 32 0 0 225 42 0 0 65 32 0 0
EndChar
StartChar: M
Encoding: 77 77 46
Width: 860
Flags: W
HStem: 0 21G<18 247 372 415 558 832> 661 20G<142 365 741 956>
DStem: 205 553 272 620 128 128 183 128 272 620 365 681 372 0 449 156 741 681 756 612 449 156 415 0 756 612 846 553 669 128 769 128
Fore
372 0 m 1
 272 620 l 1
 183 128 l 1
 181 115 179 97 179 87 c 0
 179 53 196 36 237 31 c 2
 252 29 l 1
 247 0 l 1
 18 0 l 1
 23 29 l 1
 40 31 l 2
 95 38 114 59 128 128 c 1
 205 553 l 1
 207 561 209 587 209 596 c 0
 209 628 192 645 152 650 c 2
 136 652 l 1
 142 681 l 1
 365 681 l 1
 449 156 l 1
 741 681 l 1
 956 681 l 1
 951 652 l 1
 934 650 l 2
 879 643 860 622 846 553 c 1
 769 128 l 1
 767 120 765 94 765 85 c 0
 765 53 782 36 822 31 c 2
 838 29 l 1
 832 0 l 1
 558 0 l 1
 564 29 l 1
 580 31 l 2
 635 38 654 59 669 128 c 1
 756 612 l 1
 415 0 l 1
 372 0 l 1
EndSplineSet
EndChar
StartChar: N
Encoding: 78 78 47
Width: 720
Flags: W
HStem: 0 21G<18 247 526 612> 661 20G<142 360 594 823>
DStem: 205 553 273 622 128 128 183 128 273 622 360 681 526 0 581 130 658 553 713 553 581 130 612 0
Fore
360 681 m 1
 581 130 l 1
 658 553 l 1
 659 560 661 587 661 596 c 0
 661 628 644 645 604 650 c 2
 589 652 l 1
 594 681 l 1
 823 681 l 1
 818 652 l 1
 801 650 l 2
 746 643 727 621 713 553 c 1
 612 0 l 1
 526 0 l 1
 273 622 l 1
 183 128 l 1
 181 115 179 97 179 87 c 0
 179 53 196 36 237 31 c 2
 252 29 l 1
 247 0 l 1
 18 0 l 1
 23 29 l 1
 40 31 l 2
 95 38 114 59 128 128 c 1
 205 553 l 1
 207 561 209 587 209 596 c 0
 209 628 192 645 152 650 c 2
 136 652 l 1
 142 681 l 1
 360 681 l 1
EndSplineSet
KernsSLIF: 362 -35 0 0 117 -33 0 0 46 -29 0 0 249 -24 0 0 351 -26 0 0 352 -26 0 0 111 -24 0 0 335 -31 0 0 101 -29 0 0 44 -32 0 0 328 -28 0 0 241 -41 0 0 322 -28 0 0 323 -28 0 0 97 -27 0 0 286 -21 0 0 287 -21 0 0 79 -21 0 0 71 -19 0 0 264 -20 0 0 67 -21 0 0 262 -16 0 0 256 -16 0 0 257 -16 0 0 225 -5 0 0 65 -16 0 0
EndChar
StartChar: O
Encoding: 79 79 48
Width: 760
Flags: W
HStem: -13 47<375 393> 647 47<487 521>
VStem: 88 110<249 277> 689 110<406 441>
Fore
512 694 m 0
 681 694 799 576 799 406 c 0
 799 299 756 193 680 115 c 0
 598 31 496 -13 379 -13 c 0
 206 -13 88 105 88 277 c 0
 88 388 135 497 218 578 c 0
 294 653 399 694 512 694 c 0
501 647 m 0
 424 647 342 603 289 535 c 1
 236 464 198 347 198 249 c 0
 198 119 271 34 383 34 c 0
 468 34 552 80 607 158 c 0
 655 227 689 344 689 441 c 0
 689 564 613 647 501 647 c 0
EndSplineSet
KernsSLIF: 89 -49 0 0 88 -46 0 0 87 -36 0 0 86 -44 0 0 84 14 0 0 262 -49 0 0 256 -49 0 0 257 -49 0 0 225 -38 0 0 65 -49 0 0
EndChar
StartChar: P
Encoding: 80 80 49
Width: 600
Flags: W
HStem: 0 21G<21 309> 289 37<267 390> 639 42<145 454>
VStem: 584 97<518 529>
DStem: 208 553 311 569 131 128 267 326 208 553 260 289 131 128 231 128
Fore
260 289 m 1
 231 128 l 2
 229 117 227 95 227 85 c 0
 227 53 248 33 285 31 c 2
 314 29 l 1
 309 0 l 1
 21 0 l 1
 26 29 l 1
 43 31 l 2
 98 38 117 59 131 128 c 1
 208 553 l 1
 210 561 212 587 212 596 c 0
 212 628 195 645 155 650 c 2
 139 652 l 1
 145 681 l 1
 450 681 l 2
 541 681 577 674 617 647 c 0
 659 619 681 574 681 518 c 0
 681 448 644 374 592 338 c 0
 541 304 469 289 353 289 c 2
 260 289 l 1
267 326 m 1
 360 326 l 2
 434 326 481 338 515 365 c 0
 555 398 584 462 584 518 c 0
 584 557 568 594 543 614 c 0
 522 630 484 639 435 639 c 0
 393 639 352 632 335 623 c 0
 322 615 318 605 311 569 c 1
 267 326 l 1
EndSplineSet
KernsSLIF: 46 -101 0 0 249 -20 0 0 250 -17 0 0 351 -20 0 0 352 -20 0 0 111 -20 0 0 45 -14 0 0 335 -28 0 0 101 -28 0 0 44 -103 0 0 328 -25 0 0 241 -30 0 0 322 -25 0 0 323 -25 0 0 97 -25 0 0 74 -28 0 0 262 -68 0 0 256 -68 0 0 257 -68 0 0 225 -97 0 0 65 -68 0 0
EndChar
StartChar: Q
Encoding: 81 81 50
Width: 780
Flags: W
HStem: -191 47<315 366> -13 37<390 419> 98 68<441 467> 647 47<492 526>
VStem: 61 115<-59 -45> 80 107<237 266> 317 43<54 73> 594 82<-13 6> 702 110<406 440>
Fore
583 32 m 1xfb80
 512 -2 463 -13 390 -13 c 0
 206 -13 80 100 80 266 c 0xf780
 80 375 124 484 202 566 c 0
 285 652 384 694 506 694 c 0
 694 694 812 583 812 406 c 0
 812 276 752 155 651 78 c 1
 669 55 676 33 676 4 c 0
 676 -107 537 -191 351 -191 c 0
 251 -191 164 -168 107 -127 c 0
 79 -107 61 -80 61 -59 c 0
 61 -29 91 -3 125 -3 c 0
 153 -3 176 -22 176 -45 c 0
 176 -52 175 -59 173 -67 c 0
 172 -72 171 -77 171 -81 c 0
 171 -114 253 -144 344 -144 c 0
 411 -144 465 -132 512 -106 c 0
 562 -80 594 -39 594 -1 c 0
 594 6 590 17 583 32 c 1xfb80
600 129 m 1
 628 158 649 192 667 241 c 0
 686 296 702 384 702 440 c 0
 702 492 685 546 658 582 c 0
 627 623 571 647 507 647 c 0
 414 647 327 599 274 520 c 0
 221 440 187 331 187 237 c 0
 187 179 204 124 235 87 c 0
 265 50 295 33 342 25 c 1
 323 42 317 54 317 73 c 0
 317 127 379 166 465 166 c 0
 518 166 553 156 600 129 c 1
547 71 m 1
 516 90 486 98 443 98 c 0
 393 98 360 80 360 54 c 0
 360 36 383 24 417 24 c 0
 462 24 512 42 547 71 c 1
EndSplineSet
EndChar
StartChar: R
Encoding: 82 82 51
Width: 700
Flags: W
HStem: 0 21G<21 309 567 731> 326 37<274 398> 639 42<145 486>
VStem: 624 107<527 545>
DStem: 208 553 312 571 131 128 274 363 208 553 267 326 131 128 231 128
Fore
398 326 m 1
 267 326 l 1
 231 128 l 1
 229 115 227 97 227 87 c 0
 227 53 248 34 285 31 c 2
 314 29 l 1
 309 0 l 1
 21 0 l 1
 26 29 l 1
 43 31 l 2
 98 38 117 59 131 128 c 1
 208 553 l 1
 210 561 212 586 212 596 c 0
 212 628 194 645 155 650 c 2
 139 652 l 1
 145 681 l 1
 514 681 l 2
 577 681 636 670 666 653 c 0
 707 630 731 586 731 533 c 0
 731 470 697 408 642 370 c 0
 609 347 573 335 510 326 c 1
 630 114 l 1
 662 56 674 47 736 29 c 1
 731 0 l 1
 567 0 l 1
 398 326 l 1
274 363 m 1
 399 363 l 2
 481 363 522 372 557 398 c 0
 598 429 624 481 624 531 c 0
 624 570 604 602 570 621 c 0
 548 632 505 639 454 639 c 0
 353 639 321 624 312 571 c 1
 274 363 l 1
EndSplineSet
KernsSLIF: 121 -11 0 0 362 -15 0 0 363 -15 0 0 117 -15 0 0 250 -22 0 0 351 -24 0 0 352 -24 0 0 111 -23 0 0 45 -35 0 0 335 -29 0 0 101 -28 0 0 328 -24 0 0 241 -6 0 0 322 -24 0 0 323 -24 0 0 97 -24 0 0 89 -25 0 0 87 -25 0 0 86 -25 0 0 298 -21 0 0 85 -21 0 0 84 14 0 0 286 -21 0 0 287 -21 0 0 234 -21 0 0 79 -21 0 0 71 -19 0 0 264 -20 0 0 67 -20 0 0
EndChar
StartChar: S
Encoding: 83 83 52
Width: 640
Flags: W
HStem: -13 47<325 366> 486 21G<633 668> 652 42<396 430>
VStem: 136 107<491 520> 556 107<200 231>
Fore
637 681 m 1
 668 486 l 1
 633 486 l 1
 606 542 593 564 571 587 c 0
 532 628 473 652 414 652 c 0
 320 652 243 592 243 520 c 0
 243 482 268 457 325 438 c 0
 351 429 391 418 512 385 c 0
 619 356 663 311 663 231 c 0
 663 97 522 -13 350 -13 c 0
 268 -13 206 6 147 50 c 1
 119 0 l 1
 83 0 l 1
 61 247 l 1
 100 247 l 1
 138 112 229 34 349 34 c 0
 462 34 556 109 556 200 c 0
 556 231 544 251 517 267 c 0
 490 282 472 288 381 312 c 0
 288 336 254 348 216 367 c 0
 166 392 136 439 136 491 c 0
 136 605 257 694 411 694 c 0
 479 694 528 680 586 644 c 1
 605 681 l 1
 637 681 l 1
EndSplineSet
KernsSLIF: 116 -8 0 0 89 -17 0 0 87 -17 0 0 86 -17 0 0 84 13 0 0 262 -13 0 0 256 -13 0 0 257 -13 0 0 225 -2 0 0 65 -13 0 0
EndChar
StartChar: T
Encoding: 84 84 53
Width: 600
Flags: W
HStem: 0 21G<141 451> 484 197<134 725> 639 42<134 515>
DStem: 354 599 453 594 269 128 369 128
Fore
700 681 m 1xc0
 725 484 l 1
 693 484 l 1xc0
 673 531 660 553 638 578 c 0
 599 620 556 639 502 639 c 0
 468 639 460 632 453 594 c 2
 369 128 l 1
 367 120 365 93 365 84 c 0
 365 53 387 34 426 31 c 2
 456 29 l 1
 451 0 l 1
 141 0 l 1
 146 29 l 1
 176 31 l 2
 234 36 255 59 269 128 c 1
 354 599 l 1
 356 605 356 610 356 617 c 0
 356 633 346 639 317 639 c 0xa0
 231 639 156 590 84 486 c 1
 50 486 l 1
 134 681 l 1
 700 681 l 1xc0
EndSplineSet
KernsSLIF: 121 12 0 0 119 -15 0 0 118 -15 0 0 117 -102 0 0 59 -7 0 0 115 -37 0 0 114 -15 0 0 46 -92 0 0 249 -48 0 0 111 -48 0 0 106 8 0 0 105 -21 0 0 45 -75 0 0 172 -89 0 0 171 -86 0 0 103 -33 0 0 101 -69 0 0 44 -95 0 0 58 -7 0 0 99 -54 0 0 241 -52 0 0 97 -53 0 0 89 33 0 0 87 33 0 0 86 33 0 0 83 18 0 0 290 13 0 0 233 14 0 0 288 13 0 0 286 13 0 0 289 13 0 0 287 13 0 0 234 11 0 0 79 13 0 0 74 -51 0 0 71 15 0 0 67 14 0 0 261 -36 0 0 262 -36 0 0 258 -36 0 0 256 -36 0 0 259 -36 0 0 257 -36 0 0 225 -26 0 0 65 -36 0 0
EndChar
StartChar: U
Encoding: 85 85 54
Width: 720
Flags: W
HStem: -13 47<356 391> 661 20G<123 397 613 842>
VStem: 118 107<143 163>
DStem: 187 553 287 553 126 217 231 246 677 553 732 553 622 252 675 239
Fore
842 681 m 1
 837 652 l 1
 820 650 l 2
 765 643 746 622 732 553 c 1
 675 239 l 1
 655 132 634 88 582 48 c 0
 529 8 452 -13 356 -13 c 0
 268 -13 207 5 163 45 c 0
 135 71 118 108 118 145 c 0
 118 160 122 192 126 217 c 1
 187 553 l 1
 189 562 191 586 191 596 c 0
 191 628 174 645 134 650 c 2
 118 652 l 1
 123 681 l 1
 397 681 l 1
 392 652 l 1
 376 650 l 2
 321 643 301 622 287 553 c 1
 231 246 l 2
 228 229 225 185 225 161 c 0
 225 79 283 34 389 34 c 0
 462 34 527 57 563 96 c 0
 593 129 606 164 622 252 c 2
 677 553 l 1
 679 566 681 584 681 594 c 0
 681 629 664 645 623 650 c 2
 608 652 l 1
 613 681 l 1
 842 681 l 1
EndSplineSet
KernsSLIF: 114 -26 0 0 46 -36 0 0 112 -31 0 0 110 -26 0 0 109 -26 0 0 44 -39 0 0 261 -42 0 0 262 -42 0 0 256 -42 0 0 259 -42 0 0 257 -42 0 0 225 -31 0 0 65 -42 0 0
EndChar
StartChar: V
Encoding: 86 86 55
Width: 680
Flags: W
HStem: 0 21G<297 358> 661 20G<92 364 564 815>
DStem: 172 575 281 553 297 0 368 107 622 555 678 555 368 107 358 0
Fore
364 681 m 1
 359 652 l 1
 339 650 l 2
 301 646 277 625 277 594 c 0
 277 582 278 568 281 553 c 2
 368 107 l 1
 622 555 l 2
 630 570 636 590 636 603 c 0
 636 629 614 646 576 650 c 2
 558 652 l 1
 564 681 l 1
 815 681 l 1
 810 652 l 1
 797 650 l 2
 745 642 712 616 678 555 c 1
 358 0 l 1
 297 0 l 1
 172 575 l 2
 161 626 145 642 100 650 c 2
 87 652 l 1
 92 681 l 1
 364 681 l 1
EndSplineSet
KernsSLIF: 121 -45 0 0 117 -50 0 0 59 -85 0 0 114 -50 0 0 46 -114 0 0 249 -81 0 0 111 -81 0 0 105 -25 0 0 45 -58 0 0 172 -73 0 0 171 -70 0 0 103 -77 0 0 101 -87 0 0 44 -116 0 0 58 -85 0 0 241 -99 0 0 97 -84 0 0 84 30 0 0 83 -22 0 0 290 -56 0 0 233 -55 0 0 288 -56 0 0 286 -56 0 0 289 -56 0 0 287 -56 0 0 79 -56 0 0 71 -51 0 0 67 -54 0 0 261 -99 0 0 262 -99 0 0 258 -99 0 0 256 -99 0 0 259 -99 0 0 257 -99 0 0 225 -106 0 0 65 -99 0 0
EndChar
StartChar: W
Encoding: 87 87 56
Width: 960
Flags: W
HStem: 0 21G<263 326 615 680> 661 20G<92 351 449 705 855 1095>
DStem: 174 540 280 539 263 0 340 126 534 521 549 442 340 126 326 0 549 442 635 554 615 0 695 126
Fore
263 0 m 1
 174 540 l 1
 159 624 152 634 96 650 c 2
 87 652 l 1
 92 681 l 1
 351 681 l 1
 346 652 l 1
 331 650 l 2
 294 645 273 625 273 597 c 0
 273 590 274 579 276 566 c 0
 277 565 279 552 280 539 c 1
 340 126 l 1
 534 521 l 1
 522 607 505 634 454 650 c 2
 444 652 l 1
 449 681 l 1
 705 681 l 1
 700 652 l 1
 684 650 l 2
 647 645 630 628 630 595 c 0
 630 585 630 585 635 554 c 1
 695 126 l 1
 891 521 l 2
 914 568 922 589 922 604 c 0
 922 630 906 643 864 650 c 2
 850 652 l 1
 855 681 l 1
 1095 681 l 1
 1090 652 l 1
 1078 650 l 2
 1028 643 995 615 965 554 c 1
 680 0 l 1
 615 0 l 1
 549 442 l 1
 326 0 l 1
 263 0 l 1
EndSplineSet
KernsSLIF: 121 -39 0 0 117 -43 0 0 59 -78 0 0 114 -43 0 0 46 -96 0 0 249 -68 0 0 111 -68 0 0 105 -25 0 0 45 -45 0 0 172 -59 0 0 171 -57 0 0 103 -64 0 0 101 -73 0 0 44 -99 0 0 58 -78 0 0 241 -86 0 0 97 -71 0 0 84 30 0 0 83 -22 0 0 290 -49 0 0 233 -48 0 0 288 -49 0 0 286 -49 0 0 289 -49 0 0 287 -49 0 0 79 -49 0 0 71 -47 0 0 67 -49 0 0 261 -89 0 0 262 -89 0 0 258 -89 0 0 256 -89 0 0 259 -89 0 0 257 -89 0 0 225 -86 0 0 65 -89 0 0
EndChar
StartChar: X
Encoding: 88 88 57
Width: 700
Flags: W
HStem: 0 21G<-25 239 412 722> 661 20G<128 417 556 815>
DStem: 227 576 345 575 356 349 441 406 356 349 381 309 183 167 207 126 381 309 463 366 488 124 608 117 571 547 632 545 441 406 463 366
Fore
815 681 m 1
 810 652 l 1
 792 650 l 2
 751 648 691 608 632 545 c 2
 463 366 l 1
 608 117 l 1
 637 63 657 47 710 33 c 2
 728 29 l 1
 722 0 l 1
 412 0 l 1
 417 29 l 1
 433 31 l 2
 481 37 505 54 505 81 c 0
 505 92 501 103 488 124 c 1
 381 309 l 1
 207 126 l 2
 191 109 181 89 181 72 c 0
 181 50 199 34 227 31 c 2
 244 29 l 1
 239 0 l 1
 -25 0 l 1
 -20 29 l 1
 54 53 107 88 183 167 c 2
 356 349 l 1
 227 576 l 1
 205 620 178 641 133 650 c 2
 123 652 l 1
 128 681 l 1
 417 681 l 1
 411 652 l 1
 397 650 l 2
 360 645 337 627 337 605 c 0
 337 596 341 582 345 575 c 2
 441 406 l 1
 571 547 l 2
 592 569 607 598 607 615 c 0
 607 635 595 648 572 650 c 2
 551 652 l 1
 556 681 l 1
 815 681 l 1
EndSplineSet
KernsSLIF: 121 -31 0 0 117 -27 0 0 111 -32 0 0 45 -57 0 0 101 -33 0 0 97 -28 0 0 81 -50 0 0 286 -53 0 0 79 -53 0 0 67 -52 0 0
EndChar
StartChar: Y
Encoding: 89 89 58
Width: 660
Flags: W
HStem: 0 21G<160 470> 661 20G<92 362 553 809>
DStem: 170 588 290 574 316 281 399 339 316 281 419 297 288 128 388 128 596 575 624 532 399 339 419 297
Fore
809 681 m 1
 804 652 l 1
 730 642 693 617 624 532 c 1
 419 297 l 1
 388 128 l 2
 386 117 384 97 384 87 c 0
 384 52 404 34 445 31 c 2
 475 29 l 1
 470 0 l 1
 160 0 l 1
 165 29 l 1
 195 31 l 2
 253 36 274 58 288 128 c 1
 316 281 l 1
 170 588 l 1
 152 627 141 636 97 649 c 2
 87 652 l 1
 92 681 l 1
 362 681 l 1
 357 652 l 1
 346 650 l 2
 329 647 323 645 315 643 c 0
 295 636 283 621 283 603 c 0
 283 594 286 582 290 574 c 2
 399 339 l 1
 596 575 l 1
 605 587 610 598 610 609 c 0
 610 631 594 644 559 650 c 2
 547 652 l 1
 553 681 l 1
 809 681 l 1
EndSplineSet
KernsSLIF: 118 -68 0 0 117 -68 0 0 59 -102 0 0 46 -113 0 0 112 -73 0 0 249 -99 0 0 111 -100 0 0 105 -18 0 0 45 -94 0 0 172 -103 0 0 171 -101 0 0 103 -95 0 0 101 -105 0 0 44 -116 0 0 58 -102 0 0 241 -116 0 0 97 -103 0 0 84 37 0 0 83 -15 0 0 290 -49 0 0 233 -48 0 0 288 -49 0 0 286 -49 0 0 289 -49 0 0 287 -49 0 0 79 -49 0 0 71 -44 0 0 67 -47 0 0 261 -57 0 0 262 -57 0 0 258 -57 0 0 256 -57 0 0 259 -57 0 0 257 -57 0 0 225 -46 0 0 65 -57 0 0
EndChar
StartChar: Z
Encoding: 90 90 59
Width: 580
Flags: W
HStem: 0 44<215 557> 638 43<200 473>
DStem: 550 628 695 642 8 35 155 49
Fore
643 194 m 1
 557 0 l 1
 24 0 l 1
 8 35 l 1
 550 628 l 1
 510 636 487 638 449 638 c 0
 318 638 239 598 144 482 c 1
 114 495 l 1
 200 681 l 1
 683 681 l 1
 695 642 l 1
 155 49 l 1
 197 45 221 44 257 44 c 0
 359 44 430 59 494 95 c 0
 541 121 570 148 615 209 c 1
 643 194 l 1
EndSplineSet
KernsSLIF: 121 -4 0 0 118 -6 0 0
EndChar
StartChar: bracketleft
Encoding: 91 91 60
Width: 260
Flags: W
HStem: -121 31<183 199> 684 31<208 345>
DStem: 208 715 264 615 56 -121 148 -21
Fore
208 715 m 1
 351 715 l 1
 345 684 l 1
 331 684 l 2
 282 684 275 677 264 615 c 1
 148 -21 l 2
 142 -54 142 -56 142 -62 c 0
 142 -82 157 -90 193 -90 c 2
 205 -90 l 1
 199 -121 l 1
 56 -121 l 1
 208 715 l 1
EndSplineSet
EndChar
StartChar: backslash
Encoding: 92 92 61
Width: 600
Flags: W
HStem: 0 21G<465 542>
DStem: 84 717 162 717 465 0 542 0
Fore
162 717 m 1
 542 0 l 1
 465 0 l 1
 84 717 l 1
 162 717 l 1
EndSplineSet
EndChar
StartChar: bracketright
Encoding: 93 93 62
Width: 260
Flags: W
HStem: -120 31<20 157> 684 31<167 188.675>
DStem: 217 615 309 715 101 -20 157 -120
Fore
157 -120 m 1
 15 -120 l 1
 21 -89 l 1
 35 -89 l 2
 83 -89 90 -82 101 -20 c 1
 217 615 l 1
 223 651 223 651 223 657 c 0
 223 678 209 684 161 684 c 1
 167 715 l 1
 309 715 l 1
 157 -120 l 1
EndSplineSet
EndChar
StartChar: asciicircum
Encoding: 94 94 63
Width: 600
Flags: W
DStem: 306 722 348 626 97 318 186 318 348 626 390 722 510 318 599 318
Fore
599 318 m 1
 510 318 l 1
 348 626 l 1
 186 318 l 1
 97 318 l 1
 306 722 l 1
 390 722 l 1
 599 318 l 1
EndSplineSet
EndChar
StartChar: underscore
Encoding: 95 95 64
Width: 500
Flags: W
HStem: -155 60<0 500>
Fore
0 -95 m 1
 500 -95 l 1
 500 -155 l 1
 0 -155 l 1
 0 -95 l 1
EndSplineSet
EndChar
StartChar: quoteleft
Encoding: 96 8216 65
Width: 280
Flags: W
Fore
321 694 m 1
 330 676 l 1
 280 649 251 615 238 570 c 1
 251 582 264 587 278 587 c 0
 302 587 320 567 320 540 c 0
 320 499 286 466 245 466 c 0
 214 466 191 494 191 530 c 0
 191 596 244 664 321 694 c 1
EndSplineSet
KernsSLIF: 89 5 1 0 87 13 1 0 86 9 1 0 84 23 1 0 262 -86 1 0 256 -86 1 0 257 -86 1 0 225 -206 1 0 65 -85 1 0
EndChar
StartChar: a
Encoding: 97 97 66
Width: 620
Flags: W
HStem: -9 47<243 263> 448 47<359 381>
VStem: 71 97<151 176> 444 95<94 112>
Fore
605 486 m 1
 546 160 l 1
 541 134 539 117 539 105 c 0
 539 75 563 51 592 51 c 0
 616 51 644 66 664 90 c 1
 686 69 l 1
 656 25 592 -9 540 -9 c 0
 513 -9 486 3 471 21 c 0
 456 40 444 73 444 96 c 0
 444 99 444 105 445 112 c 1
 384 29 321 -9 243 -9 c 0
 140 -9 71 65 71 176 c 0
 71 347 204 495 359 495 c 0
 417 495 470 473 504 435 c 1
 513 486 l 1
 605 486 l 1
496 393 m 1
 460 433 428 448 381 448 c 0
 320 448 265 413 223 347 c 0
 191 296 168 215 168 151 c 0
 168 84 205 38 261 38 c 0
 315 38 378 78 415 137 c 0
 451 194 470 252 496 393 c 1
EndSplineSet
KernsSLIF: 121 -7 0 0 119 -6 0 0 118 -7 0 0 39 -32 0 0 106 -2 0 0
EndChar
StartChar: b
Encoding: 98 98 67
Width: 600
Flags: W
HStem: -9 47<316 345> 448 47<435 453>
VStem: 524 97<309 338>
DStem: 193 577 310 715 88 0 246 361
Fore
310 715 m 1
 246 361 l 1
 292 444 371 495 453 495 c 0
 554 495 621 421 621 309 c 0
 621 141 491 -9 345 -9 c 0
 284 -9 225 17 191 59 c 1
 152 0 l 1
 88 0 l 1
 193 577 l 1
 194 585 195 593 195 600 c 0
 195 633 180 645 132 651 c 2
 117 653 l 1
 122 682 l 1
 191 689 224 697 269 715 c 1
 310 715 l 1
198 96 m 1
 199 94 201 93 201 92 c 0
 232 56 271 38 316 38 c 0
 380 38 441 82 478 154 c 0
 507 211 524 279 524 338 c 0
 524 404 489 448 437 448 c 0
 359 448 288 386 245 279 c 0
 227 235 216 192 198 96 c 1
EndSplineSet
KernsSLIF: 121 -21 0 0 119 -22 0 0 118 -22 0 0
EndChar
StartChar: c
Encoding: 99 99 68
Width: 480
Flags: W
HStem: -9 47<266 295> 458 37<352 368>
VStem: 65 102<174 192> 426 96<360 387>
Fore
472 119 m 1
 494 94 l 1
 441 33 347 -9 266 -9 c 0
 147 -9 65 72 65 190 c 0
 65 351 208 495 368 495 c 0
 455 495 522 448 522 387 c 0
 522 352 498 326 464 326 c 0
 442 326 426 340 426 360 c 0
 426 363 427 369 428 376 c 0
 429 382 429 387 429 391 c 0
 429 430 398 458 354 458 c 0
 312 458 268 431 234 384 c 0
 195 332 167 243 167 176 c 0
 167 95 219 38 295 38 c 0
 349 38 406 64 472 119 c 1
EndSplineSet
KernsSLIF: 107 -27 0 0 104 -26 0 0
EndChar
StartChar: d
Encoding: 100 100 69
Width: 640
Flags: W
HStem: -9 52<238 264 544 594> 448 47<355 379>
VStem: 65 101<155 181> 446 94<81 96>
DStem: 534 577 651 715 508 433 551 165
Fore
672 87 m 1
 695 66 l 1
 650 16 600 -9 544 -9 c 0
 490 -9 446 31 446 81 c 0
 446 90 447 97 451 122 c 1
 414 70 393 48 355 25 c 0
 320 4 276 -9 238 -9 c 0
 134 -9 65 66 65 179 c 0
 65 350 198 495 355 495 c 0
 417 495 461 477 508 433 c 1
 534 577 l 1
 535 585 536 594 536 600 c 0
 536 633 521 645 473 651 c 2
 457 653 l 1
 463 682 l 1
 532 689 565 697 610 715 c 1
 651 715 l 1
 551 165 l 1
 540 113 540 113 540 96 c 0
 540 64 561 43 594 43 c 0
 620 43 637 53 672 87 c 1
491 347 m 1
 499 389 l 1
 462 431 427 448 377 448 c 0
 324 448 276 424 242 381 c 0
 194 319 166 236 166 155 c 0
 166 85 202 43 264 43 c 0
 323 43 377 78 420 142 c 0
 453 192 470 241 491 347 c 1
EndSplineSet
EndChar
StartChar: e
Encoding: 101 101 70
Width: 540
Flags: W
HStem: -9 60<281 312> 458 37<388 411>
VStem: 65 109<166 184> 478 97<374 393>
Fore
501 114 m 1
 527 87 l 1
 445 24 359 -9 281 -9 c 0
 157 -9 65 71 65 178 c 0
 65 345 229 495 411 495 c 0
 505 495 575 449 575 387 c 0
 575 326 514 276 404 248 c 0
 341 232 280 224 179 218 c 1
 175 203 174 194 174 182 c 0
 174 96 222 51 312 51 c 0
 371 51 415 65 501 114 c 1
186 255 m 1
 199 255 l 2
 238 255 311 265 359 278 c 0
 433 297 478 338 478 386 c 0
 478 428 442 458 390 458 c 0
 341 458 297 435 256 390 c 0
 223 352 206 319 186 255 c 1
EndSplineSet
KernsSLIF: 121 -16 0 0 120 -1 0 0 119 -14 0 0 118 -12 0 0 116 -22 0 0 39 -7 0 0
EndChar
StartChar: f
Encoding: 102 102 71
Width: 340
Flags: W
HStem: -206 35<-21 20> 454 32<130 215 313 408> 695 33<414 451>
DStem: 215 454 307 454 148 84 237 69
Fore
313 486 m 1
 414 486 l 1
 408 454 l 1
 307 454 l 1
 237 69 l 1
 216 -45 204 -81 169 -125 c 0
 129 -176 59 -206 -21 -206 c 0
 -100 -206 -160 -174 -160 -132 c 0
 -160 -109 -141 -91 -115 -91 c 0
 -89 -91 -76 -99 -45 -135 c 0
 -24 -160 -3 -171 20 -171 c 0
 44 -171 70 -159 88 -138 c 0
 112 -112 122 -74 148 84 c 1
 215 454 l 1
 125 454 l 1
 131 486 l 1
 219 486 l 1
 230 554 240 588 258 620 c 0
 296 687 369 728 451 728 c 0
 512 728 557 703 557 668 c 0
 557 645 536 627 511 627 c 0
 490 627 474 638 461 661 c 0
 445 688 436 695 414 695 c 0
 391 695 371 685 358 667 c 0
 344 647 339 630 330 579 c 1
 313 486 l 1
EndSplineSet
KernsSLIF: 116 7 0 0 115 -48 0 0 39 44 0 0 249 -35 0 0 250 -35 0 0 351 -9 0 0 352 -37 0 0 111 -35 0 0 108 69 0 0 106 31 0 0 105 10 0 0 102 17 0 0 335 -42 0 0 101 -40 0 0 328 -39 0 0 241 -52 0 0 322 -21 0 0 323 -39 0 0 97 -38 0 0
EndChar
StartChar: g
Encoding: 103 103 72
Width: 560
Flags: W
HStem: -221 37<190 213> -9 47<224 244> 448 47<338 356>
VStem: 59 97<151 177>
DStem: 422 118 581 486 403 12 500 42
Fore
581 486 m 1
 500 42 l 1
 481 -67 460 -108 406 -150 c 0
 349 -195 270 -221 190 -221 c 0
 91 -221 4 -182 4 -138 c 0
 4 -111 30 -89 61 -89 c 0
 86 -89 102 -99 113 -121 c 0
 129 -152 132 -156 146 -165 c 0
 164 -177 186 -184 209 -184 c 0
 303 -184 382 -104 403 12 c 2
 422 118 l 1
 377 40 301 -9 224 -9 c 0
 125 -9 59 65 59 177 c 0
 59 349 187 495 338 495 c 0
 392 495 443 472 477 432 c 1
 500 486 l 1
 581 486 l 1
470 390 m 1
 467 393 467 393 464 397 c 0
 438 430 399 448 354 448 c 0
 305 448 256 418 221 366 c 0
 182 308 156 221 156 151 c 0
 156 81 189 38 244 38 c 0
 300 38 361 82 399 148 c 0
 432 206 442 241 470 390 c 1
EndSplineSet
KernsSLIF: 114 -21 0 0 351 -15 0 0 352 -15 0 0 108 -23 0 0 335 -19 0 0 101 -18 0 0 328 -18 0 0 241 -31 0 0 322 -18 0 0 97 -16 0 0
EndChar
StartChar: h
Encoding: 104 104 73
Width: 620
Flags: W
HStem: -9 52<544 595> 448 47<429 467>
VStem: 447 93<86 104> 495 93<385 405>
DStem: 193 577 310 715 88 0 255 412 193 577 246 364 88 0 180 0 490 347 578 325 453 144 547 153
Fore
88 0 m 1xd0
 193 577 l 1
 194 585 195 593 195 600 c 0
 195 633 180 645 132 651 c 2
 117 653 l 1
 122 682 l 1
 191 689 224 697 269 715 c 1
 310 715 l 1
 255 412 l 1
 350 475 400 495 467 495 c 0
 537 495 588 458 588 405 c 0xd0
 588 388 585 360 578 325 c 1
 547 153 l 1
 541 114 540 107 540 96 c 0
 540 65 563 43 595 43 c 0
 619 43 637 53 668 83 c 1
 689 61 l 1
 649 17 597 -9 544 -9 c 0
 489 -9 447 33 447 88 c 0xe0
 447 102 449 122 453 144 c 2
 490 347 l 2
 493 364 495 379 495 387 c 0
 495 423 467 448 429 448 c 0
 379 448 312 417 246 364 c 1
 180 0 l 1
 88 0 l 1xd0
EndSplineSet
KernsSLIF: 121 -7 0 0 39 -41 0 0
EndChar
StartChar: i
Encoding: 105 105 74
Width: 280
Flags: W
HStem: -9 52<207 257> 466 20G<233 271> 543 123<246 268>
VStem: 111 93<91 104>
DStem: 156 358 271 486 114 128 206 128
Fore
328 86 m 1
 351 65 l 1
 305 15 258 -9 207 -9 c 0
 148 -9 111 30 111 93 c 0
 111 104 112 117 114 128 c 2
 156 358 l 1
 158 367 158 372 158 383 c 0
 158 412 142 426 100 433 c 2
 88 435 l 1
 93 464 l 1
 161 470 176 473 233 486 c 1
 271 486 l 1
 206 128 l 1
 205 119 204 112 204 102 c 0
 204 67 225 43 257 43 c 0
 277 43 298 55 328 86 c 1
268 666 m 0
 298 666 320 646 320 618 c 0
 320 578 285 543 246 543 c 0
 218 543 197 565 197 595 c 0
 197 631 232 666 268 666 c 0
EndSplineSet
KernsSLIF: 84 -6 0 0
EndChar
StartChar: j
Encoding: 106 106 75
Width: 280
Flags: W
HStem: -221 37<-65 -30> 466 20G<236 274> 543 122<235 257>
VStem: 186 122<594 617>
DStem: 160 362 274 486 100 36 191 31
Fore
91 435 m 1
 96 464 l 1
 163 470 179 473 236 486 c 1
 274 486 l 1
 191 31 l 1
 174 -65 164 -94 137 -130 c 0
 95 -184 13 -221 -65 -221 c 0
 -141 -221 -200 -190 -200 -151 c 0
 -200 -124 -177 -104 -145 -104 c 0
 -120 -104 -103 -115 -85 -144 c 0
 -66 -176 -54 -184 -30 -184 c 0
 3 -184 36 -165 56 -135 c 0
 73 -108 77 -93 100 36 c 1
 160 362 l 1
 161 369 161 372 161 381 c 0
 161 412 146 425 102 433 c 2
 91 435 l 1
257 665 m 0
 286 665 308 645 308 617 c 0
 308 578 273 543 235 543 c 0
 207 543 186 565 186 594 c 0
 186 630 221 665 257 665 c 0
EndSplineSet
EndChar
StartChar: k
Encoding: 107 107 76
Width: 600
Flags: W
HStem: -9 60<513 568> 417 78<516 597>
DStem: 193 577 310 715 88 0 217 201
Fore
310 715 m 1
 217 201 l 1
 272 288 299 322 345 367 c 1
 432 449 521 495 597 495 c 0
 633 495 657 476 657 449 c 0
 657 416 629 388 595 388 c 0
 580 388 567 393 547 405 c 0
 532 414 525 417 516 417 c 0
 484 417 426 385 405 356 c 1
 411 286 430 212 455 152 c 0
 484 83 520 51 568 51 c 0
 586 51 609 57 625 66 c 1
 642 43 l 1
 603 13 549 -9 513 -9 c 0
 449 -9 399 31 368 107 c 0
 356 138 345 179 323 284 c 1
 231 187 205 135 180 0 c 1
 88 0 l 1
 193 577 l 1
 194 585 195 592 195 600 c 0
 195 632 180 645 133 651 c 2
 117 653 l 1
 122 682 l 1
 191 689 224 697 269 715 c 1
 310 715 l 1
EndSplineSet
KernsSLIF: 362 1 0 0 117 1 0 0 115 -3 0 0 46 -7 0 0 351 -19 0 0 352 -19 0 0 111 -19 0 0 45 -74 0 0 103 -14 0 0 335 -19 0 0 101 -19 0 0 44 -9 0 0 328 -17 0 0 241 -3 0 0 322 -17 0 0 323 -17 0 0 97 -17 0 0
EndChar
StartChar: l
Encoding: 108 108 77
Width: 280
Flags: W
HStem: -9 57<192 248>
VStem: 100 93<85 103>
DStem: 185 577 302 715 108 153 202 164
Fore
319 85 m 1
 342 64 l 1
 301 17 247 -9 192 -9 c 0
 140 -9 100 32 100 85 c 0
 100 101 103 125 108 153 c 2
 185 577 l 1
 186 585 187 593 187 599 c 0
 187 633 172 645 124 651 c 2
 109 653 l 1
 114 682 l 1
 183 689 216 697 261 715 c 1
 302 715 l 1
 202 164 l 1
 193 116 193 114 193 101 c 0
 193 71 216 48 248 48 c 0
 270 48 289 58 319 85 c 1
EndSplineSet
KernsSLIF: 121 -8 0 0 118 -9 0 0
EndChar
StartChar: m
Encoding: 109 109 78
Width: 880
Flags: W
HStem: -9 52<825 874> 448 47<401 439 709 749>
VStem: 733 93<86 104> 780 94<381 399>
DStem: 156 358 253 387 91 0 183 0 461 324 564 387 402 0 494 0 774 337 868 345 739 146 834 162
Fore
91 0 m 1xd0
 156 358 l 1
 157 367 158 373 158 383 c 0
 158 412 142 426 100 433 c 2
 88 435 l 1
 93 464 l 1
 161 470 176 473 233 486 c 1
 271 486 l 1
 262 433 l 1
 331 477 383 495 439 495 c 0
 505 495 545 471 561 423 c 1
 625 472 684 495 749 495 c 0
 827 495 874 459 874 399 c 0xd0
 874 387 872 370 868 345 c 1
 834 162 l 1
 830 135 826 107 826 95 c 0xe0
 826 63 845 43 874 43 c 0xd0
 894 43 911 51 934 73 c 1
 952 48 l 1
 917 12 870 -9 825 -9 c 0
 771 -9 733 32 733 90 c 0xe0
 733 100 736 129 739 146 c 2
 774 337 l 1
 779 363 780 373 780 385 c 0
 780 424 753 448 709 448 c 0
 670 448 616 425 564 387 c 1
 494 0 l 1
 402 0 l 1
 461 324 l 2
 467 356 469 374 469 387 c 0
 469 426 444 448 401 448 c 0
 360 448 300 423 253 387 c 1
 183 0 l 1
 91 0 l 1xd0
EndSplineSet
KernsSLIF: 121 -7 0 0 119 -5 0 0 118 -6 0 0 112 -1 0 0
EndChar
StartChar: n
Encoding: 110 110 79
Width: 620
Flags: W
HStem: -9 52<543 591> 448 47<430 468>
VStem: 450 93<86 104> 499 93<381 401>
DStem: 156 358 249 367 91 0 183 0 490 329 580 318 461 172 550 154
Fore
249 367 m 1xd0
 183 0 l 1
 91 0 l 1
 156 358 l 1
 157 367 158 373 158 383 c 0
 158 412 142 426 100 433 c 2
 88 435 l 1
 93 464 l 1
 161 470 176 473 233 486 c 1
 271 486 l 1
 258 414 l 1
 339 471 401 495 468 495 c 0
 545 495 592 459 592 401 c 0xd0
 592 380 592 380 580 318 c 1
 550 154 l 1
 545 125 543 112 543 99 c 0
 543 68 564 43 591 43 c 0
 610 43 624 52 653 81 c 1
 673 59 l 1
 637 15 591 -9 543 -9 c 0
 490 -9 450 32 450 86 c 0xe0
 450 105 452 124 461 172 c 2
 490 329 l 1
 490 329 492 343 495 354 c 0
 497 368 499 381 499 389 c 0
 499 425 472 448 430 448 c 0
 376 448 325 425 249 367 c 1xd0
EndSplineSet
KernsSLIF: 121 -14 0 0 119 -13 0 0 118 -14 0 0 39 -37 0 0 112 -11 0 0 84 -35 0 0
EndChar
StartChar: o
Encoding: 111 111 80
Width: 540
Flags: W
HStem: -9 42<272 290> 453 42<352 370>
VStem: 65 97<174 200> 470 102<290 314>
Fore
364 495 m 0
 489 495 572 413 572 290 c 0
 572 124 439 -9 274 -9 c 0
 149 -9 65 71 65 190 c 0
 65 267 97 346 150 403 c 0
 208 464 280 495 364 495 c 0
358 453 m 0
 309 453 264 429 230 385 c 0
 190 331 162 246 162 176 c 0
 162 85 205 33 281 33 c 0
 339 33 388 65 422 125 c 0
 449 173 470 255 470 314 c 0
 470 357 459 395 442 417 c 0
 425 437 389 453 358 453 c 0
EndSplineSet
KernsSLIF: 121 -16 0 0 120 -17 0 0 119 -17 0 0 118 -18 0 0 116 -16 0 0 39 -19 0 0 84 -65 0 0
EndChar
StartChar: p
Encoding: 112 112 81
Width: 600
Flags: W
HStem: -9 47<324 345> 448 47<438 458>
VStem: 527 93<313 339>
DStem: 166 358 202 55 81 -107 173 -107
Fore
281 486 m 1
 257 353 l 1
 296 440 374 495 458 495 c 0
 555 495 620 423 620 314 c 0
 620 143 490 -9 345 -9 c 0
 288 -9 236 14 202 55 c 1
 173 -107 l 2
 172 -112 171 -127 171 -133 c 0
 171 -161 189 -176 230 -181 c 2
 245 -183 l 1
 240 -212 l 1
 -24 -212 l 1
 -19 -183 l 1
 -2 -181 l 2
 50 -175 72 -155 81 -107 c 1
 166 358 l 1
 167 367 168 376 168 383 c 0
 168 412 153 426 109 433 c 2
 98 435 l 1
 103 464 l 1
 170 470 186 473 243 486 c 1
 281 486 l 1
216 122 m 2
 210 95 l 1
 236 58 276 38 324 38 c 0
 376 38 424 67 462 120 c 0
 500 173 527 264 527 339 c 0
 527 404 492 448 440 448 c 0
 393 448 344 419 305 369 c 0
 282 338 259 292 245 244 c 0
 239 226 232 194 216 122 c 2
EndSplineSet
KernsSLIF: 121 -21 0 0 116 -21 0 0
EndChar
StartChar: q
Encoding: 113 113 82
Width: 560
Flags: W
HStem: -9 47<230 253> 448 47<338 361>
VStem: 65 93<159 184>
DStem: 425 118 584 486 384 -107 476 -107
Fore
490 425 m 1
 529 486 l 1
 584 486 l 1
 476 -107 l 1
 475 -114 474 -126 474 -133 c 0
 474 -161 492 -176 533 -181 c 2
 549 -183 l 1
 543 -212 l 1
 279 -212 l 1
 285 -183 l 1
 301 -181 l 2
 353 -175 376 -155 384 -107 c 1
 425 118 l 1
 378 36 309 -9 230 -9 c 0
 131 -9 65 68 65 184 c 0
 65 350 193 495 338 495 c 0
 400 495 443 475 490 425 c 1
476 396 m 1
 472 401 467 405 465 408 c 0
 440 433 401 448 359 448 c 0
 300 448 249 416 211 354 c 0
 179 303 158 226 158 159 c 0
 158 83 193 38 253 38 c 0
 313 38 375 83 413 154 c 0
 442 207 453 250 476 396 c 1
EndSplineSet
KernsSLIF: 117 -18 0 0 99 -12 0 0
EndChar
StartChar: r
Encoding: 114 114 83
Width: 400
Flags: W
HStem: 0 21G<91 183> 419 76<335 417>
DStem: 156 358 228 251 91 0 183 0
Fore
271 486 m 1
 258 414 l 1
 313 470 363 495 417 495 c 0
 457 495 481 477 481 446 c 0
 481 414 454 392 416 392 c 0
 400 392 391 395 372 405 c 0
 351 417 345 419 335 419 c 0
 308 419 282 400 263 368 c 0
 250 345 238 305 228 251 c 1
 183 0 l 1
 91 0 l 1
 156 358 l 1
 157 367 158 373 158 383 c 0
 158 412 142 426 100 433 c 2
 88 435 l 1
 93 464 l 1
 161 470 176 473 233 486 c 1
 271 486 l 1
EndSplineSet
KernsSLIF: 122 -1 0 0 121 15 0 0 120 -6 0 0 119 13 0 0 118 13 0 0 117 13 0 0 116 13 0 0 59 -18 0 0 115 -19 0 0 114 13 0 0 39 -1 0 0 113 -21 0 0 46 -97 0 0 112 7 0 0 249 -22 0 0 353 -21 0 0 250 -19 0 0 351 -21 0 0 354 -21 0 0 352 -21 0 0 111 -21 0 0 110 13 0 0 109 13 0 0 108 -22 0 0 107 -26 0 0 106 11 0 0 105 13 0 0 45 -71 0 0 104 -26 0 0 103 -16 0 0 102 -6 0 0 336 -33 0 0 337 -33 0 0 335 -33 0 0 101 -33 0 0 100 -24 0 0 44 -99 0 0 58 -18 0 0 332 -25 0 0 99 -25 0 0 328 -27 0 0 324 -27 0 0 241 -28 0 0 322 -27 0 0 325 -27 0 0 323 -27 0 0 97 -27 0 0
EndChar
StartChar: s
Encoding: 115 115 84
Width: 540
Flags: W
HStem: -9 37<272 306> 458 37<320 346>
VStem: 131 102<346 379> 419 102<123 160>
Fore
344 495 m 0
 448 495 547 451 547 405 c 0
 547 381 528 363 501 363 c 0
 474 363 466 369 436 414 c 0
 418 440 377 458 334 458 c 0
 274 458 233 426 233 379 c 0
 233 356 244 336 266 323 c 0
 281 314 298 308 364 287 c 0
 427 268 458 255 481 238 c 0
 506 221 521 191 521 160 c 0
 521 64 419 -9 283 -9 c 0
 172 -9 65 43 65 97 c 0
 65 123 84 142 108 142 c 0
 138 142 154 129 183 84 c 0
 209 44 241 28 292 28 c 0
 364 28 419 69 419 123 c 0
 419 160 396 180 331 201 c 0
 255 225 219 238 190 253 c 0
 154 273 131 309 131 346 c 0
 131 432 221 495 344 495 c 0
EndSplineSet
KernsSLIF: 116 -34 0 0 39 -31 0 0
EndChar
StartChar: t
Encoding: 116 116 85
Width: 340
Flags: W
HStem: -9 42<226 256> 454 32<268 405>
VStem: 105 94<73 94>
DStem: 170 454 262 454 115 153 210 170
Fore
300 665 m 1
 268 486 l 1
 411 486 l 1
 405 454 l 1
 262 454 l 1
 210 170 l 2
 201 121 199 109 199 92 c 0
 199 57 222 33 256 33 c 0
 289 33 319 46 358 80 c 1
 380 55 l 1
 334 12 283 -9 226 -9 c 0
 150 -9 105 21 105 73 c 0
 105 93 108 113 115 153 c 1
 170 454 l 1
 88 454 l 1
 94 486 l 1
 196 493 237 536 264 665 c 1
 300 665 l 1
EndSplineSet
KernsSLIF: 59 -10 0 0 39 -18 0 0 351 -16 0 0 352 -16 0 0 111 -16 0 0 104 -12 0 0 335 -17 0 0 101 -17 0 0 58 -8 0 0 328 -14 0 0 241 -2 0 0 322 -14 0 0 323 -14 0 0 97 -14 0 0 83 1 0 0
EndChar
StartChar: u
Encoding: 117 117 86
Width: 620
Flags: W
HStem: -9 52<223 265 545 591> 466 20G<233 271 515 607>
VStem: 111 93<84 105>
DStem: 156 358 271 486 117 144 209 143 515 486 607 486 449 123 548 159
Fore
607 486 m 1
 548 159 l 1
 540 111 540 111 540 103 c 0
 540 69 562 43 591 43 c 0
 614 43 643 61 663 87 c 1
 686 66 l 1
 644 17 595 -9 545 -9 c 0
 488 -9 450 25 442 83 c 1
 424 66 398 47 362 28 c 0
 313 2 271 -9 223 -9 c 0
 152 -9 111 26 111 84 c 0
 111 101 113 121 117 144 c 2
 156 358 l 1
 158 367 158 372 158 382 c 0
 158 412 142 426 100 433 c 2
 88 435 l 1
 93 464 l 1
 161 470 176 473 233 486 c 1
 271 486 l 1
 209 143 l 2
 205 121 204 113 204 103 c 0
 204 66 227 43 265 43 c 0
 319 43 368 64 449 123 c 1
 515 486 l 1
 607 486 l 1
EndSplineSet
KernsSLIF: 39 -30 0 0
EndChar
StartChar: v
Encoding: 118 118 87
Width: 540
Flags: W
HStem: -9 52<245 281> 466 20G<233 271>
VStem: 112 93<88 107> 422 140<359 430>
DStem: 156 358 271 486 118 150 208 137
Fore
88 435 m 1
 93 464 l 1
 161 470 176 473 233 486 c 1
 271 486 l 1
 208 137 l 2
 206 126 205 117 205 105 c 0
 205 65 232 43 281 43 c 0
 396 43 500 154 500 277 c 0
 500 326 486 356 447 387 c 0
 429 401 422 414 422 430 c 0
 422 467 451 499 483 499 c 0
 532 499 562 445 562 359 c 0
 562 149 425 -9 245 -9 c 0
 161 -9 112 27 112 88 c 0
 112 107 114 128 118 150 c 2
 156 358 l 1
 157 367 158 373 158 383 c 0
 158 412 142 426 100 433 c 2
 88 435 l 1
EndSplineSet
KernsSLIF: 59 -39 0 0 115 -25 0 0 46 -39 0 0 249 -7 0 0 353 -8 0 0 351 -8 0 0 352 -8 0 0 111 -8 0 0 108 -20 0 0 45 17 0 0 103 -6 0 0 336 -13 0 0 337 -13 0 0 335 -13 0 0 101 -13 0 0 44 -42 0 0 58 -37 0 0 99 -9 0 0 327 -11 0 0 328 -11 0 0 324 -11 0 0 241 -30 0 0 322 -11 0 0 325 -11 0 0 323 -11 0 0 97 -11 0 0
EndChar
StartChar: w
Encoding: 119 119 88
Width: 880
Flags: W
HStem: -9 47<237 282> 466 20G<233 271 517 609>
VStem: 110 95<86 104> 751 142<374 433>
DStem: 156 358 271 486 114 127 212 163 517 486 609 486 450 115 555 190
Fore
609 486 m 1
 555 190 l 1
 548 150 545 127 545 112 c 0
 545 66 576 38 628 38 c 0
 729 38 829 156 829 277 c 0
 829 324 815 357 784 381 c 0
 758 401 751 412 751 433 c 0
 751 468 780 499 812 499 c 0
 861 499 893 450 893 374 c 0
 893 264 852 150 790 84 c 0
 733 23 659 -9 578 -9 c 0
 503 -9 456 22 452 75 c 1
 390 23 308 -9 237 -9 c 0
 158 -9 110 27 110 86 c 0
 110 99 111 113 114 127 c 1
 156 358 l 1
 157 367 158 373 158 383 c 0
 158 412 142 426 100 433 c 2
 88 435 l 1
 93 464 l 1
 161 470 176 473 233 486 c 1
 271 486 l 1
 212 163 l 1
 208 138 205 114 205 102 c 0
 205 62 234 38 282 38 c 0
 327 38 394 69 450 115 c 1
 517 486 l 1
 609 486 l 1
EndSplineSet
KernsSLIF: 59 -45 0 0 115 -30 0 0 46 -45 0 0 249 -13 0 0 353 -14 0 0 351 -14 0 0 352 -14 0 0 111 -14 0 0 108 -25 0 0 45 11 0 0 103 -11 0 0 336 -18 0 0 337 -18 0 0 335 -18 0 0 101 -18 0 0 44 -48 0 0 58 -42 0 0 99 -15 0 0 327 -17 0 0 328 -17 0 0 324 -17 0 0 241 -36 0 0 322 -17 0 0 325 -17 0 0 323 -17 0 0 97 -17 0 0
EndChar
StartChar: x
Encoding: 120 120 89
Width: 540
Flags: W
HStem: -13 100<56 95> -9 60<450 503> 398 101<558 585>
Fore
560 75 m 1x60
 582 55 l 1
 543 16 492 -9 450 -9 c 0x60
 414 -9 382 8 359 39 c 0
 343 59 337 72 303 156 c 1
 280 211 l 1
 189 51 124 -13 56 -13 c 0
 28 -13 9 8 9 40 c 0
 9 69 30 90 59 90 c 0
 61 90 70 89 82 88 c 0
 87 87 91 87 95 87 c 0xa0
 151 87 200 135 264 253 c 1
 239 318 l 2
 205 408 194 420 127 435 c 1
 132 464 l 1
 185 470 212 474 256 486 c 1
 282 486 l 1
 352 279 l 1
 445 425 523 499 585 499 c 0
 608 499 626 479 626 454 c 0
 626 423 596 398 558 398 c 2
 549 398 l 2
 543 399 538 399 535 399 c 0
 490 399 431 343 370 242 c 1
 413 133 421 116 438 92 c 0
 459 64 480 51 503 51 c 0
 521 51 534 57 560 75 c 1x60
EndSplineSet
KernsSLIF: 113 -10 0 0 111 -14 0 0 335 -15 0 0 101 -15 0 0 99 -15 0 0 97 -12 0 0
EndChar
StartChar: y
Encoding: 121 121 90
Width: 600
Flags: W
HStem: -221 37<229 252> -9 47<232 265> 466 20G<229 267 517 609>
VStem: 109 91<89 104>
DStem: 152 358 267 486 114 150 206 150 517 486 609 486 451 123 520 -3
Fore
609 486 m 1
 520 -3 l 2
 507 -75 484 -116 433 -154 c 0
 376 -197 301 -221 229 -221 c 0
 137 -221 60 -186 60 -145 c 0
 60 -120 82 -103 113 -103 c 0
 137 -103 151 -112 165 -136 c 0
 185 -169 211 -184 250 -184 c 0
 337 -184 409 -110 429 -1 c 2
 444 82 l 1
 381 26 301 -9 232 -9 c 0
 155 -9 109 28 109 89 c 0
 109 104 112 138 114 150 c 1
 152 358 l 1
 153 367 154 373 154 383 c 0
 154 412 139 426 96 433 c 2
 84 435 l 1
 89 464 l 1
 156 470 173 473 229 486 c 1
 267 486 l 1
 206 150 l 2
 202 129 200 111 200 102 c 0
 200 64 227 38 265 38 c 0
 322 38 391 69 451 123 c 1
 517 486 l 1
 609 486 l 1
EndSplineSet
KernsSLIF: 59 -45 0 0 115 -32 0 0 46 -29 0 0 249 -18 0 0 353 -19 0 0 351 -19 0 0 352 -19 0 0 111 -19 0 0 108 -28 0 0 45 -3 0 0 103 -15 0 0 336 -23 0 0 337 -23 0 0 335 -23 0 0 101 -23 0 0 44 -32 0 0 58 -42 0 0 99 -20 0 0 327 -22 0 0 328 -22 0 0 324 -22 0 0 241 -37 0 0 322 -22 0 0 325 -22 0 0 323 -22 0 0 97 -22 0 0
EndChar
StartChar: z
Encoding: 122 122 91
Width: 520
Flags: W
HStem: -2 41<173 199> 457 38<288 329>
DStem: 433 447 561 447 38 27 173 39
Fore
561 447 m 1
 173 39 l 1
 188 39 191 39 213 37 c 0
 250 33 275 31 298 31 c 0
 370 31 411 50 431 93 c 0
 450 132 462 142 492 142 c 0
 516 142 534 122 534 95 c 0
 534 35 466 -9 373 -9 c 0
 355 -9 320 -8 285 -6 c 0
 249 -4 212 -2 176 -2 c 2
 58 0 l 1
 38 27 l 1
 433 447 l 1
 407 453 367 457 329 457 c 0
 292 457 260 448 242 433 c 0
 233 425 228 419 213 389 c 0
 199 361 179 346 155 346 c 0
 128 346 110 367 110 398 c 0
 110 454 186 495 288 495 c 0
 307 495 307 495 403 488 c 0
 417 487 430 486 444 486 c 2
 547 486 l 1
 561 447 l 1
EndSplineSet
EndChar
StartChar: braceleft
Encoding: 123 123 92
Width: 360
Flags: W
HStem: 719 31<412 435>
VStem: 144 70<-61 -42> 178 70<196 214>
DStem: 173 150 241 132 150 20 220 9 248 585 318 585 225 455 295 455
Fore
289 -125 m 1xc0
 283 -155 l 1
 232 -155 202 -146 181 -127 c 0
 158 -107 144 -75 144 -42 c 0xc0
 144 -30 147 6 150 20 c 1
 173 150 l 2
 176 168 178 189 178 202 c 0
 178 240 162 265 125 284 c 1
 130 312 l 1
 190 333 212 367 225 455 c 1
 248 585 l 1
 257 638 258 639 271 663 c 0
 304 725 351 750 435 750 c 2
 439 750 l 1
 434 719 l 1
 359 720 335 691 318 585 c 1
 295 455 l 1
 281 364 256 321 201 298 c 1
 235 276 248 251 248 204 c 0xa0
 248 183 246 163 241 132 c 1
 220 9 l 1
 218 -7 214 -48 214 -61 c 0
 214 -103 234 -120 289 -125 c 1xc0
EndSplineSet
EndChar
StartChar: bar
Encoding: 124 124 93
Width: 600
Flags: W
HStem: 0 21G<294 372>
VStem: 294 78<0 722>
Fore
372 722 m 1
 372 0 l 1
 294 0 l 1
 294 722 l 1
 372 722 l 1
EndSplineSet
EndChar
StartChar: braceright
Encoding: 125 125 94
Width: 380
Flags: W
HStem: -155 30<20 38>
VStem: 206 70<388 406> 240 70<637 656>
DStem: 159 140 229 140 136 10 206 10 234 586 304 575 213 462 281 445
Fore
165 720 m 1xa0
 171 750 l 1
 182 750 l 2
 261 750 310 707 310 637 c 0xa0
 310 624 307 589 304 575 c 1
 281 445 l 2
 278 427 276 406 276 393 c 0
 276 354 292 330 330 311 c 1
 325 283 l 1
 265 262 242 228 229 140 c 1
 206 10 l 1
 195 -92 129 -155 36 -155 c 2
 19 -155 l 1
 15 -155 l 1
 20 -125 l 1
 95 -125 119 -97 136 10 c 1
 159 140 l 1
 173 230 198 273 253 297 c 1
 219 318 206 344 206 390 c 0xc0
 206 412 208 432 213 462 c 2
 234 586 l 1
 236 602 240 643 240 656 c 0
 240 698 220 715 165 720 c 1xa0
EndSplineSet
EndChar
StartChar: asciitilde
Encoding: 126 126 95
Width: 600
Flags: W
Fore
552 332 m 1
 595 285 l 1
 558 214 507 173 455 173 c 0
 432 173 407 180 362 199 c 2
 308 221 l 2
 265 239 254 242 235 242 c 0
 209 242 185 229 168 207 c 0
 158 192 152 184 133 152 c 1
 91 199 l 1
 142 288 179 319 235 319 c 0
 256 319 282 313 311 300 c 2
 376 273 l 2
 419 255 437 250 456 250 c 0
 489 250 517 274 552 332 c 1
EndSplineSet
EndChar
StartChar: exclamdown
Encoding: 161 161 96
Width: 320
Flags: W
HStem: 360 134<224 249>
Fore
203 302 m 1
 240 302 l 1
 224 212 219 140 219 22 c 0
 218 -74 214 -117 200 -156 c 0
 187 -190 160 -212 128 -212 c 0
 92 -212 73 -190 73 -150 c 0
 73 -110 82 -78 134 58 c 0
 175 169 188 216 203 302 c 1
249 494 m 0
 279 494 301 471 301 441 c 0
 301 398 265 360 224 360 c 0
 191 360 167 384 167 418 c 0
 167 457 206 494 249 494 c 0
EndSplineSet
EndChar
StartChar: cent
Encoding: 162 162 97
Width: 620
Flags: W
VStem: 148 97<287 308> 485 111<450 478> 499 97<478 496>
DStem: 319 113 361 113 293 -29 335 -29 399 552 441 552 329 166 369 158 428 715 470 715 407 596 449 596
Fore
441 552 m 1xa0
 369 158 l 1
 379 158 l 2
 426 158 478 189 526 245 c 1
 560 225 l 1
 510 156 447 121 361 113 c 1
 335 -29 l 1
 293 -29 l 1
 319 113 l 1
 265 123 233 135 207 157 c 0
 168 190 148 241 148 302 c 0
 148 392 190 482 257 538 c 0
 298 572 344 590 407 596 c 1
 428 715 l 1
 470 715 l 1
 449 596 l 1
 537 587 596 539 596 478 c 0
 596 439 565 406 529 406 c 0
 504 406 485 425 485 450 c 0xc0
 485 459 485 460 494 478 c 0
 497 484 499 491 499 496 c 0
 499 525 478 545 441 552 c 1xa0
329 166 m 1
 399 552 l 1
 358 549 329 530 300 487 c 0
 267 438 245 359 245 289 c 0
 245 223 272 183 329 166 c 1
EndSplineSet
EndChar
StartChar: sterling
Encoding: 163 163 98
Width: 620
Flags: W
HStem: -13 47<102 125> -13 88<475 495> 130 47<128 149> 187 37<529 547> 363 44<129 248 350 504> 652 42<493 522>
VStem: 4 57<65 78> 243 105<434 469> 264 102<208 255> 576 62<135 152> 620 82<561 586>
Fore
350 407 m 1xbf20
 520 407 l 1
 504 363 l 1
 354 363 l 1
 366 273 366 273 366 255 c 0
 366 207 354 167 327 127 c 1
 415 89 460 75 495 75 c 0
 539 75 576 107 576 144 c 0
 576 169 557 187 530 187 c 0
 516 187 512 186 482 174 c 0
 480 174 475 172 469 169 c 1
 459 197 l 1
 492 216 517 224 547 224 c 0
 602 224 638 190 638 137 c 0
 638 60 558 -13 475 -13 c 0x7ec0
 444 -13 416 -3 374 23 c 0
 371 25 326 54 290 76 c 1
 228 14 171 -13 102 -13 c 0
 43 -13 4 18 4 65 c 0
 4 125 68 177 144 177 c 0
 173 177 201 171 258 152 c 1
 263 176 264 189 264 208 c 0xbec0
 264 239 262 258 253 329 c 0
 252 334 250 348 248 363 c 1
 109 363 l 1
 130 407 l 1
 246 407 l 1
 244 428 243 438 243 449 c 0
 243 585 364 694 515 694 c 0
 625 694 702 639 702 561 c 0
 702 505 671 467 626 467 c 0
 600 467 583 483 583 506 c 0
 583 521 587 528 605 552 c 0
 616 565 620 575 620 586 c 0
 620 622 570 652 510 652 c 0
 453 652 406 626 376 576 c 0
 359 549 348 500 348 451 c 0
 348 440 349 426 350 407 c 1xbf20
242 101 m 1
 206 121 173 130 134 130 c 0
 95 130 61 104 61 74 c 0
 61 50 85 34 123 34 c 0xbe
 164 34 207 58 242 101 c 1
EndSplineSet
EndChar
StartChar: fraction
Encoding: 164 8260 99
Width: 20
Flags: W
HStem: 0 21G<-228 -172> 661 20G<267 323>
DStem: 267 681 323 681 -228 0 -172 0
Fore
323 681 m 1
 -172 0 l 1
 -228 0 l 1
 267 681 l 1
 323 681 l 1
EndSplineSet
EndChar
StartChar: yen
Encoding: 165 165 100
Width: 620
Flags: W
HStem: 0 21G<148 431> 257 44<78 293 394 609> 406 44<105 260 500 636> 661 20G<123 380 489 735>
DStem: 218 548 313 563 249 450 376 339 260 406 313 563 291 301 376 339 293 257 385 257 269 122 360 120 507 539 548 517 376 339 500 450 507 539 468 406 376 339 394 301
Fore
376 339 m 1
 507 539 l 1
 541 589 544 594 544 614 c 0
 544 632 526 647 500 650 c 2
 484 652 l 1
 489 681 l 1
 735 681 l 1
 730 652 l 1
 710 647 l 2
 637 626 625 617 548 517 c 1
 500 450 l 1
 644 450 l 1
 636 406 l 1
 468 406 l 1
 394 301 l 1
 617 301 l 1
 609 257 l 1
 385 257 l 1
 360 120 l 2
 358 108 357 98 357 91 c 0
 357 72 367 52 382 41 c 0
 391 35 395 34 421 31 c 2
 438 29 l 1
 431 0 l 1
 148 0 l 1
 154 29 l 1
 170 31 l 2
 235 37 258 58 269 122 c 1
 293 257 l 1
 71 257 l 1
 79 301 l 1
 291 301 l 1
 260 406 l 1
 98 406 l 1
 106 450 l 1
 249 450 l 1
 218 548 l 1
 199 613 184 631 137 647 c 1
 118 652 l 1
 123 681 l 1
 380 681 l 1
 375 652 l 1
 325 646 303 633 303 608 c 0
 303 597 303 595 313 563 c 1
 376 339 l 1
EndSplineSet
EndChar
StartChar: florin
Encoding: 166 402 101
Width: 620
Flags: W
HStem: -206 35<114 155> 454 32<265 350 448 543> 695 33<549 586>
DStem: 350 454 442 454 283 84 372 69
Fore
448 486 m 1
 549 486 l 1
 543 454 l 1
 442 454 l 1
 372 69 l 1
 351 -45 339 -81 304 -125 c 0
 264 -176 194 -206 114 -206 c 0
 35 -206 -26 -174 -26 -133 c 0
 -26 -109 -6 -91 20 -91 c 0
 46 -91 59 -99 90 -135 c 0
 111 -160 132 -171 155 -171 c 0
 179 -171 205 -159 223 -138 c 0
 247 -112 257 -74 283 84 c 1
 350 454 l 1
 260 454 l 1
 266 486 l 1
 354 486 l 1
 365 554 375 588 393 620 c 0
 431 687 504 728 586 728 c 0
 647 728 692 703 692 668 c 0
 692 645 671 627 646 627 c 0
 625 627 609 638 596 661 c 0
 580 688 571 695 549 695 c 0
 526 695 506 685 493 667 c 0
 479 647 474 630 465 579 c 1
 448 486 l 1
EndSplineSet
EndChar
StartChar: section
Encoding: 167 167 102
Width: 620
Flags: W
HStem: -181 33<271 295> 491 21G<571 599> 661 33<405 439>
VStem: 38 116<-46 -22> 108 70<237 284> 161 93<514 546> 474 96<-22 16> 534 104<539 553> 535 73<244 281>
Fore
229 404 m 1xea
 182 433 161 466 161 514 c 0
 161 616 273 694 420 694 c 0
 545 694 638 634 638 553 c 0
 638 518 614 491 584 491 c 0
 558 491 534 514 534 539 c 0xe5
 534 547 535 557 538 567 c 0
 541 578 542 589 542 596 c 0
 542 633 489 661 422 661 c 0
 330 661 254 609 254 546 c 0
 254 504 279 483 356 461 c 0
 431 439 492 419 520 406 c 0
 580 378 608 338 608 281 c 0xe480
 608 222 581 185 495 128 c 1
 523 113 535 104 546 88 c 0
 561 66 570 40 570 16 c 0
 570 -29 543 -76 496 -113 c 0
 438 -159 365 -181 273 -181 c 0
 135 -181 38 -125 38 -46 c 0
 38 -5 66 28 101 28 c 0
 131 28 154 6 154 -22 c 0
 154 -32 152 -41 148 -50 c 0
 139 -70 134 -85 134 -91 c 0
 134 -100 146 -114 161 -123 c 0xf6
 183 -136 242 -148 286 -148 c 0
 391 -148 474 -92 474 -22 c 0
 474 19 448 41 380 59 c 0
 327 72 245 98 209 112 c 0
 143 137 108 180 108 237 c 0
 108 274 126 316 153 343 c 0
 169 359 177 365 229 404 c 1xea
257 392 m 1
 205 357 178 320 178 284 c 0
 178 245 199 223 251 205 c 0
 279 195 324 182 392 164 c 0
 432 153 444 149 468 139 c 1
 517 180 535 209 535 244 c 0xe880
 535 270 520 295 494 312 c 0
 478 323 452 332 328 368 c 0
 294 378 281 383 257 392 c 1
EndSplineSet
EndChar
StartChar: currency
Encoding: 168 164 103
Width: 620
Flags: W
HStem: 102 83<353 359> 516 83<339 373>
VStem: 105 82<340 358> 519 82<340 358>
DStem: 100 550 151 602 154 496 205 548 154 205 204 154 101 152 151 101 502 154 552 205 555 101 605 152 553 602 603 550 500 549 550 498
Fore
101 152 m 1
 154 205 l 1
 118 256 105 294 105 350 c 0
 105 409 118 449 154 496 c 1
 100 550 l 1
 151 602 l 1
 205 548 l 1
 252 583 299 599 354 599 c 0
 408 599 451 584 500 549 c 1
 553 602 l 1
 603 550 l 1
 550 498 l 1
 587 450 601 408 601 350 c 0
 601 293 587 252 552 205 c 1
 605 152 l 1
 555 101 l 1
 502 154 l 1
 453 117 410 102 353 102 c 0
 296 102 253 117 204 154 c 1
 151 101 l 1
 101 152 l 1
356 516 m 0
 262 516 187 443 187 352 c 0
 187 259 261 185 353 185 c 0
 444 185 519 260 519 351 c 0
 519 440 444 516 356 516 c 0
EndSplineSet
EndChar
StartChar: quotesingle
Encoding: 169 39 104
Width: 200
Flags: W
HStem: 674 20G<191.5 217.5>
Fore
134 462 m 1
 99 462 l 1
 156 648 l 2
 167 684 178 694 205 694 c 0
 230 694 247 681 247 662 c 0
 247 651 243 642 229 619 c 2
 134 462 l 1
EndSplineSet
EndChar
StartChar: quotedblleft
Encoding: 170 8220 105
Width: 440
Flags: W
Fore
321 694 m 1
 330 676 l 1
 280 649 251 615 238 570 c 1
 251 582 264 587 278 587 c 0
 302 587 320 567 320 540 c 0
 320 499 286 466 245 466 c 0
 214 466 191 494 191 530 c 0
 191 596 244 664 321 694 c 1
484 694 m 1
 493 676 l 1
 443 649 414 615 401 570 c 1
 414 582 427 587 441 587 c 0
 465 587 483 567 483 540 c 0
 483 499 449 466 408 466 c 0
 377 466 354 494 354 530 c 0
 354 596 407 664 484 694 c 1
EndSplineSet
KernsSLIF: 89 6 1 0 87 14 1 0 86 11 1 0 84 24 1 0 262 -84 1 0 256 -84 1 0 257 -84 1 0 225 -204 1 0 65 -83 1 0
EndChar
StartChar: guillemotleft
Encoding: 171 171 106
Width: 300
Flags: W
Fore
180 268 m 1
 293 406 l 1
 313 391 l 1
 241 268 l 1
 262 113 l 1
 238 105 l 1
 180 268 l 1
70 268 m 1
 182 404 l 1
 206 390 l 1
 132 268 l 1
 155 108 l 1
 135 99 l 1
 70 268 l 1
EndSplineSet
EndChar
StartChar: guilsinglleft
Encoding: 172 8249 107
Width: 180
Flags: W
Fore
75 263 m 1
 188 400 l 1
 208 386 l 1
 136 263 l 1
 157 108 l 1
 133 99 l 1
 75 263 l 1
EndSplineSet
EndChar
StartChar: guilsinglright
Encoding: 173 8250 108
Width: 180
Flags: W
Fore
141 403 m 1
 203 265 l 1
 96 97 l 1
 70 105 l 1
 141 265 l 1
 118 389 l 1
 141 403 l 1
EndSplineSet
KernsSLIF: 89 -83 1 0 87 -46 1 0 86 -56 1 0 84 -81 1 0 262 -25 1 0 256 -25 1 0 257 -25 1 0 225 -72 1 0 65 -25 1 0
EndChar
StartChar: fi
Encoding: 174 64257 109
Width: 640
Flags: W
HStem: -205 37<-14 24> -9 57<563 612> 454 32<137 220 317 462> 695 33<437 468>
VStem: 468 93<87 101>
DStem: 220 454 312 454 142 25 233 21 509 336 628 486 471 128 566 145
Fore
317 486 m 1
 628 486 l 1
 566 145 l 1
 564 131 561 108 561 99 c 0
 561 71 584 48 612 48 c 0
 636 48 657 58 690 85 c 1
 709 65 l 1
 661 15 613 -9 563 -9 c 0
 507 -9 468 30 468 87 c 0
 468 99 470 120 471 128 c 1
 509 336 l 1
 512 355 516 389 516 402 c 0
 516 441 496 454 436 454 c 2
 312 454 l 1
 233 21 l 1
 221 -43 200 -95 172 -128 c 0
 131 -175 59 -205 -14 -205 c 0
 -88 -205 -159 -168 -159 -130 c 0
 -159 -109 -136 -91 -110 -91 c 0
 -86 -91 -70 -101 -42 -132 c 0
 -18 -159 -1 -168 24 -168 c 0
 66 -168 98 -139 116 -87 c 0
 123 -66 134 -20 142 25 c 2
 220 454 l 1
 132 454 l 1
 138 486 l 1
 225 486 l 1
 241 575 246 592 266 625 c 0
 305 690 378 728 460 728 c 0
 558 728 646 674 646 614 c 0
 646 590 627 572 600 572 c 0
 584 572 568 580 559 593 c 0
 555 599 555 599 546 629 c 0
 532 673 500 695 450 695 c 0
 413 695 385 685 367 665 c 0
 349 645 343 629 332 565 c 1
 317 486 l 1
EndSplineSet
Ligature: 0 0 'liga' f i
EndChar
StartChar: fl
Encoding: 175 64258 110
Width: 660
Flags: W
HStem: -205 37<-16 21> -9 60<563 611> 454 32<136 220 317 414> 695 33<455 493>
VStem: 468 93<89 103>
DStem: 220 454 312 454 153 88 243 76 555 589 669 712 473 138 568 154
Fore
317 486 m 1
 420 486 l 1
 414 454 l 1
 312 454 l 1
 243 76 l 1
 228 -8 225 -18 215 -47 c 0
 194 -107 165 -145 122 -169 c 0
 82 -192 32 -205 -16 -205 c 0
 -95 -205 -159 -172 -159 -130 c 0
 -159 -107 -141 -92 -112 -92 c 0
 -88 -92 -72 -101 -46 -131 c 0
 -21 -159 -5 -168 21 -168 c 0
 66 -168 101 -136 120 -76 c 0
 126 -58 126 -58 153 88 c 1
 220 454 l 1
 131 454 l 1
 137 486 l 1
 225 486 l 1
 237 564 253 609 282 645 c 0
 326 698 401 728 493 728 c 0
 536 728 582 724 669 712 c 1
 568 154 l 2
 562 121 561 114 561 101 c 0
 561 74 584 51 611 51 c 0
 636 51 665 64 690 86 c 1
 713 66 l 1
 666 17 616 -9 563 -9 c 0
 510 -9 468 34 468 89 c 0
 468 102 470 120 473 138 c 1
 555 589 l 1
 557 602 559 618 559 626 c 0
 559 645 554 662 547 670 c 0
 532 685 495 695 455 695 c 0
 387 695 349 659 335 584 c 2
 317 486 l 1
EndSplineSet
Ligature: 0 0 'liga' f l
EndChar
StartChar: endash
Encoding: 177 8211 111
Width: 500
Flags: W
HStem: 232 53<58 533>
Fore
59 285 m 1
 561 285 l 1
 533 232 l 1
 33 232 l 1
 59 285 l 1
EndSplineSet
EndChar
StartChar: dagger
Encoding: 178 8224 112
Width: 620
Flags: W
HStem: 378 94<227 243 519 537> 674 20G<404.5 451.5>
VStem: 348 149<625 647>
DStem: 285 23 323 24 251 -166 289 -166
Fore
289 -166 m 1
 251 -166 l 1
 285 23 l 1
 296 79 l 1
 306 124 309 152 309 182 c 0
 309 229 304 260 289 307 c 1
 328 347 356 384 367 410 c 1
 359 407 348 405 342 403 c 0
 326 399 310 395 294 390 c 0
 259 381 244 378 227 378 c 0
 205 378 192 391 192 412 c 0
 192 446 214 472 243 472 c 0
 265 472 282 468 357 446 c 0
 359 445 365 444 373 441 c 1
 373 504 369 532 352 595 c 0
 349 604 348 615 348 625 c 0
 348 669 378 694 431 694 c 0
 472 694 497 676 497 647 c 0
 497 628 491 613 465 573 c 0
 439 532 419 493 398 441 c 1
 429 449 443 452 476 460 c 0
 514 470 524 472 537 472 c 0
 557 472 570 460 570 441 c 0
 570 406 547 378 519 378 c 0
 507 378 498 380 457 392 c 0
 427 400 424 401 392 410 c 1
 397 366 408 339 434 307 c 1
 375 230 345 153 323 24 c 1
 289 -166 l 1
EndSplineSet
EndChar
StartChar: daggerdbl
Encoding: 179 8225 113
Width: 620
Flags: W
HStem: 117 93<177 196 469 487> 363 93<224 240 515 531> 674 20G<406 453.5>
VStem: 215 150<-89 -76> 346 153<625 642>
Fore
301 184 m 2xf0
 326 177 l 1
 324 204 310 247 287 293 c 1
 328 336 353 369 366 396 c 1
 351 393 341 390 338 389 c 2
 291 376 l 2
 257 366 241 363 224 363 c 0
 202 363 189 375 189 396 c 0
 189 431 210 456 240 456 c 0
 263 456 279 452 352 429 c 2
 370 423 l 1
 370 446 l 2
 370 484 367 507 358 551 c 0
 348 600 346 610 346 625 c 0
 346 668 379 694 433 694 c 0
 474 694 499 675 499 642 c 0xe8
 499 620 496 613 442 523 c 0
 421 488 406 456 393 423 c 1
 423 431 426 432 473 444 c 0
 507 454 519 456 531 456 c 0
 554 456 566 445 566 426 c 0
 566 390 544 362 515 362 c 0
 503 362 493 364 454 376 c 0
 433 383 426 385 388 396 c 1
 389 372 406 331 429 293 c 1
 376 230 364 212 348 177 c 1
 392 189 403 191 422 197 c 0
 465 209 474 211 487 211 c 0
 507 211 520 197 520 176 c 0
 520 140 500 117 469 117 c 0
 458 117 446 120 415 129 c 0
 392 136 375 141 368 143 c 0
 365 144 355 147 344 150 c 1
 343 139 343 131 343 125 c 0
 343 87 350 18 358 -20 c 0
 362 -43 365 -65 365 -78 c 0
 365 -112 330 -135 280 -135 c 0
 242 -135 215 -116 215 -89 c 0
 215 -70 216 -67 286 73 c 0
 298 98 306 116 320 150 c 1
 310 147 291 142 264 134 c 0
 223 122 195 117 177 117 c 0
 156 117 144 129 144 152 c 0
 144 186 165 210 196 210 c 0
 218 210 219 210 301 184 c 2xf0
EndSplineSet
EndChar
StartChar: periodcentered
Encoding: 180 183 114
Width: 300
Flags: W
Fore
216 364 m 0
 249 364 272 340 272 306 c 0
 272 266 233 229 191 229 c 0
 159 229 137 251 137 283 c 0
 137 326 174 364 216 364 c 0
EndSplineSet
EndChar
StartChar: paragraph
Encoding: 182 182 115
Width: 620
Flags: W
HStem: 0 46<345 602> 635 40<420 556>
DStem: 319 298 452 635 290 137 345 46 556 635 609 542 448 46 536 137
Fore
602 0 m 1
 163 0 l 1
 169 32 l 1
 187 34 l 2
 262 40 272 51 290 137 c 1
 319 298 l 1
 265 298 233 303 200 315 c 0
 147 335 112 391 112 455 c 0
 112 532 161 611 230 645 c 0
 281 669 317 675 420 675 c 2
 718 675 l 1
 712 645 l 1
 700 643 l 2
 630 634 623 626 609 542 c 1
 536 137 l 2
 530 104 530 100 530 86 c 0
 530 53 546 39 590 34 c 2
 608 32 l 1
 602 0 l 1
556 635 m 1
 452 635 l 1
 345 46 l 1
 448 46 l 1
 556 635 l 1
EndSplineSet
EndChar
StartChar: bullet
Encoding: 183 8226 116
Width: 460
Flags: W
Fore
272 557 m 0
 367 557 444 480 444 386 c 0
 444 289 367 213 270 213 c 0
 177 213 100 291 100 385 c 0
 100 480 177 557 272 557 c 0
EndSplineSet
EndChar
StartChar: quotesinglbase
Encoding: 184 8218 117
Width: 320
Flags: W
HStem: -9 21G<126.5 146>
Fore
96 -115 m 1
 87 -97 l 1
 138 -69 167 -35 179 8 c 1
 166 -4 154 -9 138 -9 c 0
 115 -9 98 12 98 39 c 0
 98 79 132 112 173 112 c 0
 203 112 226 85 226 48 c 0
 226 -18 173 -85 96 -115 c 1
EndSplineSet
EndChar
StartChar: quotedblbase
Encoding: 185 8222 118
Width: 480
Flags: W
HStem: -9 21G<127 146 290 309>
Fore
96 -116 m 1
 87 -98 l 1
 137 -70 167 -36 179 8 c 1
 165 -4 153 -9 139 -9 c 0
 115 -9 98 12 98 39 c 0
 98 79 132 112 173 112 c 0
 204 112 227 85 227 48 c 0
 227 -18 173 -85 96 -116 c 1
259 -116 m 1
 250 -98 l 1
 300 -70 330 -36 342 8 c 1
 328 -4 316 -9 302 -9 c 0
 278 -9 261 12 261 39 c 0
 261 79 295 112 336 112 c 0
 367 112 390 85 390 48 c 0
 390 -18 336 -85 259 -116 c 1
EndSplineSet
KernsSLIF: 89 -103 1 0 87 -94 1 0 86 -108 1 0 84 -93 1 0 65 -10 1 0
EndChar
StartChar: quotedblright
Encoding: 186 8221 119
Width: 440
Flags: W
HStem: 674 20G<213.5 249.5 376.5 412.5>
Fore
157 466 m 1
 148 484 l 1
 198 512 228 546 240 590 c 1
 226 578 214 573 200 573 c 0
 176 573 159 594 159 621 c 0
 159 661 193 694 234 694 c 0
 265 694 288 667 288 630 c 0
 288 564 234 497 157 466 c 1
320 466 m 1
 311 484 l 1
 361 512 391 546 403 590 c 1
 389 578 377 573 363 573 c 0
 339 573 322 594 322 621 c 0
 322 661 356 694 397 694 c 0
 428 694 451 667 451 630 c 0
 451 564 397 497 320 466 c 1
EndSplineSet
KernsSLIF: 89 -13 1 0 87 -7 1 0 86 -10 1 0 262 -108 1 0 256 -108 1 0 257 -108 1 0 225 -231 1 0 65 -107 1 0
EndChar
StartChar: guillemotright
Encoding: 187 187 120
Width: 300
Flags: W
Fore
131 403 m 1
 193 265 l 1
 86 97 l 1
 60 105 l 1
 131 265 l 1
 108 389 l 1
 131 403 l 1
241 403 m 1
 303 265 l 1
 196 97 l 1
 170 105 l 1
 241 265 l 1
 218 389 l 1
 241 403 l 1
EndSplineSet
KernsSLIF: 89 -93 1 0 87 -56 1 0 86 -66 1 0 84 -91 1 0 262 -35 1 0 256 -35 1 0 257 -35 1 0 225 -82 1 0 65 -35 1 0
EndChar
StartChar: ellipsis
Encoding: 188 8230 121
Width: 1000
Flags: W
HStem: -13 21G<137 174 470 507 803 840>
VStem: 99 135<41 64> 432 135<41 64> 765 135<41 64>
CounterMasks: 1 00
Fore
177 122 m 0
 211 122 234 98 234 64 c 0
 234 24 195 -13 153 -13 c 0
 121 -13 99 9 99 41 c 0
 99 84 136 122 177 122 c 0
510 122 m 0
 544 122 567 98 567 64 c 0
 567 24 528 -13 486 -13 c 0
 454 -13 432 9 432 41 c 0
 432 84 469 122 510 122 c 0
843 122 m 0
 877 122 900 98 900 64 c 0
 900 24 861 -13 819 -13 c 0
 787 -13 765 9 765 41 c 0
 765 84 802 122 843 122 c 0
EndSplineSet
Ligature: 0 1 'liga' period period period
EndChar
StartChar: perthousand
Encoding: 189 8240 122
Width: 1180
Flags: W
HStem: -8 33<593 603 983 1001> 265 33<197 202> 383 33<663 674 1047 1065> 656 33<263 275>
VStem: 56 70<403 428> 340 70<522 551> 457 70<130 156> 741 70<249 278> 845 70<130 156> 1129 70<249 278>
DStem: 595 681 647 681 221 0 273 0
Fore
271 689 m 0
 356 689 410 625 410 524 c 0
 410 380 316 265 199 265 c 0
 112 265 56 329 56 426 c 0
 56 482 76 545 110 597 c 0
 149 657 205 689 271 689 c 0
266 656 m 0
 214 656 176 618 150 541 c 0
 135 494 126 445 126 403 c 0
 126 338 154 298 200 298 c 0
 248 298 288 331 311 389 c 0
 329 434 340 497 340 551 c 0
 340 619 313 656 266 656 c 0
647 681 m 1
 273 0 l 1
 221 0 l 1
 595 681 l 1
 647 681 l 1
672 416 m 0
 757 416 811 352 811 251 c 0
 811 107 717 -8 600 -8 c 0
 513 -8 457 56 457 154 c 0
 457 209 477 273 511 324 c 0
 550 384 606 416 672 416 c 0
667 383 m 0
 615 383 577 345 551 268 c 0
 536 220 527 172 527 130 c 0
 527 65 555 25 601 25 c 0
 649 25 689 58 712 116 c 0
 730 161 741 224 741 278 c 0
 741 345 714 383 667 383 c 0
1060 416 m 0
 1145 416 1199 352 1199 251 c 0
 1199 107 1105 -8 988 -8 c 0
 901 -8 845 56 845 154 c 0
 845 209 865 273 899 324 c 0
 938 384 994 416 1060 416 c 0
1055 383 m 0
 1003 383 965 345 939 268 c 0
 924 220 915 172 915 130 c 0
 915 65 943 25 989 25 c 0
 1037 25 1077 58 1100 116 c 0
 1118 161 1129 224 1129 278 c 0
 1129 345 1102 383 1055 383 c 0
EndSplineSet
EndChar
StartChar: questiondown
Encoding: 191 191 123
Width: 540
Flags: W
HStem: -212 37<238 275> 360 136<366 390>
VStem: 18 102<-73 -52> 309 136<418 442> 392 116<-47 -38>
Fore
337 304 m 1xe8
 382 304 l 1
 367 186 355 168 240 105 c 1
 186 72 173 62 153 33 c 0
 132 3 120 -34 120 -71 c 0
 120 -136 169 -175 250 -175 c 0
 337 -175 406 -137 406 -90 c 0
 406 -82 404 -75 394 -54 c 0
 393 -51 392 -48 392 -45 c 0
 392 -17 424 10 455 10 c 0
 487 10 508 -11 508 -40 c 0
 508 -130 384 -212 249 -212 c 0
 111 -212 18 -149 18 -56 c 0
 18 -7 40 42 78 82 c 0
 109 113 138 130 192 147 c 1
 291 175 325 213 337 304 c 1xe8
390 496 m 0
 423 496 445 474 445 442 c 0
 445 399 408 360 366 360 c 0
 332 360 309 384 309 418 c 0xf0
 309 459 348 496 390 496 c 0
EndSplineSet
EndChar
StartChar: grave
Encoding: 193 96 124
Width: 340
Flags: W
HStem: 669 20G<214 236>
Fore
364 538 m 1
 252 583 l 2
 201 603 182 620 182 647 c 0
 182 670 202 689 226 689 c 0
 246 689 269 674 308 635 c 2
 377 567 l 1
 364 538 l 1
EndSplineSet
EndChar
StartChar: acute
Encoding: 194 180 125
Width: 320
Flags: W
HStem: 669 20G<320.5 342>
Fore
190 538 m 1
 178 567 l 1
 247 635 l 2
 288 674 310 689 331 689 c 0
 353 689 373 669 373 646 c 0
 373 621 352 602 303 583 c 2
 190 538 l 1
EndSplineSet
Ligature: 0 1 'liga' space acutecomb
EndChar
StartChar: circumflex
Encoding: 195 710 126
Width: 440
Flags: W
Fore
176 567 m 1
 342 666 l 1
 479 567 l 1
 454 542 l 1
 331 587 l 1
 198 541 l 1
 176 567 l 1
EndSplineSet
EndChar
StartChar: tilde
Encoding: 196 732 127
Width: 440
Flags: W
Fore
459 652 m 5
 488 652 l 5
 463 597 424 569 374 569 c 4
 358 569 355 570 320 579 c 4
 296 585 267 590 256 590 c 4
 237 590 221 584 211 574 c 5
 180 574 l 5
 201 622 240 650 285 650 c 4
 302 650 312 648 368 635 c 4
 387 631 398 629 405 629 c 4
 424 629 439 636 459 652 c 5
EndSplineSet
LCarets: 0 65535 '    ' 1 0 
Ligature: 0 1 'liga' space tildecomb
EndChar
StartChar: macron
Encoding: 197 175 128
Width: 440
Flags: W
HStem: 581 57<196 465>
Fore
197 638 m 1
 484 638 l 1
 465 581 l 1
 178 581 l 1
 197 638 l 1
EndSplineSet
LCarets: 0 65535 '    ' 1 0 
Ligature: 0 1 'liga' space uni0304
EndChar
StartChar: breve
Encoding: 198 728 129
Width: 440
Flags: W
Fore
191 649 m 1
 215 661 l 1
 241 633 281 620 344 620 c 0
 403 620 447 633 478 660 c 1
 500 650 l 1
 463 581 417 553 341 553 c 0
 271 553 220 585 191 649 c 1
EndSplineSet
Ligature: 0 1 'liga' space uni0306
EndChar
StartChar: dotaccent
Encoding: 199 729 130
Width: 260
Flags: W
Fore
241 673 m 0
 269 673 290 652 290 623 c 0
 290 585 255 552 216 552 c 0
 188 552 169 573 169 604 c 0
 169 641 203 673 241 673 c 0
EndSplineSet
Ligature: 0 1 'liga' space uni0307
EndChar
StartChar: dieresis
Encoding: 200 168 131
Width: 420
Flags: W
Fore
256 672 m 0
 284 672 305 651 305 622 c 0
 305 585 271 552 233 552 c 0
 204 552 185 573 185 604 c 0
 185 640 219 672 256 672 c 0
418 672 m 0
 446 672 467 651 467 622 c 0
 467 585 433 552 395 552 c 0
 366 552 347 573 347 604 c 0
 347 640 381 672 418 672 c 0
EndSplineSet
Ligature: 0 1 'liga' space uni0308
EndChar
StartChar: ring
Encoding: 202 730 132
Width: 300
Flags: W
HStem: 534 33<237 247> 658 33<257 272>
VStem: 178 37<597 608> 297 37<613 631>
Fore
270 691 m 0
 307 691 334 664 334 626 c 0
 334 578 289 534 239 534 c 0
 203 534 178 561 178 600 c 0
 178 650 220 691 270 691 c 0
265 658 m 0
 238 658 215 634 215 606 c 0
 215 582 227 567 245 567 c 0
 272 567 297 593 297 621 c 0
 297 643 284 658 265 658 c 0
EndSplineSet
Ligature: 0 1 'liga' space uni030A
EndChar
StartChar: cedilla
Encoding: 203 184 133
Width: 320
Flags: W
HStem: -182 27<120 142> -68 25<132 145> -68 68<119 144>
VStem: 188 52<-109 -99>
DStem: 120 0 157 0 91 -74 143 -43
Fore
157 0 m 1xb0
 143 -43 l 1
 151 -43 l 1
 162 -43 l 2
 209 -43 240 -66 240 -101 c 0
 240 -146 190 -182 128 -182 c 0
 80 -182 45 -162 45 -134 c 0
 45 -119 56 -106 70 -106 c 0
 87 -106 93 -111 95 -128 c 0
 98 -145 111 -155 131 -155 c 0
 161 -155 188 -132 188 -107 c 0
 188 -84 165 -68 132 -68 c 0xd0
 119 -68 106 -70 91 -74 c 1
 120 0 l 1
 157 0 l 1xb0
EndSplineSet
Ligature: 0 1 'liga' space uni0327
EndChar
StartChar: hungarumlaut
Encoding: 205 733 134
Width: 340
Flags: W
Fore
190 537 m 1
 167 553 l 1
 188 631 l 1
 206 700 217 718 242 718 c 0
 263 718 282 699 282 677 c 0
 282 662 271 639 255 618 c 2
 190 537 l 1
310 537 m 1
 287 553 l 1
 308 631 l 1
 326 700 337 718 362 718 c 0
 383 718 402 699 402 677 c 0
 402 662 391 639 375 618 c 2
 310 537 l 1
EndSplineSet
Ligature: 0 1 'liga' space uni030B
EndChar
StartChar: ogonek
Encoding: 206 731 135
Width: 260
Flags: W
HStem: -169 33<138 151> -20 20G<141 184>
VStem: 51 52<-100 -88>
Fore
141 0 m 1
 184 0 l 1
 172 -9 l 2
 117 -52 103 -69 103 -96 c 0
 103 -118 123 -136 149 -136 c 0
 157 -136 164 -135 176 -130 c 1
 170 -166 l 1
 156 -168 149 -169 139 -169 c 0
 86 -169 51 -141 51 -98 c 0
 51 -58 71 -36 141 0 c 1
EndSplineSet
Ligature: 0 1 'liga' space uni0328
EndChar
StartChar: caron
Encoding: 207 711 136
Width: 440
Flags: W
Fore
481 641 m 1
 315 541 l 1
 178 640 l 1
 203 665 l 1
 326 620 l 1
 459 666 l 1
 481 641 l 1
EndSplineSet
EndChar
StartChar: emdash
Encoding: 208 8212 137
Width: 1000
Flags: W
HStem: 232 53<58 1033>
Fore
59 285 m 1
 1061 285 l 1
 1033 232 l 1
 33 232 l 1
 59 285 l 1
EndSplineSet
EndChar
StartChar: AE
Encoding: 225 198 138
Width: 1220
Flags: W
HStem: 0 45<850 1141> 338 44<808 884> 480 20G<1018 1049> 640 41<747 1000>
DStem: 700 338 800 338 662 128 762 132 747 681 751 621 195 163 501 385 747 681 454 338 195 163 266 162 751 621 837 543 708 385 808 382
Fore
700 338 m 1
 454 338 l 1
 266 162 l 2
 218 116 198 89 198 68 c 0
 198 58 202 49 209 44 c 0
 220 37 220 37 263 31 c 2
 278 29 l 1
 273 0 l 1
 -45 0 l 1
 -40 29 l 1
 44 48 126 95 195 163 c 1
 747 681 l 1
 1231 681 l 1
 1269 486 l 1
 1227 475 l 1
 1172 593 1098 640 970 640 c 0
 916 640 877 630 861 613 c 0
 852 602 843 579 837 543 c 1
 808 382 l 1
 882 382 l 2
 930 382 965 398 987 429 c 0
 997 442 999 448 1018 500 c 1
 1049 500 l 1
 998 217 l 1
 966 217 l 1
 968 236 968 244 968 251 c 0
 968 308 936 338 876 338 c 2
 800 338 l 1
 762 132 l 1
 757 99 757 99 757 93 c 0
 757 79 766 64 778 58 c 0
 794 51 833 45 869 45 c 0
 937 45 1022 70 1083 108 c 0
 1127 136 1161 165 1208 217 c 1
 1239 205 l 1
 1141 0 l 1
 551 0 l 1
 557 29 l 1
 573 31 l 2
 628 38 647 59 662 128 c 1
 700 338 l 1
708 385 m 1
 751 621 l 1
 501 385 l 1
 708 385 l 1
EndSplineSet
EndChar
StartChar: ordfeminine
Encoding: 227 170 139
Width: 440
Flags: W
HStem: 304 37<100 483> 388 33<245 256> 661 33<312 327>
VStem: 140 62<485 506> 366 62<446 462>
Fore
470 689 m 1
 433 489 l 1
 428 464 428 463 428 456 c 0
 428 436 440 421 455 421 c 0
 469 421 484 429 499 446 c 1
 513 433 l 1
 497 409 456 389 424 389 c 0
 390 389 366 416 366 453 c 2
 366 462 l 1
 329 411 291 388 247 388 c 0
 181 388 140 432 140 504 c 0
 140 604 222 694 313 694 c 0
 349 694 379 682 402 658 c 1
 408 689 l 1
 470 689 l 1
397 633 m 1
 375 654 357 661 325 661 c 0
 260 661 202 577 202 485 c 0
 202 447 223 421 254 421 c 0
 286 421 325 446 348 480 c 0
 370 514 381 550 397 633 c 1
101 341 m 1
 490 341 l 1
 483 304 l 1
 94 304 l 1
 101 341 l 1
EndSplineSet
EndChar
StartChar: Lslash
Encoding: 232 321 140
Width: 580
Flags: W
HStem: 0 39<292 559> 661 20G<145 419>
DStem: 158 276 266 318 131 128 233 139 208 553 308 553 167 325 275 368 443 450 434 401 275 368 266 318
Fore
158 276 m 1
 62 226 l 1
 71 276 l 1
 167 325 l 1
 208 553 l 1
 210 561 212 587 212 596 c 0
 212 628 195 645 155 650 c 2
 139 652 l 1
 145 681 l 1
 419 681 l 1
 413 652 l 1
 397 650 l 2
 342 643 322 622 308 553 c 1
 275 368 l 1
 443 450 l 1
 434 401 l 1
 266 318 l 1
 233 139 l 1
 227 100 226 96 226 85 c 0
 226 53 251 39 305 39 c 0
 379 39 450 64 519 115 c 0
 558 143 583 169 627 223 c 1
 656 209 l 1
 559 0 l 1
 21 0 l 1
 26 29 l 1
 43 31 l 2
 98 38 117 59 131 128 c 1
 158 276 l 1
EndSplineSet
EndChar
StartChar: Oslash
Encoding: 233 216 141
Width: 760
Flags: W
HStem: -13 47<373 393> 647 47<487 521>
VStem: 88 110<243 275> 689 110<409 440>
DStem: 204 34 240 13 117 -95 166 -95 604 618 635 594 245 95 276 67 712 778 761 778 640 672 676 653
Fore
761 778 m 1
 676 653 l 1
 761 592 799 517 799 409 c 0
 799 290 751 181 660 98 c 0
 579 23 486 -13 375 -13 c 0
 322 -13 291 -7 240 13 c 1
 166 -95 l 1
 117 -95 l 1
 204 34 l 1
 168 61 152 78 135 104 c 0
 105 149 88 211 88 275 c 0
 88 511 275 694 515 694 c 0
 563 694 593 689 640 672 c 1
 712 778 l 1
 761 778 l 1
245 95 m 1
 604 618 l 1
 567 640 541 647 503 647 c 0
 421 647 337 603 288 534 c 0
 232 456 198 347 198 243 c 0
 198 179 210 141 245 95 c 1
635 594 m 1
 276 67 l 1
 318 42 343 34 382 34 c 0
 469 34 555 82 610 163 c 0
 657 232 689 344 689 440 c 0
 689 504 674 547 635 594 c 1
EndSplineSet
KernsSLIF: 65 -49 0 0
EndChar
StartChar: OE
Encoding: 234 338 142
Width: 1180
Flags: W
HStem: -13 47<359 393> 0 42<803 1112> 335 47<777 861> 482 20G<986 1018> 638 43<737 968> 647 47<487 505>
VStem: 88 110<258 292>
Fore
723 603 m 1xb6
 737 681 l 1
 1198 681 l 1
 1237 486 l 1
 1197 475 l 1
 1164 540 1141 569 1099 596 c 0
 1054 625 1005 638 942 638 c 0
 891 638 854 631 837 619 c 0
 821 606 815 590 805 538 c 1
 777 382 l 1
 859 382 l 2
 908 382 933 395 957 434 c 0
 970 455 978 472 986 502 c 1
 1018 502 l 1
 966 213 l 1
 935 213 l 1
 936 225 936 230 936 238 c 0
 936 305 908 335 845 335 c 2
 768 335 l 1
 730 123 l 1
 728 115 727 105 727 100 c 0
 727 57 754 42 834 42 c 0
 919 42 991 64 1063 113 c 0
 1112 146 1144 176 1176 218 c 1
 1210 204 l 1
 1112 0 l 1
 613 0 l 1x7a
 628 81 l 1
 543 16 466 -13 373 -13 c 0
 210 -13 88 108 88 270 c 0
 88 496 281 694 501 694 c 0
 556 694 614 680 663 653 c 0
 683 642 697 631 723 603 c 1xb6
490 647 m 0xb6
 418 647 350 614 301 555 c 0
 238 480 198 369 198 268 c 0
 198 120 265 34 381 34 c 0
 461 34 539 74 589 140 c 0
 646 215 679 320 679 423 c 0
 679 488 664 542 634 583 c 0
 603 625 554 647 490 647 c 0xb6
EndSplineSet
EndChar
StartChar: ordmasculine
Encoding: 235 186 143
Width: 400
Flags: W
HStem: 304 37<100 448> 388 33<269 287> 661 33<317 335>
VStem: 157 62<490 508> 387 62<570 589>
Fore
330 694 m 0
 402 694 449 646 449 572 c 0
 449 471 371 388 275 388 c 0
 205 388 157 436 157 506 c 0
 157 609 235 694 330 694 c 0
327 661 m 0
 300 661 274 646 257 621 c 0
 235 591 219 535 219 492 c 0
 219 447 241 421 280 421 c 0
 312 421 340 440 359 474 c 0
 375 504 387 553 387 587 c 0
 387 634 365 661 327 661 c 0
101 341 m 1
 455 341 l 1
 448 304 l 1
 94 304 l 1
 101 341 l 1
EndSplineSet
EndChar
StartChar: ae
Encoding: 241 230 144
Width: 880
Flags: W
HStem: -9 47<203 250 633 658> 234 32<534 600> 458 37<356 379 736 754>
VStem: 71 97<92 112> 825 93<384 391>
Fore
847 112 m 1
 870 84 l 1
 788 20 714 -9 633 -9 c 0
 581 -9 532 5 493 32 c 0
 467 51 454 67 438 101 c 1
 408 67 391 51 366 35 c 0
 322 8 261 -9 203 -9 c 0
 123 -9 71 31 71 92 c 0
 71 162 138 230 236 261 c 0
 297 280 352 288 449 293 c 1
 458 343 461 370 461 388 c 0
 461 433 424 458 358 458 c 0
 320 458 283 445 262 424 c 0
 254 415 253 411 250 389 c 0
 247 355 218 328 187 328 c 0
 165 328 148 344 148 363 c 0
 148 382 158 402 177 421 c 0
 224 470 293 495 377 495 c 0
 430 495 474 485 506 467 c 0
 523 457 532 447 543 424 c 1
 620 474 682 495 754 495 c 0
 851 495 918 450 918 386 c 0
 918 335 877 293 801 267 c 0
 743 247 647 233 570 234 c 2
 565 234 l 1
 530 234 l 1
 526 205 525 193 525 174 c 0
 525 91 577 38 658 38 c 0
 717 38 771 59 847 112 c 1
443 258 m 1
 422 258 370 253 345 248 c 0
 235 229 168 177 168 112 c 0
 168 69 202 38 250 38 c 0
 311 38 376 76 406 128 c 0
 423 157 434 195 443 258 c 1
534 266 m 1
 554 266 l 2
 629 266 678 272 721 286 c 0
 784 307 825 348 825 389 c 0
 825 428 788 458 738 458 c 0
 646 458 564 382 534 266 c 1
EndSplineSet
KernsSLIF: 121 -15 0 0 119 -14 0 0 118 -11 0 0
EndChar
StartChar: dotlessi
Encoding: 245 305 145
Width: 280
Flags: W
HStem: -9 52<207 257> 466 20G<233 271>
VStem: 111 93<91 104>
DStem: 156 358 271 486 114 128 206 128
Fore
328 86 m 1
 351 65 l 1
 305 15 258 -9 207 -9 c 0
 148 -9 111 30 111 93 c 0
 111 104 112 117 114 128 c 2
 156 358 l 1
 158 367 158 372 158 383 c 0
 158 412 142 426 100 433 c 2
 88 435 l 1
 93 464 l 1
 161 470 176 473 233 486 c 1
 271 486 l 1
 206 128 l 1
 205 119 204 112 204 102 c 0
 204 67 225 43 257 43 c 0
 277 43 298 55 328 86 c 1
EndSplineSet
EndChar
StartChar: lslash
Encoding: 248 322 146
Width: 340
Flags: W
HStem: -9 57<218 274>
VStem: 126 93<85 103>
DStem: 166 331 265 370 134 153 228 164 175 378 166 331 58 321 50 275 211 577 328 715 175 378 274 417 398 477 389 430 274 417 265 370
Fore
175 378 m 1
 211 577 l 1
 212 585 213 594 213 599 c 0
 213 633 198 645 150 651 c 2
 135 653 l 1
 140 682 l 1
 209 689 242 697 287 715 c 1
 328 715 l 1
 274 417 l 1
 398 477 l 1
 389 430 l 1
 265 370 l 1
 228 164 l 1
 219 116 219 114 219 101 c 0
 219 71 242 48 274 48 c 0
 296 48 315 58 345 85 c 1
 368 64 l 1
 327 17 273 -9 218 -9 c 0
 166 -9 126 32 126 85 c 0
 126 101 129 126 134 153 c 2
 166 331 l 1
 50 275 l 1
 58 321 l 1
 175 378 l 1
EndSplineSet
EndChar
StartChar: oslash
Encoding: 249 248 147
Width: 540
Flags: W
HStem: -9 42<268 290> 453 42<352 370>
VStem: 65 97<165 190> 474 97<289 316>
DStem: 132 37 159 18 66 -49 108 -49 433 424 452 396 179 96 196 66 519 533 559 533 469 470 497 453
Fore
559 533 m 1
 497 453 l 1
 550 408 571 361 571 291 c 0
 571 124 438 -9 270 -9 c 0
 231 -9 204 -2 159 18 c 1
 108 -49 l 1
 66 -49 l 1
 132 37 l 1
 86 78 65 125 65 190 c 0
 65 259 93 334 140 391 c 0
 197 458 274 495 361 495 c 0
 403 495 429 489 469 470 c 1
 519 533 l 1
 559 533 l 1
179 96 m 1
 433 424 l 1
 409 446 391 453 356 453 c 0
 299 453 248 421 217 366 c 0
 183 306 162 230 162 165 c 0
 162 142 166 126 179 96 c 1
452 396 m 1
 196 66 l 1
 223 42 246 33 283 33 c 0
 336 33 386 62 416 110 c 0
 452 167 474 246 474 316 c 0
 474 345 469 363 452 396 c 1
EndSplineSet
EndChar
StartChar: oe
Encoding: 250 339 148
Width: 900
Flags: W
HStem: -9 42<267 290> 227 35<568 614> 458 37<336 370>
VStem: 65 97<171 200> 471 82<172 312> 855 93<383 397>
Fore
874 113 m 1
 896 85 l 1
 827 25 742 -9 659 -9 c 0
 585 -9 524 18 479 71 c 1
 411 15 347 -9 269 -9 c 0
 152 -9 65 77 65 193 c 0
 65 364 192 495 357 495 c 0
 440 495 494 467 539 401 c 1
 623 468 692 495 779 495 c 0
 878 495 948 449 948 385 c 0
 948 345 922 309 874 283 c 0
 816 250 691 227 576 227 c 2
 560 227 l 1
 554 205 553 193 553 172 c 0
 553 91 603 38 680 38 c 0
 739 38 798 61 874 113 c 1
354 458 m 0
 303 458 256 434 227 395 c 0
 188 340 162 254 162 174 c 0
 162 133 170 99 186 77 c 0
 203 51 241 33 279 33 c 0
 342 33 394 67 426 129 c 0
 453 180 471 255 471 312 c 0
 471 407 430 458 354 458 c 0
568 262 m 1
 577 262 l 1
 581 262 l 2
 627 261 692 270 735 283 c 0
 813 307 855 346 855 393 c 0
 855 432 816 462 766 462 c 0
 707 462 652 427 612 365 c 0
 595 340 583 312 568 262 c 1
EndSplineSet
EndChar
StartChar: germandbls
Encoding: 251 223 149
Width: 620
Flags: W
HStem: -110 42<-28 -24> -9 42<342 369> 456 32<146 201> 667 33<479 487>
VStem: 393 82<410 426> 558 93<209 243> 571 82<593 611>
DStem: 201 456 298 478 151 174 242 169
Fore
227 34 m 1xfc
 252 65 l 1
 297 40 318 33 354 33 c 0
 463 33 558 124 558 228 c 0xfc
 558 269 542 291 485 324 c 0
 408 370 393 384 393 410 c 0
 393 437 416 459 482 497 c 0
 527 523 537 530 548 543 c 0
 564 561 571 578 571 598 c 0
 571 641 536 667 479 667 c 0
 428 667 382 647 350 611 c 0
 324 581 311 548 298 478 c 1
 242 169 l 1
 225 78 202 24 161 -21 c 0
 107 -81 44 -110 -28 -110 c 0
 -67 -110 -95 -104 -121 -89 c 1
 -100 -53 l 1
 -60 -66 -50 -68 -28 -68 c 0
 30 -68 75 -39 106 17 c 0
 126 51 134 80 151 174 c 1
 201 456 l 1
 141 456 l 1
 147 488 l 1
 208 488 l 1
 220 560 239 598 278 632 c 0
 329 675 401 700 479 700 c 0
 543 700 597 685 628 658 c 0
 643 645 653 621 653 597 c 0xfa
 653 536 606 490 506 452 c 0
 483 444 475 436 475 426 c 0
 475 416 482 410 503 400 c 0
 518 392 571 361 586 349 c 1
 631 318 651 279 651 225 c 0
 651 160 621 102 562 57 c 0
 507 15 437 -9 367 -9 c 0
 310 -9 269 3 227 34 c 1xfc
EndSplineSet
EndChar
StartChar: Adieresis
Encoding: 256 196 150
Width: 700
Flags: W
HStem: 0 21G<-25 237 444 715> 253 40<269 502> 661 20G<422 518> 739 120<384 407 545 568>
VStem: 336 120<791 809> 497 120<791 809>
DStem: 422 681 434 598 137 175 269 293 422 681 246 253 137 175 193 157 434 598 518 681 497 293 624 156 502 253 518 681 524 136 624 156
Fore
518 681 m 1
 624 156 l 1
 645 57 654 44 708 31 c 2
 720 29 l 1
 715 0 l 1
 444 0 l 1
 449 29 l 1
 461 31 l 2
 510 39 531 57 531 89 c 0
 531 98 529 114 524 136 c 1
 502 253 l 1
 246 253 l 1
 193 157 l 1
 175 123 167 100 167 80 c 0
 167 53 187 38 230 31 c 2
 242 29 l 1
 237 0 l 1
 -25 0 l 1
 -20 29 l 1
 -7 31 l 2
 55 46 73 64 137 175 c 1
 422 681 l 1
 518 681 l 1
497 293 m 1
 434 598 l 1
 269 293 l 1
 497 293 l 1
407 859 m 0
 436 859 456 838 456 809 c 0
 456 772 422 739 384 739 c 0
 355 739 336 760 336 791 c 0
 336 827 369 859 407 859 c 0
568 859 m 0
 597 859 617 838 617 809 c 0
 617 772 583 739 545 739 c 0
 516 739 497 760 497 791 c 0
 497 827 530 859 568 859 c 0
EndSplineSet
KernsSLIF: 121 -35 0 0 119 -32 0 0 118 -32 0 0 117 -31 0 0 116 -26 0 0 39 -84 0 0 186 -84 0 0 113 -28 0 0 46 -7 0 0 111 -35 0 0 45 -19 0 0 172 -31 0 0 171 -29 0 0 103 -30 0 0 100 -28 0 0 44 -11 0 0 99 -36 0 0 98 -15 0 0 97 -32 0 0 89 -47 0 0 87 -82 0 0 86 -90 0 0 85 -50 0 0 84 -37 0 0 81 -51 0 0 79 -54 0 0 71 -52 0 0 67 -53 0 0
Ligature: 0 0 'liga' A uni0308
EndChar
StartChar: Aacute
Encoding: 257 193 151
Width: 700
Flags: W
HStem: 0 21G<-25 237 444 715> 253 40<269 502> 661 20G<422 518>
DStem: 422 681 434 598 137 175 269 293 422 681 246 253 137 175 193 157 434 598 518 681 497 293 624 156 502 253 518 681 524 136 624 156
Fore
518 681 m 1
 624 156 l 1
 645 57 654 44 708 31 c 2
 720 29 l 1
 715 0 l 1
 444 0 l 1
 449 29 l 1
 461 31 l 2
 510 39 531 57 531 89 c 0
 531 98 529 114 524 136 c 1
 502 253 l 1
 246 253 l 1
 193 157 l 1
 175 123 167 100 167 80 c 0
 167 53 187 38 230 31 c 2
 242 29 l 1
 237 0 l 1
 -25 0 l 1
 -20 29 l 1
 -7 31 l 2
 55 46 73 64 137 175 c 1
 422 681 l 1
 518 681 l 1
497 293 m 1
 434 598 l 1
 269 293 l 1
 497 293 l 1
435 725 m 1
 423 754 l 1
 492 822 l 2
 533 861 555 876 576 876 c 0
 598 876 618 856 618 833 c 0
 618 808 597 789 548 770 c 2
 435 725 l 1
EndSplineSet
KernsSLIF: 121 -35 0 0 119 -32 0 0 118 -32 0 0 117 -31 0 0 116 -26 0 0 39 -84 0 0 113 -28 0 0 46 -7 0 0 111 -35 0 0 45 -19 0 0 172 -31 0 0 171 -29 0 0 103 -30 0 0 101 -37 0 0 100 -28 0 0 44 -11 0 0 99 -36 0 0 98 -15 0 0 97 -32 0 0 89 -47 0 0 87 -82 0 0 86 -90 0 0 85 -50 0 0 84 -37 0 0 81 -51 0 0 79 -54 0 0 71 -52 0 0 67 -53 0 0
Ligature: 0 0 'liga' A acutecomb
EndChar
StartChar: Agrave
Encoding: 258 192 152
Width: 700
Flags: W
HStem: 0 21G<-25 237 444 715> 253 40<269 502> 661 20G<422 518>
DStem: 422 681 434 598 137 175 269 293 422 681 246 253 137 175 193 157 434 598 518 681 497 293 624 156 502 253 518 681 524 136 624 156
Fore
518 681 m 1
 624 156 l 1
 645 57 654 44 708 31 c 2
 720 29 l 1
 715 0 l 1
 444 0 l 1
 449 29 l 1
 461 31 l 2
 510 39 531 57 531 89 c 0
 531 98 529 114 524 136 c 1
 502 253 l 1
 246 253 l 1
 193 157 l 1
 175 123 167 100 167 80 c 0
 167 53 187 38 230 31 c 2
 242 29 l 1
 237 0 l 1
 -25 0 l 1
 -20 29 l 1
 -7 31 l 2
 55 46 73 64 137 175 c 1
 422 681 l 1
 518 681 l 1
497 293 m 1
 434 598 l 1
 269 293 l 1
 497 293 l 1
522 725 m 1
 410 770 l 2
 359 790 340 807 340 834 c 0
 340 857 360 876 384 876 c 0
 404 876 427 861 466 822 c 2
 535 754 l 1
 522 725 l 1
EndSplineSet
KernsSLIF: 46 -7 0 0 44 -11 0 0 89 -47 0 0 87 -82 0 0 86 -90 0 0 85 -50 0 0 84 -37 0 0 81 -51 0 0 79 -54 0 0 71 -52 0 0 67 -53 0 0
Ligature: 0 0 'liga' A gravecomb
EndChar
StartChar: Acircumflex
Encoding: 259 194 153
Width: 700
Flags: W
HStem: 0 21G<-25 237 444 715> 253 40<269 502> 661 20G<422 518>
DStem: 422 681 434 598 137 175 269 293 422 681 246 253 137 175 193 157 434 598 518 681 497 293 624 156 502 253 518 681 524 136 624 156
Fore
518 681 m 1
 624 156 l 1
 645 57 654 44 708 31 c 2
 720 29 l 1
 715 0 l 1
 444 0 l 1
 449 29 l 1
 461 31 l 2
 510 39 531 57 531 89 c 0
 531 98 529 114 524 136 c 1
 502 253 l 1
 246 253 l 1
 193 157 l 1
 175 123 167 100 167 80 c 0
 167 53 187 38 230 31 c 2
 242 29 l 1
 237 0 l 1
 -25 0 l 1
 -20 29 l 1
 -7 31 l 2
 55 46 73 64 137 175 c 1
 422 681 l 1
 518 681 l 1
497 293 m 1
 434 598 l 1
 269 293 l 1
 497 293 l 1
319 754 m 1
 485 853 l 1
 622 754 l 1
 597 729 l 1
 474 774 l 1
 341 728 l 1
 319 754 l 1
EndSplineSet
KernsSLIF: 46 -7 0 0 44 -11 0 0 89 -47 0 0 87 -82 0 0 86 -90 0 0 85 -50 0 0 84 -37 0 0 81 -51 0 0 79 -54 0 0 71 -52 0 0 67 -53 0 0
Ligature: 0 0 'liga' A uni0302
EndChar
StartChar: Abreve
Encoding: 260 258 154
Width: 700
Flags: W
HStem: 0 21G<-25 237 444 715> 253 40<269 502> 661 20G<422 518> 740 67<450 488>
DStem: 422 681 434 598 137 175 269 293 422 681 246 253 137 175 193 157 434 598 518 681 497 293 624 156 502 253 518 681 524 136 624 156
Fore
518 681 m 1
 624 156 l 1
 645 57 654 44 708 31 c 2
 720 29 l 1
 715 0 l 1
 444 0 l 1
 449 29 l 1
 461 31 l 2
 510 39 531 57 531 89 c 0
 531 98 529 114 524 136 c 1
 502 253 l 1
 246 253 l 1
 193 157 l 1
 175 123 167 100 167 80 c 0
 167 53 187 38 230 31 c 2
 242 29 l 1
 237 0 l 1
 -25 0 l 1
 -20 29 l 1
 -7 31 l 2
 55 46 73 64 137 175 c 1
 422 681 l 1
 518 681 l 1
497 293 m 1
 434 598 l 1
 269 293 l 1
 497 293 l 1
321 836 m 1
 345 848 l 1
 371 820 411 807 475 807 c 0
 533 807 577 820 608 847 c 1
 630 837 l 1
 593 768 547 740 471 740 c 0
 401 740 350 772 321 836 c 1
EndSplineSet
Ligature: 0 0 'liga' A uni0306
EndChar
StartChar: Atilde
Encoding: 261 195 155
Width: 700
Flags: W
HStem: 0 21G<-25 237 444 715> 253 40<269 502> 661 20G<422 518> 756 60<517 548> 777 60<399 428>
DStem: 422 681 434 598 137 175 269 293 422 681 246 253 137 175 193 157 434 598 518 681 497 293 624 156 502 253 518 681 524 136 624 156
Fore
518 681 m 1xe0
 624 156 l 1
 645 57 654 44 708 31 c 2
 720 29 l 1
 715 0 l 1
 444 0 l 1
 449 29 l 1
 461 31 l 2
 510 39 531 57 531 89 c 0
 531 98 529 114 524 136 c 1
 502 253 l 1
 246 253 l 1
 193 157 l 1
 175 123 167 100 167 80 c 0
 167 53 187 38 230 31 c 2
 242 29 l 1
 237 0 l 1
 -25 0 l 1
 -20 29 l 1
 -7 31 l 2
 55 46 73 64 137 175 c 1
 422 681 l 1
 518 681 l 1xe0
497 293 m 1
 434 598 l 1
 269 293 l 1
 497 293 l 1
602 839 m 1
 631 839 l 1
 606 784 567 756 517 756 c 0xf0
 501 756 498 757 463 766 c 0
 439 772 410 777 399 777 c 0
 380 777 364 771 354 761 c 1
 323 761 l 1
 344 809 383 837 428 837 c 0xe8
 445 837 455 835 511 822 c 0
 530 818 541 816 548 816 c 0xf0
 567 816 582 823 602 839 c 1
EndSplineSet
KernsSLIF: 46 -7 0 0 44 -11 0 0 89 -47 0 0 87 -82 0 0 86 -90 0 0 85 -50 0 0 84 -37 0 0 81 -51 0 0 79 -54 0 0 71 -52 0 0 67 -53 0 0
Ligature: 0 0 'liga' A tildecomb
EndChar
StartChar: Aring
Encoding: 262 197 156
Width: 700
Flags: W
HStem: 0 21G<-25 237 444 715> 253 40<269 502> 661 20G<422 518> 721 33<468 478> 845 33<494 505>
VStem: 409 37<783 801> 528 37<806 817>
DStem: 422 681 434 598 137 175 269 293 422 681 246 253 137 175 193 157 434 598 518 681 497 293 624 156 502 253 518 681 524 136 624 156
Fore
518 681 m 1
 624 156 l 1
 645 57 654 44 708 31 c 2
 720 29 l 1
 715 0 l 1
 444 0 l 1
 449 29 l 1
 461 31 l 2
 510 39 531 57 531 89 c 0
 531 98 529 114 524 136 c 1
 502 253 l 1
 246 253 l 1
 193 157 l 1
 175 123 167 100 167 80 c 0
 167 53 187 38 230 31 c 2
 242 29 l 1
 237 0 l 1
 -25 0 l 1
 -20 29 l 1
 -7 31 l 2
 55 46 73 64 137 175 c 1
 422 681 l 1
 518 681 l 1
497 293 m 1
 434 598 l 1
 269 293 l 1
 497 293 l 1
501 878 m 0
 538 878 565 851 565 813 c 0
 565 765 520 721 470 721 c 0
 434 721 409 748 409 787 c 0
 409 837 451 878 501 878 c 0
496 845 m 0
 469 845 446 821 446 793 c 0
 446 769 458 754 476 754 c 0
 503 754 528 780 528 808 c 0
 528 830 515 845 496 845 c 0
EndSplineSet
KernsSLIF: 121 -35 0 0 119 -32 0 0 118 -32 0 0 117 -31 0 0 116 -26 0 0 39 -84 0 0 186 -84 0 0 113 -28 0 0 46 -7 0 0 111 -35 0 0 45 -19 0 0 172 -31 0 0 171 -29 0 0 103 -30 0 0 101 -37 0 0 100 -28 0 0 44 -11 0 0 99 -36 0 0 98 -15 0 0 97 -32 0 0 89 -47 0 0 87 -82 0 0 86 -90 0 0 85 -50 0 0 84 -37 0 0 81 -51 0 0 79 -54 0 0 71 -52 0 0 67 -53 0 0
Ligature: 0 0 'liga' A uni030A
EndChar
StartChar: Aogonek
Encoding: 263 260 157
Width: 700
Flags: W
HStem: -169 33<668 681> -20 20G<444 671> 253 40<269 502> 661 20G<422 518>
VStem: 581 52<-100 -88>
DStem: 422 681 434 598 137 175 269 293 422 681 246 253 137 175 193 157 434 598 518 681 497 293 624 156 502 253 518 681 524 136 624 156
Fore
422 681 m 1
 518 681 l 1
 624 156 l 1
 645 57 654 44 708 31 c 2
 720 29 l 1
 715 0 l 1
 702 -9 l 2
 647 -52 633 -69 633 -96 c 0
 633 -118 653 -136 679 -136 c 0
 688 -136 694 -135 707 -130 c 1
 700 -166 l 1
 687 -168 679 -169 670 -169 c 0
 616 -169 581 -141 581 -98 c 0
 581 -58 601 -36 671 0 c 1
 444 0 l 1
 449 29 l 1
 461 31 l 2
 510 39 531 57 531 89 c 0
 531 98 529 114 524 136 c 1
 502 253 l 1
 246 253 l 1
 193 157 l 1
 175 123 167 100 167 80 c 0
 167 53 187 38 230 31 c 2
 242 29 l 1
 237 0 l 1
 -25 0 l 1
 -20 29 l 1
 -7 31 l 2
 55 46 73 64 137 175 c 1
 422 681 l 1
497 293 m 1
 434 598 l 1
 269 293 l 1
 497 293 l 1
EndSplineSet
Ligature: 0 0 'liga' A uni0328
EndChar
StartChar: Ccedilla
Encoding: 264 199 158
Width: 720
Flags: W
HStem: -182 27<359 368> -68 25<365 378> -13 47<386 411> 647 47<487 521>
VStem: 88 107<249 277> 421 52<-109 -99>
Fore
386 -13 m 1
 376 -43 l 1
 385 -43 l 1
 395 -43 l 2
 442 -43 473 -66 473 -101 c 0
 473 -146 423 -182 361 -182 c 0
 313 -182 278 -162 278 -134 c 0
 278 -119 289 -106 303 -106 c 0
 320 -106 326 -111 328 -128 c 0
 331 -145 344 -155 364 -155 c 0
 394 -155 421 -132 421 -107 c 0
 421 -84 398 -68 365 -68 c 0
 353 -68 339 -70 324 -74 c 1
 349 -11 l 1
 189 4 88 114 88 275 c 0
 88 503 272 694 493 694 c 0
 565 694 614 676 673 630 c 1
 703 681 l 1
 734 681 l 1
 746 444 l 1
 708 444 l 1
 660 589 600 647 500 647 c 0
 425 647 354 609 297 539 c 0
 233 459 195 354 195 253 c 0
 195 119 278 34 409 34 c 0
 523 34 624 95 690 203 c 1
 731 183 l 1
 678 69 530 -15 386 -13 c 1
EndSplineSet
KernsSLIF: 65 -22 0 0
Ligature: 0 0 'liga' C uni0327
EndChar
StartChar: Cacute
Encoding: 265 262 159
Width: 720
Flags: W
HStem: -13 47<384 411> 647 47<487 521>
VStem: 88 107<251 277>
Fore
734 681 m 1
 746 444 l 1
 708 444 l 1
 660 589 600 647 500 647 c 0
 425 647 354 609 297 539 c 0
 233 459 195 354 195 253 c 0
 195 119 278 34 409 34 c 0
 523 34 624 95 690 203 c 1
 731 183 l 1
 703 130 682 105 637 71 c 0
 565 16 479 -13 386 -13 c 0
 207 -13 88 102 88 275 c 0
 88 503 272 694 493 694 c 0
 565 694 614 676 673 630 c 1
 703 681 l 1
 734 681 l 1
470 725 m 1
 458 754 l 1
 527 822 l 2
 568 861 590 876 611 876 c 0
 633 876 653 856 653 833 c 0
 653 808 632 789 583 770 c 2
 470 725 l 1
EndSplineSet
Ligature: 0 0 'liga' C acutecomb
EndChar
StartChar: Ccaron
Encoding: 266 268 160
Width: 720
Flags: W
HStem: -13 47<384 411> 647 47<487 521>
VStem: 88 107<251 277>
Fore
734 681 m 1
 746 444 l 1
 708 444 l 1
 660 589 600 647 500 647 c 0
 425 647 354 609 297 539 c 0
 233 459 195 354 195 253 c 0
 195 119 278 34 409 34 c 0
 523 34 624 95 690 203 c 1
 731 183 l 1
 703 130 682 105 637 71 c 0
 565 16 479 -13 386 -13 c 0
 207 -13 88 102 88 275 c 0
 88 503 272 694 493 694 c 0
 565 694 614 676 673 630 c 1
 703 681 l 1
 734 681 l 1
661 828 m 1
 495 728 l 1
 358 827 l 1
 383 852 l 1
 506 807 l 1
 639 853 l 1
 661 828 l 1
EndSplineSet
Ligature: 0 0 'liga' C uni030C
EndChar
StartChar: Dcaron
Encoding: 267 270 161
Width: 740
Flags: W
HStem: 0 39<308 373> 640 41<145 478>
VStem: 675 107<399 418>
DStem: 208 553 312 572 131 128 228 110
Fore
21 0 m 1
 26 29 l 1
 43 31 l 2
 98 38 117 59 131 128 c 1
 208 553 l 1
 210 561 212 587 212 596 c 0
 212 628 195 645 155 650 c 2
 139 652 l 1
 145 681 l 1
 472 681 l 2
 565 681 647 659 693 622 c 0
 748 578 782 495 782 404 c 0
 782 304 743 199 677 124 c 0
 603 40 506 0 373 0 c 2
 21 0 l 1
312 572 m 1
 228 110 l 2
 226 100 225 90 225 84 c 0
 225 52 255 39 326 39 c 0
 440 39 530 79 589 155 c 0
 644 225 675 320 675 416 c 0
 675 556 592 640 452 640 c 0
 352 640 321 625 312 572 c 1
631 828 m 1
 465 728 l 1
 328 827 l 1
 353 852 l 1
 476 807 l 1
 609 853 l 1
 631 828 l 1
EndSplineSet
Ligature: 0 0 'liga' D uni030C
EndChar
StartChar: Edieresis
Encoding: 268 203 162
Width: 680
Flags: W
HStem: 0 43<308 608> 336 44<277 358> 481 20G<489 521> 638 43<145 454> 739 120<378 401 539 562>
VStem: 330 120<791 809> 491 120<791 809>
DStem: 208 553 310 560 131 128 277 380 208 553 269 336 131 128 229 115
Fore
698 681 m 1
 736 484 l 1
 694 474 l 1
 665 532 644 559 613 584 c 0
 564 622 511 638 436 638 c 0
 387 638 354 631 336 616 c 0
 321 605 315 592 310 560 c 1
 277 380 l 1
 354 380 l 2
 430 380 460 407 489 501 c 1
 521 501 l 1
 469 214 l 1
 437 214 l 1
 438 228 438 233 438 240 c 0
 438 301 407 336 352 336 c 2
 269 336 l 1
 229 115 l 1
 228 108 227 103 227 97 c 0
 227 59 258 43 330 43 c 0
 408 43 489 67 553 109 c 0
 596 137 628 166 675 218 c 1
 707 205 l 1
 608 0 l 1
 21 0 l 1
 26 29 l 1
 43 31 l 2
 98 38 117 60 131 128 c 1
 208 553 l 1
 210 561 212 587 212 596 c 0
 212 628 195 645 155 650 c 2
 139 652 l 1
 145 681 l 1
 698 681 l 1
401 859 m 0
 430 859 450 838 450 809 c 0
 450 772 416 739 378 739 c 0
 349 739 330 760 330 791 c 0
 330 827 363 859 401 859 c 0
562 859 m 0
 591 859 611 838 611 809 c 0
 611 772 577 739 539 739 c 0
 510 739 491 760 491 791 c 0
 491 827 524 859 562 859 c 0
EndSplineSet
Ligature: 0 0 'liga' E uni0308
EndChar
StartChar: Eacute
Encoding: 269 201 163
Width: 680
Flags: W
HStem: 0 43<308 608> 336 44<277 358> 481 20G<489 521> 638 43<145 454>
DStem: 208 553 310 560 131 128 277 380 208 553 269 336 131 128 229 115
Fore
698 681 m 1
 736 484 l 1
 694 474 l 1
 665 532 644 559 613 584 c 0
 564 622 511 638 436 638 c 0
 387 638 354 631 336 616 c 0
 321 605 315 592 310 560 c 1
 277 380 l 1
 354 380 l 2
 430 380 460 407 489 501 c 1
 521 501 l 1
 469 214 l 1
 437 214 l 1
 438 228 438 233 438 240 c 0
 438 301 407 336 352 336 c 2
 269 336 l 1
 229 115 l 1
 228 108 227 103 227 97 c 0
 227 59 258 43 330 43 c 0
 408 43 489 67 553 109 c 0
 596 137 628 166 675 218 c 1
 707 205 l 1
 608 0 l 1
 21 0 l 1
 26 29 l 1
 43 31 l 2
 98 38 117 60 131 128 c 1
 208 553 l 1
 210 561 212 587 212 596 c 0
 212 628 195 645 155 650 c 2
 139 652 l 1
 145 681 l 1
 698 681 l 1
413 725 m 1
 401 754 l 1
 470 822 l 2
 511 861 533 876 554 876 c 0
 576 876 596 856 596 833 c 0
 596 808 575 789 526 770 c 2
 413 725 l 1
EndSplineSet
Ligature: 0 0 'liga' E acutecomb
EndChar
StartChar: Egrave
Encoding: 270 200 164
Width: 680
Flags: W
HStem: 0 43<308 608> 336 44<277 358> 481 20G<489 521> 638 43<145 467>
DStem: 208 553 310 560 131 128 277 380 208 553 269 336 131 128 229 115
Fore
698 681 m 1
 736 484 l 1
 694 474 l 1
 665 532 644 559 613 584 c 0
 564 622 511 638 436 638 c 0
 387 638 354 631 336 616 c 0
 321 605 315 592 310 560 c 1
 277 380 l 1
 354 380 l 2
 430 380 460 407 489 501 c 1
 521 501 l 1
 469 214 l 1
 437 214 l 1
 438 228 438 233 438 240 c 0
 438 301 407 336 352 336 c 2
 269 336 l 1
 229 115 l 1
 228 108 227 103 227 97 c 0
 227 59 258 43 330 43 c 0
 408 43 489 67 553 109 c 0
 596 137 628 166 675 218 c 1
 707 205 l 1
 608 0 l 1
 21 0 l 1
 26 29 l 1
 43 31 l 2
 98 38 117 60 131 128 c 1
 208 553 l 1
 210 561 212 587 212 596 c 0
 212 628 195 645 155 650 c 2
 139 652 l 1
 145 681 l 1
 698 681 l 1
523 725 m 1
 411 770 l 2
 360 790 341 807 341 834 c 0
 341 857 361 876 385 876 c 0
 405 876 428 861 467 822 c 2
 536 754 l 1
 523 725 l 1
EndSplineSet
Ligature: 0 0 'liga' E gravecomb
EndChar
StartChar: Ecircumflex
Encoding: 271 202 165
Width: 680
Flags: W
HStem: 0 43<305 608> 336 44<277 358> 481 20G<489 521> 638 43<145 464>
DStem: 208 553 310 560 131 128 277 380 208 553 269 336 131 128 229 115
Fore
698 681 m 1
 736 484 l 1
 694 474 l 1
 665 532 644 559 613 584 c 0
 564 622 511 638 436 638 c 0
 387 638 354 631 336 616 c 0
 321 605 315 592 310 560 c 1
 277 380 l 1
 354 380 l 2
 430 380 460 407 489 501 c 1
 521 501 l 1
 469 214 l 1
 437 214 l 1
 438 228 438 233 438 240 c 0
 438 301 407 336 352 336 c 2
 269 336 l 1
 229 115 l 1
 228 108 227 103 227 97 c 0
 227 59 258 43 330 43 c 0
 408 43 489 67 553 109 c 0
 596 137 628 166 675 218 c 1
 707 205 l 1
 608 0 l 1
 21 0 l 1
 26 29 l 1
 43 31 l 2
 98 38 117 60 131 128 c 1
 208 553 l 1
 210 561 212 587 212 596 c 0
 212 628 195 645 155 650 c 2
 139 652 l 1
 145 681 l 1
 698 681 l 1
307 754 m 1
 473 853 l 1
 610 754 l 1
 585 729 l 1
 462 774 l 1
 329 728 l 1
 307 754 l 1
EndSplineSet
Ligature: 0 0 'liga' E uni0302
EndChar
StartChar: Ecaron
Encoding: 272 282 166
Width: 680
Flags: W
HStem: 0 43<308 608> 336 44<277 358> 481 20G<489 521> 638 43<145 454>
DStem: 208 553 310 560 131 128 277 380 208 553 269 336 131 128 229 115
Fore
698 681 m 1
 736 484 l 1
 694 474 l 1
 665 532 644 559 613 584 c 0
 564 622 511 638 436 638 c 0
 387 638 354 631 336 616 c 0
 321 605 315 592 310 560 c 1
 277 380 l 1
 354 380 l 2
 430 380 460 407 489 501 c 1
 521 501 l 1
 469 214 l 1
 437 214 l 1
 438 228 438 233 438 240 c 0
 438 301 407 336 352 336 c 2
 269 336 l 1
 229 115 l 1
 228 108 227 103 227 97 c 0
 227 59 258 43 330 43 c 0
 408 43 489 67 553 109 c 0
 596 137 628 166 675 218 c 1
 707 205 l 1
 608 0 l 1
 21 0 l 1
 26 29 l 1
 43 31 l 2
 98 38 117 60 131 128 c 1
 208 553 l 1
 210 561 212 587 212 596 c 0
 212 628 195 645 155 650 c 2
 139 652 l 1
 145 681 l 1
 698 681 l 1
601 828 m 1
 435 728 l 1
 298 827 l 1
 323 852 l 1
 446 807 l 1
 579 853 l 1
 601 828 l 1
EndSplineSet
Ligature: 0 0 'liga' E uni030C
EndChar
StartChar: Edotaccent
Encoding: 273 278 167
Width: 680
Flags: W
HStem: 0 43<308 608> 336 44<277 358> 481 20G<489 521> 638 43<145 454> 739 120<447 470>
VStem: 399 120<791 809>
DStem: 208 553 310 560 131 128 277 380 208 553 269 336 131 128 229 115
Fore
698 681 m 1
 736 484 l 1
 694 474 l 1
 665 532 644 559 613 584 c 0
 564 622 511 638 436 638 c 0
 387 638 354 631 336 616 c 0
 321 605 315 592 310 560 c 1
 277 380 l 1
 354 380 l 2
 430 380 460 407 489 501 c 1
 521 501 l 1
 469 214 l 1
 437 214 l 1
 438 228 438 233 438 240 c 0
 438 301 407 336 352 336 c 2
 269 336 l 1
 229 115 l 1
 228 108 227 103 227 97 c 0
 227 59 258 43 330 43 c 0
 408 43 489 67 553 109 c 0
 596 137 628 166 675 218 c 1
 707 205 l 1
 608 0 l 1
 21 0 l 1
 26 29 l 1
 43 31 l 2
 98 38 117 60 131 128 c 1
 208 553 l 1
 210 561 212 587 212 596 c 0
 212 628 195 645 155 650 c 2
 139 652 l 1
 145 681 l 1
 698 681 l 1
470 859 m 0
 499 859 519 838 519 809 c 0
 519 772 485 739 447 739 c 0
 418 739 399 760 399 791 c 0
 399 827 432 859 470 859 c 0
EndSplineSet
Ligature: 0 0 'liga' E uni0307
EndChar
StartChar: Eogonek
Encoding: 274 280 168
Width: 680
Flags: W
HStem: -169 33<562 575> 0 43<308 565> 336 44<277 358> 481 20G<489 521> 638 43<145 454>
VStem: 475 52<-100 -88>
DStem: 208 553 310 560 131 128 277 380 208 553 269 336 131 128 229 115
Fore
521 501 m 1
 469 214 l 1
 437 214 l 1
 438 228 438 233 438 240 c 0
 438 301 407 336 352 336 c 2
 269 336 l 1
 229 115 l 1
 228 108 227 103 227 97 c 0
 227 59 258 43 330 43 c 0
 408 43 489 67 553 109 c 0
 596 137 628 166 675 218 c 1
 707 205 l 1
 608 0 l 1
 596 -9 l 2
 540 -52 527 -69 527 -96 c 0
 527 -118 547 -136 573 -136 c 0
 582 -136 588 -135 601 -130 c 1
 594 -166 l 1
 580 -168 573 -169 563 -169 c 0
 510 -169 475 -141 475 -98 c 0
 475 -58 494 -37 565 0 c 1
 21 0 l 1
 26 29 l 1
 43 31 l 2
 98 38 117 60 131 128 c 1
 208 553 l 1
 210 561 212 587 212 596 c 0
 212 628 195 645 155 650 c 2
 139 652 l 1
 145 681 l 1
 698 681 l 1
 736 484 l 1
 694 474 l 1
 665 532 644 559 613 584 c 0
 564 622 511 638 436 638 c 0
 387 638 354 631 336 616 c 0
 321 605 315 592 310 560 c 1
 277 380 l 1
 354 380 l 2
 430 380 460 407 489 501 c 1
 521 501 l 1
EndSplineSet
Ligature: 0 0 'liga' E uni0328
EndChar
StartChar: Gbreve
Encoding: 275 286 169
Width: 760
Flags: W
HStem: -13 47<362 390> 647 47<471 489> 740 67<480 521>
VStem: 88 107<256 277>
Fore
541 324 m 1
 813 324 l 1
 808 295 l 1
 794 293 l 2
 745 286 718 255 710 196 c 1
 674 0 l 1
 620 0 l 1
 604 74 l 1
 546 20 454 -13 362 -13 c 0
 200 -13 88 105 88 275 c 0
 88 505 262 694 474 694 c 0
 549 694 619 671 660 633 c 1
 685 681 l 1
 715 681 l 1
 736 467 l 1
 705 467 l 1
 642 590 571 647 479 647 c 0
 397 647 324 601 270 515 c 0
 222 439 195 347 195 258 c 0
 195 196 209 146 235 110 c 0
 269 62 326 34 388 34 c 0
 514 34 614 120 614 227 c 0
 614 266 595 284 547 293 c 2
 536 295 l 1
 541 324 l 1
351 836 m 1
 375 848 l 1
 401 820 441 807 505 807 c 0
 563 807 607 820 638 847 c 1
 660 837 l 1
 623 768 577 740 501 740 c 0
 431 740 380 772 351 836 c 1
EndSplineSet
Ligature: 0 0 'liga' G uni0306
EndChar
StartChar: Idieresis
Encoding: 276 207 170
Width: 320
Flags: W
HStem: 0 21G<21 288> 661 20G<145 412> 739 120<202 225 345 368>
VStem: 154 120<791 809> 297 120<791 809>
DStem: 205 553 305 553 128 128 228 128
Fore
294 29 m 1
 288 0 l 1
 21 0 l 1
 26 29 l 1
 43 31 l 2
 96 40 114 61 128 128 c 1
 205 553 l 2
 207 564 209 584 209 594 c 0
 209 627 191 645 155 650 c 2
 139 652 l 1
 145 681 l 1
 412 681 l 1
 407 652 l 1
 390 650 l 2
 337 641 319 620 305 553 c 1
 228 128 l 2
 226 117 224 97 224 87 c 0
 224 54 242 36 278 31 c 2
 294 29 l 1
225 859 m 0
 253 859 274 838 274 809 c 0
 274 772 240 739 202 739 c 0
 173 739 154 760 154 791 c 0
 154 827 188 859 225 859 c 0
368 859 m 0
 396 859 417 838 417 809 c 0
 417 772 383 739 345 739 c 0
 316 739 297 760 297 791 c 0
 297 827 331 859 368 859 c 0
EndSplineSet
Ligature: 0 0 'liga' I uni0308
EndChar
StartChar: Iacute
Encoding: 277 205 171
Width: 320
Flags: W
HStem: 0 21G<21 288> 661 20G<145 412>
DStem: 205 553 305 553 128 128 228 128
Fore
294 29 m 1
 288 0 l 1
 21 0 l 1
 26 29 l 1
 43 31 l 2
 96 40 114 61 128 128 c 1
 205 553 l 2
 207 564 209 584 209 594 c 0
 209 627 191 645 155 650 c 2
 139 652 l 1
 145 681 l 1
 412 681 l 1
 407 652 l 1
 390 650 l 2
 337 641 319 620 305 553 c 1
 228 128 l 2
 226 117 224 97 224 87 c 0
 224 54 242 36 278 31 c 2
 294 29 l 1
190 725 m 1
 178 754 l 1
 247 822 l 2
 288 861 310 876 331 876 c 0
 353 876 373 856 373 833 c 0
 373 808 352 789 303 770 c 2
 190 725 l 1
EndSplineSet
Ligature: 0 0 'liga' I acutecomb
EndChar
StartChar: Igrave
Encoding: 278 204 172
Width: 320
Flags: W
HStem: 0 21G<21 288> 661 20G<145 412>
DStem: 205 553 305 553 128 128 228 128
Fore
294 29 m 1
 288 0 l 1
 21 0 l 1
 26 29 l 1
 43 31 l 2
 96 40 114 61 128 128 c 1
 205 553 l 2
 207 564 209 584 209 594 c 0
 209 627 191 645 155 650 c 2
 139 652 l 1
 145 681 l 1
 412 681 l 1
 407 652 l 1
 390 650 l 2
 337 641 319 620 305 553 c 1
 228 128 l 2
 226 117 224 97 224 87 c 0
 224 54 242 36 278 31 c 2
 294 29 l 1
324 725 m 1
 212 770 l 2
 161 790 142 807 142 834 c 0
 142 857 162 876 186 876 c 0
 206 876 229 861 268 822 c 2
 337 754 l 1
 324 725 l 1
EndSplineSet
Ligature: 0 0 'liga' I gravecomb
EndChar
StartChar: Icircumflex
Encoding: 279 206 173
Width: 320
Flags: W
HStem: 0 21G<21 288> 661 20G<145 412>
DStem: 205 553 305 553 128 128 228 128
Fore
294 29 m 1
 288 0 l 1
 21 0 l 1
 26 29 l 1
 43 31 l 2
 96 40 114 61 128 128 c 1
 205 553 l 2
 207 564 209 584 209 594 c 0
 209 627 191 645 155 650 c 2
 139 652 l 1
 145 681 l 1
 412 681 l 1
 407 652 l 1
 390 650 l 2
 337 641 319 620 305 553 c 1
 228 128 l 2
 226 117 224 97 224 87 c 0
 224 54 242 36 278 31 c 2
 294 29 l 1
144 754 m 1
 296 853 l 1
 419 754 l 1
 394 729 l 1
 285 774 l 1
 166 728 l 1
 144 754 l 1
EndSplineSet
Ligature: 0 0 'liga' I uni0302
EndChar
StartChar: Idotaccent
Encoding: 280 304 174
Width: 320
Flags: W
HStem: 0 21G<21 288> 661 20G<145 412> 739 120<287 310>
VStem: 239 120<791 809>
DStem: 205 553 305 553 128 128 228 128
Fore
294 29 m 1
 288 0 l 1
 21 0 l 1
 26 29 l 1
 43 31 l 2
 96 40 114 61 128 128 c 1
 205 553 l 2
 207 564 209 584 209 594 c 0
 209 627 191 645 155 650 c 2
 139 652 l 1
 145 681 l 1
 412 681 l 1
 407 652 l 1
 390 650 l 2
 337 641 319 620 305 553 c 1
 228 128 l 2
 226 117 224 97 224 87 c 0
 224 54 242 36 278 31 c 2
 294 29 l 1
310 859 m 0
 339 859 359 838 359 809 c 0
 359 772 325 739 287 739 c 0
 258 739 239 760 239 791 c 0
 239 827 272 859 310 859 c 0
EndSplineSet
Ligature: 0 0 'liga' I uni0307
EndChar
StartChar: Lacute
Encoding: 281 313 175
Width: 580
Flags: W
HStem: 0 39<292 559> 661 20G<145 419>
DStem: 208 553 308 553 131 128 233 139
Fore
656 209 m 1
 559 0 l 1
 21 0 l 1
 26 29 l 1
 43 31 l 2
 98 38 117 59 131 128 c 1
 208 553 l 1
 210 561 212 587 212 596 c 0
 212 628 195 645 155 650 c 2
 139 652 l 1
 145 681 l 1
 419 681 l 1
 413 652 l 1
 397 650 l 2
 342 643 322 622 308 553 c 1
 233 139 l 1
 227 100 226 96 226 85 c 0
 226 53 251 39 305 39 c 0
 379 39 450 64 519 115 c 0
 558 143 583 169 627 223 c 1
 656 209 l 1
320 725 m 1
 308 754 l 1
 377 822 l 2
 418 861 440 876 461 876 c 0
 483 876 503 856 503 833 c 0
 503 808 482 789 433 770 c 2
 320 725 l 1
EndSplineSet
Ligature: 0 0 'liga' L acutecomb
EndChar
StartChar: Lcaron
Encoding: 282 317 176
Width: 580
Flags: W
HStem: 0 39<292 559> 573 121<592 626>
VStem: 551 129<619 632>
DStem: 208 553 308 553 131 128 233 139
Fore
656 209 m 1
 559 0 l 1
 21 0 l 1
 26 29 l 1
 43 31 l 2
 98 38 117 59 131 128 c 1
 208 553 l 1
 210 561 212 587 212 596 c 0
 212 628 195 645 155 650 c 2
 139 652 l 1
 145 681 l 1
 419 681 l 1
 413 652 l 1
 397 650 l 2
 342 643 322 622 308 553 c 1
 233 139 l 1
 227 100 226 96 226 85 c 0
 226 53 251 39 305 39 c 0
 379 39 450 64 519 115 c 0
 558 143 583 169 627 223 c 1
 656 209 l 1
549 466 m 1
 540 484 l 1
 590 512 620 546 632 590 c 1
 618 578 606 573 592 573 c 0
 568 573 551 593 551 621 c 0
 551 661 585 694 626 694 c 0
 657 694 680 667 680 630 c 0
 680 564 626 497 549 466 c 1
EndSplineSet
Ligature: 0 0 'liga' L uni030C
EndChar
StartChar: Nacute
Encoding: 283 323 177
Width: 720
Flags: W
HStem: 0 21G<18 247 526 612> 661 20G<142 360 594 823>
DStem: 205 553 273 622 128 128 183 128 273 622 360 681 526 0 581 130 658 553 713 553 581 130 612 0
Fore
360 681 m 1
 581 130 l 1
 658 553 l 1
 659 560 661 587 661 596 c 0
 661 628 644 645 604 650 c 2
 589 652 l 1
 594 681 l 1
 823 681 l 1
 818 652 l 1
 801 650 l 2
 746 643 727 621 713 553 c 1
 612 0 l 1
 526 0 l 1
 273 622 l 1
 183 128 l 1
 181 115 179 97 179 87 c 0
 179 53 196 36 237 31 c 2
 252 29 l 1
 247 0 l 1
 18 0 l 1
 23 29 l 1
 40 31 l 2
 95 38 114 59 128 128 c 1
 205 553 l 1
 207 561 209 587 209 596 c 0
 209 628 192 645 152 650 c 2
 136 652 l 1
 142 681 l 1
 360 681 l 1
430 725 m 1
 418 754 l 1
 487 822 l 2
 528 861 550 876 571 876 c 0
 593 876 613 856 613 833 c 0
 613 808 592 789 543 770 c 2
 430 725 l 1
EndSplineSet
Ligature: 0 0 'liga' N acutecomb
EndChar
StartChar: Ncaron
Encoding: 284 327 178
Width: 720
Flags: W
HStem: 0 21G<18 247 526 612> 661 20G<142 360 594 823>
DStem: 205 553 273 622 128 128 183 128 273 622 360 681 526 0 581 130 658 553 713 553 581 130 612 0
Fore
360 681 m 1
 581 130 l 1
 658 553 l 1
 659 560 661 587 661 596 c 0
 661 628 644 645 604 650 c 2
 589 652 l 1
 594 681 l 1
 823 681 l 1
 818 652 l 1
 801 650 l 2
 746 643 727 621 713 553 c 1
 612 0 l 1
 526 0 l 1
 273 622 l 1
 183 128 l 1
 181 115 179 97 179 87 c 0
 179 53 196 36 237 31 c 2
 252 29 l 1
 247 0 l 1
 18 0 l 1
 23 29 l 1
 40 31 l 2
 95 38 114 59 128 128 c 1
 205 553 l 1
 207 561 209 587 209 596 c 0
 209 628 192 645 152 650 c 2
 136 652 l 1
 142 681 l 1
 360 681 l 1
661 828 m 1
 495 728 l 1
 358 827 l 1
 383 852 l 1
 506 807 l 1
 639 853 l 1
 661 828 l 1
EndSplineSet
Ligature: 0 0 'liga' N uni030C
EndChar
StartChar: Ntilde
Encoding: 285 209 179
Width: 720
Flags: W
HStem: 0 21G<18 247 526 612> 661 20G<142 360 594 823> 756 60<534 565> 777 60<416 445>
DStem: 205 553 273 622 128 128 183 128 273 622 360 681 526 0 581 130 658 553 713 553 581 130 612 0
Fore
360 681 m 1xc0
 581 130 l 1
 658 553 l 1
 659 560 661 587 661 596 c 0
 661 628 644 645 604 650 c 2
 589 652 l 1
 594 681 l 1
 823 681 l 1
 818 652 l 1
 801 650 l 2
 746 643 727 621 713 553 c 1
 612 0 l 1
 526 0 l 1
 273 622 l 1
 183 128 l 1
 181 115 179 97 179 87 c 0
 179 53 196 36 237 31 c 2
 252 29 l 1
 247 0 l 1
 18 0 l 1
 23 29 l 1
 40 31 l 2
 95 38 114 59 128 128 c 1
 205 553 l 1
 207 561 209 587 209 596 c 0
 209 628 192 645 152 650 c 2
 136 652 l 1
 142 681 l 1
 360 681 l 1xc0
619 839 m 1
 648 839 l 1
 623 784 584 756 534 756 c 0xe0
 518 756 515 757 480 766 c 0
 456 772 427 777 416 777 c 0
 397 777 381 771 371 761 c 1
 340 761 l 1
 361 809 400 837 445 837 c 0xd0
 462 837 472 835 528 822 c 0
 547 818 558 816 565 816 c 0xe0
 584 816 599 823 619 839 c 1
EndSplineSet
Ligature: 0 0 'liga' N tildecomb
EndChar
StartChar: Odieresis
Encoding: 286 214 180
Width: 760
Flags: W
HStem: -13 47<375 393> 647 47<487 521> 739 120<437 460 598 621>
VStem: 88 110<249 277> 389 120<791 809> 550 120<791 809> 689 110<406 441>
Fore
512 694 m 0
 681 694 799 576 799 406 c 0
 799 299 756 193 680 115 c 0
 598 31 496 -13 379 -13 c 0
 206 -13 88 105 88 277 c 0
 88 388 135 497 218 578 c 0
 294 653 399 694 512 694 c 0
501 647 m 0
 424 647 342 603 289 535 c 1
 236 464 198 347 198 249 c 0
 198 119 271 34 383 34 c 0
 468 34 552 80 607 158 c 0
 655 227 689 344 689 441 c 0
 689 564 613 647 501 647 c 0
460 859 m 0
 489 859 509 838 509 809 c 0
 509 772 475 739 437 739 c 0
 408 739 389 760 389 791 c 0
 389 827 422 859 460 859 c 0
621 859 m 0
 650 859 670 838 670 809 c 0
 670 772 636 739 598 739 c 0
 569 739 550 760 550 791 c 0
 550 827 583 859 621 859 c 0
EndSplineSet
KernsSLIF: 89 -49 0 0 88 -46 0 0 87 -36 0 0 86 -44 0 0 84 14 0 0 65 -49 0 0
Ligature: 0 0 'liga' O uni0308
EndChar
StartChar: Oacute
Encoding: 287 211 181
Width: 760
Flags: W
HStem: -13 47<375 393> 647 47<487 521>
VStem: 88 110<249 277> 689 110<406 441>
Fore
512 694 m 0
 681 694 799 576 799 406 c 0
 799 299 756 193 680 115 c 0
 598 31 496 -13 379 -13 c 0
 206 -13 88 105 88 277 c 0
 88 388 135 497 218 578 c 0
 294 653 399 694 512 694 c 0
501 647 m 0
 424 647 342 603 289 535 c 1
 236 464 198 347 198 249 c 0
 198 119 271 34 383 34 c 0
 468 34 552 80 607 158 c 0
 655 227 689 344 689 441 c 0
 689 564 613 647 501 647 c 0
475 725 m 1
 463 754 l 1
 532 822 l 2
 573 861 595 876 616 876 c 0
 638 876 658 856 658 833 c 0
 658 808 637 789 588 770 c 2
 475 725 l 1
EndSplineSet
KernsSLIF: 89 -49 0 0 87 -36 0 0 86 -44 0 0 84 14 0 0 65 -49 0 0
Ligature: 0 0 'liga' O acutecomb
EndChar
StartChar: Ograve
Encoding: 288 210 182
Width: 760
Flags: W
HStem: -13 47<375 398> 647 47<487 521>
VStem: 88 110<249 277> 689 110<406 441>
Fore
512 694 m 0
 681 694 799 576 799 406 c 0
 799 299 756 193 680 115 c 0
 598 31 496 -13 379 -13 c 0
 206 -13 88 105 88 277 c 0
 88 388 135 497 218 578 c 0
 294 653 399 694 512 694 c 0
501 647 m 0
 424 647 342 603 289 535 c 1
 236 464 198 347 198 249 c 0
 198 119 271 34 383 34 c 0
 468 34 552 80 607 158 c 0
 655 227 689 344 689 441 c 0
 689 564 613 647 501 647 c 0
578 725 m 1
 466 770 l 2
 415 790 396 807 396 834 c 0
 396 857 416 876 440 876 c 0
 460 876 483 861 522 822 c 2
 591 754 l 1
 578 725 l 1
EndSplineSet
KernsSLIF: 89 -49 0 0 86 -44 0 0 84 14 0 0
Ligature: 0 0 'liga' O gravecomb
EndChar
StartChar: Ocircumflex
Encoding: 289 212 183
Width: 760
Flags: W
HStem: -13 47<373 399> 647 47<487 521>
VStem: 88 110<249 277> 689 110<406 441>
Fore
512 694 m 0
 681 694 799 576 799 406 c 0
 799 299 756 193 680 115 c 0
 598 31 496 -13 379 -13 c 0
 206 -13 88 105 88 277 c 0
 88 388 135 497 218 578 c 0
 294 653 399 694 512 694 c 0
501 647 m 0
 424 647 342 603 289 535 c 1
 236 464 198 347 198 249 c 0
 198 119 271 34 383 34 c 0
 468 34 552 80 607 158 c 0
 655 227 689 344 689 441 c 0
 689 564 613 647 501 647 c 0
375 754 m 1
 541 853 l 1
 678 754 l 1
 653 729 l 1
 530 774 l 1
 397 728 l 1
 375 754 l 1
EndSplineSet
KernsSLIF: 89 -49 0 0 86 -44 0 0 84 14 0 0
Ligature: 0 0 'liga' O uni0302
EndChar
StartChar: Otilde
Encoding: 290 213 184
Width: 760
Flags: W
HStem: -13 47<375 393> 647 47<482 521> 756 60<573 604> 777 60<455 484>
VStem: 88 110<249 277> 689 110<406 441>
Fore
512 694 m 0xcc
 681 694 799 576 799 406 c 0
 799 299 756 193 680 115 c 0
 598 31 496 -13 379 -13 c 0
 206 -13 88 105 88 277 c 0
 88 388 135 497 218 578 c 0
 294 653 399 694 512 694 c 0xcc
501 647 m 0
 424 647 342 603 289 535 c 1
 236 464 198 347 198 249 c 0
 198 119 271 34 383 34 c 0
 468 34 552 80 607 158 c 0
 655 227 689 344 689 441 c 0
 689 564 613 647 501 647 c 0
658 839 m 1
 687 839 l 1
 662 784 623 756 573 756 c 0xec
 557 756 554 757 519 766 c 0
 495 772 466 777 455 777 c 0
 436 777 420 771 410 761 c 1
 379 761 l 1
 400 809 439 837 484 837 c 0xdc
 501 837 511 835 567 822 c 0
 586 818 597 816 604 816 c 0xec
 623 816 638 823 658 839 c 1
EndSplineSet
KernsSLIF: 89 -49 0 0 86 -44 0 0 84 14 0 0
Ligature: 0 0 'liga' O tildecomb
EndChar
StartChar: Ohungarumlaut
Encoding: 291 336 185
Width: 760
Flags: W
HStem: -13 47<375 393> 647 47<487 521>
VStem: 88 110<249 277> 689 110<406 441>
Fore
512 694 m 0
 681 694 799 576 799 406 c 0
 799 299 756 193 680 115 c 0
 598 31 496 -13 379 -13 c 0
 206 -13 88 105 88 277 c 0
 88 388 135 497 218 578 c 0
 294 653 399 694 512 694 c 0
501 647 m 0
 424 647 342 603 289 535 c 1
 236 464 198 347 198 249 c 0
 198 119 271 34 383 34 c 0
 468 34 552 80 607 158 c 0
 655 227 689 344 689 441 c 0
 689 564 613 647 501 647 c 0
440 724 m 1
 417 740 l 1
 438 818 l 1
 456 887 467 905 492 905 c 0
 513 905 532 886 532 864 c 0
 532 849 521 826 505 805 c 2
 440 724 l 1
560 724 m 1
 537 740 l 1
 558 818 l 1
 576 887 587 905 612 905 c 0
 633 905 652 886 652 864 c 0
 652 849 641 826 625 805 c 2
 560 724 l 1
EndSplineSet
Ligature: 0 0 'liga' O uni030B
EndChar
StartChar: Racute
Encoding: 292 340 186
Width: 700
Flags: W
HStem: 0 21G<21 309 567 731> 326 37<274 398> 639 42<145 486>
VStem: 624 107<527 545>
DStem: 208 553 312 571 131 128 274 363 208 553 267 326 131 128 231 128
Fore
398 326 m 1
 267 326 l 1
 231 128 l 1
 229 115 227 97 227 87 c 0
 227 53 248 34 285 31 c 2
 314 29 l 1
 309 0 l 1
 21 0 l 1
 26 29 l 1
 43 31 l 2
 98 38 117 59 131 128 c 1
 208 553 l 1
 210 561 212 586 212 596 c 0
 212 628 194 645 155 650 c 2
 139 652 l 1
 145 681 l 1
 514 681 l 2
 577 681 636 670 666 653 c 0
 707 630 731 586 731 533 c 0
 731 470 697 408 642 370 c 0
 609 347 573 335 510 326 c 1
 630 114 l 1
 662 56 674 47 736 29 c 1
 731 0 l 1
 567 0 l 1
 398 326 l 1
274 363 m 1
 399 363 l 2
 481 363 522 372 557 398 c 0
 598 429 624 481 624 531 c 0
 624 570 604 602 570 621 c 0
 548 632 505 639 454 639 c 0
 353 639 321 624 312 571 c 1
 274 363 l 1
380 725 m 1
 368 754 l 1
 437 822 l 2
 478 861 500 876 521 876 c 0
 543 876 563 856 563 833 c 0
 563 808 542 789 493 770 c 2
 380 725 l 1
EndSplineSet
Ligature: 0 0 'liga' R acutecomb
EndChar
StartChar: Rcaron
Encoding: 293 344 187
Width: 700
Flags: W
HStem: 0 21G<21 309 567 731> 326 37<274 398> 639 42<145 486>
VStem: 624 107<527 545>
DStem: 208 553 312 571 131 128 274 363 208 553 267 326 131 128 231 128
Fore
398 326 m 1
 267 326 l 1
 231 128 l 1
 229 115 227 97 227 87 c 0
 227 53 248 34 285 31 c 2
 314 29 l 1
 309 0 l 1
 21 0 l 1
 26 29 l 1
 43 31 l 2
 98 38 117 59 131 128 c 1
 208 553 l 1
 210 561 212 586 212 596 c 0
 212 628 194 645 155 650 c 2
 139 652 l 1
 145 681 l 1
 514 681 l 2
 577 681 636 670 666 653 c 0
 707 630 731 586 731 533 c 0
 731 470 697 408 642 370 c 0
 609 347 573 335 510 326 c 1
 630 114 l 1
 662 56 674 47 736 29 c 1
 731 0 l 1
 567 0 l 1
 398 326 l 1
274 363 m 1
 399 363 l 2
 481 363 522 372 557 398 c 0
 598 429 624 481 624 531 c 0
 624 570 604 602 570 621 c 0
 548 632 505 639 454 639 c 0
 353 639 321 624 312 571 c 1
 274 363 l 1
611 828 m 1
 445 728 l 1
 308 827 l 1
 333 852 l 1
 456 807 l 1
 589 853 l 1
 611 828 l 1
EndSplineSet
Ligature: 0 0 'liga' R uni030C
EndChar
StartChar: Sacute
Encoding: 294 346 188
Width: 640
Flags: W
HStem: -13 47<325 366> 486 21G<633 668> 652 42<396 430>
VStem: 136 107<491 520> 556 107<200 231>
Fore
637 681 m 1
 668 486 l 1
 633 486 l 1
 606 542 593 564 571 587 c 0
 532 628 473 652 414 652 c 0
 320 652 243 592 243 520 c 0
 243 482 268 457 325 438 c 0
 351 429 391 418 512 385 c 0
 619 356 663 311 663 231 c 0
 663 97 522 -13 350 -13 c 0
 268 -13 206 6 147 50 c 1
 119 0 l 1
 83 0 l 1
 61 247 l 1
 100 247 l 1
 138 112 229 34 349 34 c 0
 462 34 556 109 556 200 c 0
 556 231 544 251 517 267 c 0
 490 282 472 288 381 312 c 0
 288 336 254 348 216 367 c 0
 166 392 136 439 136 491 c 0
 136 605 257 694 411 694 c 0
 479 694 528 680 586 644 c 1
 605 681 l 1
 637 681 l 1
350 725 m 1
 338 754 l 1
 407 822 l 2
 448 861 470 876 491 876 c 0
 513 876 533 856 533 833 c 0
 533 808 512 789 463 770 c 2
 350 725 l 1
EndSplineSet
Ligature: 0 0 'liga' S acutecomb
EndChar
StartChar: Scaron
Encoding: 295 352 189
Width: 640
Flags: W
HStem: -13 47<325 366> 486 21G<633 668> 652 42<396 430>
VStem: 136 107<491 520> 556 107<200 231>
Fore
637 681 m 1
 668 486 l 1
 633 486 l 1
 606 542 593 564 571 587 c 0
 532 628 473 652 414 652 c 0
 320 652 243 592 243 520 c 0
 243 482 268 457 325 438 c 0
 351 429 391 418 512 385 c 0
 619 356 663 311 663 231 c 0
 663 97 522 -13 350 -13 c 0
 268 -13 206 6 147 50 c 1
 119 0 l 1
 83 0 l 1
 61 247 l 1
 100 247 l 1
 138 112 229 34 349 34 c 0
 462 34 556 109 556 200 c 0
 556 231 544 251 517 267 c 0
 490 282 472 288 381 312 c 0
 288 336 254 348 216 367 c 0
 166 392 136 439 136 491 c 0
 136 605 257 694 411 694 c 0
 479 694 528 680 586 644 c 1
 605 681 l 1
 637 681 l 1
573 828 m 1
 407 728 l 1
 270 827 l 1
 295 852 l 1
 418 807 l 1
 551 853 l 1
 573 828 l 1
EndSplineSet
Ligature: 0 0 'liga' S uni030C
EndChar
StartChar: Scedilla
Encoding: 296 350 190
Width: 640
Flags: W
HStem: -182 27<300 318> -68 25<312 325> -13 47<332 370> 486 21G<633 668> 652 42<396 430>
VStem: 136 107<491 520> 368 52<-109 -99> 556 107<200 231>
Fore
333 -13 m 1
 323 -43 l 1
 331 -43 l 1
 342 -43 l 2
 389 -43 420 -66 420 -101 c 0
 420 -146 370 -182 308 -182 c 0
 260 -182 225 -162 225 -134 c 0
 225 -119 236 -106 250 -106 c 0
 267 -106 273 -111 275 -128 c 0
 278 -145 291 -155 311 -155 c 0
 341 -155 368 -132 368 -107 c 0
 368 -84 345 -68 312 -68 c 0
 299 -68 286 -70 271 -74 c 1
 297 -10 l 1
 233 0 189 17 147 50 c 1
 119 0 l 1
 83 0 l 1
 61 247 l 1
 100 247 l 1
 138 112 229 34 349 34 c 0
 462 34 556 109 556 200 c 0
 556 231 544 251 517 267 c 0
 490 282 472 288 381 312 c 0
 288 336 254 348 216 367 c 0
 166 392 136 439 136 491 c 0
 136 605 257 694 411 694 c 0
 479 694 528 680 586 644 c 1
 605 681 l 1
 637 681 l 1
 668 486 l 1
 633 486 l 1
 606 542 593 564 571 587 c 0
 532 628 473 652 414 652 c 0
 320 652 243 592 243 520 c 0
 243 482 268 457 325 438 c 0
 351 429 391 418 512 385 c 0
 619 356 663 311 663 231 c 0
 663 98 522 -13 353 -13 c 2
 333 -13 l 1
EndSplineSet
Ligature: 0 0 'liga' S uni0327
EndChar
StartChar: Tcaron
Encoding: 297 356 191
Width: 600
Flags: W
HStem: 0 21G<141 451> 484 197<134 725> 639 42<134 515>
DStem: 354 599 453 594 269 128 369 128
Fore
700 681 m 1xc0
 725 484 l 1
 693 484 l 1xc0
 673 531 660 553 638 578 c 0
 599 620 556 639 502 639 c 0
 468 639 460 632 453 594 c 2
 369 128 l 1
 367 120 365 93 365 84 c 0
 365 53 387 34 426 31 c 2
 456 29 l 1
 451 0 l 1
 141 0 l 1
 146 29 l 1
 176 31 l 2
 234 36 255 59 269 128 c 1
 354 599 l 1
 356 605 356 610 356 617 c 0
 356 633 346 639 317 639 c 0xa0
 231 639 156 590 84 486 c 1
 50 486 l 1
 134 681 l 1
 700 681 l 1xc0
588 828 m 1
 422 728 l 1
 285 827 l 1
 310 852 l 1
 433 807 l 1
 566 853 l 1
 588 828 l 1
EndSplineSet
Ligature: 0 0 'liga' T uni030C
EndChar
StartChar: Udieresis
Encoding: 298 220 192
Width: 720
Flags: W
HStem: -13 47<356 391> 661 20G<123 397 613 842> 739 120<417 440 578 601>
VStem: 118 107<143 163> 369 120<791 809> 530 120<791 809>
DStem: 187 553 287 553 126 217 231 246 677 553 732 553 622 252 675 239
Fore
842 681 m 1
 837 652 l 1
 820 650 l 2
 765 643 746 622 732 553 c 1
 675 239 l 1
 655 132 634 88 582 48 c 0
 529 8 452 -13 356 -13 c 0
 268 -13 207 5 163 45 c 0
 135 71 118 108 118 145 c 0
 118 160 122 192 126 217 c 1
 187 553 l 1
 189 562 191 586 191 596 c 0
 191 628 174 645 134 650 c 2
 118 652 l 1
 123 681 l 1
 397 681 l 1
 392 652 l 1
 376 650 l 2
 321 643 301 622 287 553 c 1
 231 246 l 2
 228 229 225 185 225 161 c 0
 225 79 283 34 389 34 c 0
 462 34 527 57 563 96 c 0
 593 129 606 164 622 252 c 2
 677 553 l 1
 679 566 681 584 681 594 c 0
 681 629 664 645 623 650 c 2
 608 652 l 1
 613 681 l 1
 842 681 l 1
440 859 m 0
 469 859 489 838 489 809 c 0
 489 772 455 739 417 739 c 0
 388 739 369 760 369 791 c 0
 369 827 402 859 440 859 c 0
601 859 m 0
 630 859 650 838 650 809 c 0
 650 772 616 739 578 739 c 0
 549 739 530 760 530 791 c 0
 530 827 563 859 601 859 c 0
EndSplineSet
KernsSLIF: 114 -26 0 0 46 -36 0 0 112 -31 0 0 110 -26 0 0 109 -26 0 0 44 -39 0 0 98 22 0 0 65 -42 0 0
Ligature: 0 0 'liga' U uni0308
EndChar
StartChar: Uacute
Encoding: 299 218 193
Width: 720
Flags: W
HStem: -13 47<356 391> 661 20G<123 397 613 842>
VStem: 118 107<143 163>
DStem: 187 553 287 553 126 217 231 246 677 553 732 553 622 252 675 239
Fore
842 681 m 1
 837 652 l 1
 820 650 l 2
 765 643 746 622 732 553 c 1
 675 239 l 1
 655 132 634 88 582 48 c 0
 529 8 452 -13 356 -13 c 0
 268 -13 207 5 163 45 c 0
 135 71 118 108 118 145 c 0
 118 160 122 192 126 217 c 1
 187 553 l 1
 189 562 191 586 191 596 c 0
 191 628 174 645 134 650 c 2
 118 652 l 1
 123 681 l 1
 397 681 l 1
 392 652 l 1
 376 650 l 2
 321 643 301 622 287 553 c 1
 231 246 l 2
 228 229 225 185 225 161 c 0
 225 79 283 34 389 34 c 0
 462 34 527 57 563 96 c 0
 593 129 606 164 622 252 c 2
 677 553 l 1
 679 566 681 584 681 594 c 0
 681 629 664 645 623 650 c 2
 608 652 l 1
 613 681 l 1
 842 681 l 1
468 725 m 1
 456 754 l 1
 525 822 l 2
 566 861 588 876 609 876 c 0
 631 876 651 856 651 833 c 0
 651 808 630 789 581 770 c 2
 468 725 l 1
EndSplineSet
KernsSLIF: 114 -26 0 0 46 -36 0 0 112 -31 0 0 110 -26 0 0 109 -26 0 0 44 -39 0 0 65 -42 0 0
Ligature: 0 0 'liga' U acutecomb
EndChar
StartChar: Ugrave
Encoding: 300 217 194
Width: 720
Flags: W
HStem: -13 47<356 391> 661 20G<123 397 613 842>
VStem: 118 107<143 163>
DStem: 187 553 287 553 126 217 231 246 677 553 732 553 622 252 675 239
Fore
842 681 m 1
 837 652 l 1
 820 650 l 2
 765 643 746 622 732 553 c 1
 675 239 l 1
 655 132 634 88 582 48 c 0
 529 8 452 -13 356 -13 c 0
 268 -13 207 5 163 45 c 0
 135 71 118 108 118 145 c 0
 118 160 122 192 126 217 c 1
 187 553 l 1
 189 562 191 586 191 596 c 0
 191 628 174 645 134 650 c 2
 118 652 l 1
 123 681 l 1
 397 681 l 1
 392 652 l 1
 376 650 l 2
 321 643 301 622 287 553 c 1
 231 246 l 2
 228 229 225 185 225 161 c 0
 225 79 283 34 389 34 c 0
 462 34 527 57 563 96 c 0
 593 129 606 164 622 252 c 2
 677 553 l 1
 679 566 681 584 681 594 c 0
 681 629 664 645 623 650 c 2
 608 652 l 1
 613 681 l 1
 842 681 l 1
552 725 m 1
 440 770 l 2
 389 790 370 807 370 834 c 0
 370 857 390 876 414 876 c 0
 434 876 457 861 496 822 c 2
 565 754 l 1
 552 725 l 1
EndSplineSet
KernsSLIF: 65 -42 0 0
Ligature: 0 0 'liga' U gravecomb
EndChar
StartChar: Ucircumflex
Encoding: 301 219 195
Width: 720
Flags: W
HStem: -13 47<356 391> 661 20G<123 397 613 842>
VStem: 118 107<143 163>
DStem: 187 553 287 553 126 217 231 246 677 553 732 553 622 252 675 239
Fore
842 681 m 1
 837 652 l 1
 820 650 l 2
 765 643 746 622 732 553 c 1
 675 239 l 1
 655 132 634 88 582 48 c 0
 529 8 452 -13 356 -13 c 0
 268 -13 207 5 163 45 c 0
 135 71 118 108 118 145 c 0
 118 160 122 192 126 217 c 1
 187 553 l 1
 189 562 191 586 191 596 c 0
 191 628 174 645 134 650 c 2
 118 652 l 1
 123 681 l 1
 397 681 l 1
 392 652 l 1
 376 650 l 2
 321 643 301 622 287 553 c 1
 231 246 l 2
 228 229 225 185 225 161 c 0
 225 79 283 34 389 34 c 0
 462 34 527 57 563 96 c 0
 593 129 606 164 622 252 c 2
 677 553 l 1
 679 566 681 584 681 594 c 0
 681 629 664 645 623 650 c 2
 608 652 l 1
 613 681 l 1
 842 681 l 1
355 754 m 1
 521 853 l 1
 658 754 l 1
 633 729 l 1
 510 774 l 1
 377 728 l 1
 355 754 l 1
EndSplineSet
KernsSLIF: 65 -42 0 0
Ligature: 0 0 'liga' U uni0302
EndChar
StartChar: Uring
Encoding: 302 366 196
Width: 720
Flags: W
HStem: -13 47<356 391> 661 20G<123 397 613 842> 721 33<507 519> 845 33<533 542>
VStem: 118 107<143 163> 448 37<785 795> 567 37<802 815>
DStem: 187 553 287 553 126 217 231 246 677 553 732 553 622 252 675 239
Fore
842 681 m 1
 837 652 l 1
 820 650 l 2
 765 643 746 622 732 553 c 1
 675 239 l 1
 655 132 634 88 582 48 c 0
 529 8 452 -13 356 -13 c 0
 268 -13 207 5 163 45 c 0
 135 71 118 108 118 145 c 0
 118 160 122 192 126 217 c 1
 187 553 l 1
 189 562 191 586 191 596 c 0
 191 628 174 645 134 650 c 2
 118 652 l 1
 123 681 l 1
 397 681 l 1
 392 652 l 1
 376 650 l 2
 321 643 301 622 287 553 c 1
 231 246 l 2
 228 229 225 185 225 161 c 0
 225 79 283 34 389 34 c 0
 462 34 527 57 563 96 c 0
 593 129 606 164 622 252 c 2
 677 553 l 1
 679 566 681 584 681 594 c 0
 681 629 664 645 623 650 c 2
 608 652 l 1
 613 681 l 1
 842 681 l 1
540 878 m 0
 577 878 604 851 604 813 c 0
 604 765 559 721 509 721 c 0
 473 721 448 748 448 787 c 0
 448 837 490 878 540 878 c 0
535 845 m 0
 508 845 485 821 485 793 c 0
 485 769 497 754 515 754 c 0
 542 754 567 780 567 808 c 0
 567 830 554 845 535 845 c 0
EndSplineSet
Ligature: 0 0 'liga' U uni030A
EndChar
StartChar: Uhungarumlaut
Encoding: 303 368 197
Width: 720
Flags: W
HStem: -13 47<356 391> 661 20G<123 397 613 842>
VStem: 118 107<143 163>
DStem: 187 553 287 553 126 217 231 246 677 553 732 553 622 252 675 239
Fore
842 681 m 1
 837 652 l 1
 820 650 l 2
 765 643 746 622 732 553 c 1
 675 239 l 1
 655 132 634 88 582 48 c 0
 529 8 452 -13 356 -13 c 0
 268 -13 207 5 163 45 c 0
 135 71 118 108 118 145 c 0
 118 160 122 192 126 217 c 1
 187 553 l 1
 189 562 191 586 191 596 c 0
 191 628 174 645 134 650 c 2
 118 652 l 1
 123 681 l 1
 397 681 l 1
 392 652 l 1
 376 650 l 2
 321 643 301 622 287 553 c 1
 231 246 l 2
 228 229 225 185 225 161 c 0
 225 79 283 34 389 34 c 0
 462 34 527 57 563 96 c 0
 593 129 606 164 622 252 c 2
 677 553 l 1
 679 566 681 584 681 594 c 0
 681 629 664 645 623 650 c 2
 608 652 l 1
 613 681 l 1
 842 681 l 1
460 724 m 1
 437 740 l 1
 458 818 l 1
 476 887 487 905 512 905 c 0
 533 905 552 886 552 864 c 0
 552 849 541 826 525 805 c 2
 460 724 l 1
580 724 m 1
 557 740 l 1
 578 818 l 1
 596 887 607 905 632 905 c 0
 653 905 672 886 672 864 c 0
 672 849 661 826 645 805 c 2
 580 724 l 1
EndSplineSet
Ligature: 0 0 'liga' U uni030B
EndChar
StartChar: Yacute
Encoding: 304 221 198
Width: 660
Flags: W
HStem: 0 21G<160 470> 661 20G<92 362 553 809>
DStem: 170 588 290 574 316 281 399 339 316 281 419 297 288 128 388 128 596 575 624 532 399 339 419 297
Fore
809 681 m 1
 804 652 l 1
 730 642 693 617 624 532 c 1
 419 297 l 1
 388 128 l 2
 386 117 384 97 384 87 c 0
 384 52 404 34 445 31 c 2
 475 29 l 1
 470 0 l 1
 160 0 l 1
 165 29 l 1
 195 31 l 2
 253 36 274 58 288 128 c 1
 316 281 l 1
 170 588 l 1
 152 627 141 636 97 649 c 2
 87 652 l 1
 92 681 l 1
 362 681 l 1
 357 652 l 1
 346 650 l 2
 329 647 323 645 315 643 c 0
 295 636 283 621 283 603 c 0
 283 594 286 582 290 574 c 2
 399 339 l 1
 596 575 l 1
 605 587 610 598 610 609 c 0
 610 631 594 644 559 650 c 2
 547 652 l 1
 553 681 l 1
 809 681 l 1
431 725 m 1
 419 754 l 1
 488 822 l 2
 529 861 551 876 572 876 c 0
 594 876 614 856 614 833 c 0
 614 808 593 789 544 770 c 2
 431 725 l 1
EndSplineSet
Ligature: 0 0 'liga' Y acutecomb
EndChar
StartChar: Zacute
Encoding: 305 377 199
Width: 580
Flags: W
HStem: 0 44<215 557> 638 43<200 473>
DStem: 550 628 695 642 8 35 155 49
Fore
643 194 m 1
 557 0 l 1
 24 0 l 1
 8 35 l 1
 550 628 l 1
 510 636 487 638 449 638 c 0
 318 638 239 598 144 482 c 1
 114 495 l 1
 200 681 l 1
 683 681 l 1
 695 642 l 1
 155 49 l 1
 197 45 221 44 257 44 c 0
 359 44 430 59 494 95 c 0
 541 121 570 148 615 209 c 1
 643 194 l 1
400 725 m 1
 388 754 l 1
 457 822 l 2
 498 861 520 876 541 876 c 0
 563 876 583 856 583 833 c 0
 583 808 562 789 513 770 c 2
 400 725 l 1
EndSplineSet
Ligature: 0 0 'liga' Z acutecomb
EndChar
StartChar: Zcaron
Encoding: 306 381 200
Width: 580
Flags: W
HStem: 0 44<215 557> 638 43<200 473>
DStem: 550 628 695 642 8 35 155 49
Fore
643 194 m 1
 557 0 l 1
 24 0 l 1
 8 35 l 1
 550 628 l 1
 510 636 487 638 449 638 c 0
 318 638 239 598 144 482 c 1
 114 495 l 1
 200 681 l 1
 683 681 l 1
 695 642 l 1
 155 49 l 1
 197 45 221 44 257 44 c 0
 359 44 430 59 494 95 c 0
 541 121 570 148 615 209 c 1
 643 194 l 1
603 828 m 1
 437 728 l 1
 300 827 l 1
 325 852 l 1
 448 807 l 1
 581 853 l 1
 603 828 l 1
EndSplineSet
Ligature: 0 0 'liga' Z uni030C
EndChar
StartChar: Zdotaccent
Encoding: 307 379 201
Width: 580
Flags: W
HStem: 0 44<215 557> 638 43<200 482> 739 120<457 480>
VStem: 409 120<791 809>
DStem: 550 628 695 642 8 35 155 49
Fore
643 194 m 1
 557 0 l 1
 24 0 l 1
 8 35 l 1
 550 628 l 1
 510 636 487 638 449 638 c 0
 318 638 239 598 144 482 c 1
 114 495 l 1
 200 681 l 1
 683 681 l 1
 695 642 l 1
 155 49 l 1
 197 45 221 44 257 44 c 0
 359 44 430 59 494 95 c 0
 541 121 570 148 615 209 c 1
 643 194 l 1
480 859 m 0
 509 859 529 838 529 809 c 0
 529 772 495 739 457 739 c 0
 428 739 409 760 409 791 c 0
 409 827 442 859 480 859 c 0
EndSplineSet
Ligature: 0 0 'liga' Z uni0307
EndChar
StartChar: Amacron
Encoding: 308 256 202
Width: 700
Flags: W
HStem: 0 21G<-25 237 444 715> 253 40<269 502> 661 20G<422 518> 768 57<346 615>
DStem: 422 681 434 598 137 175 269 293 422 681 246 253 137 175 193 157 434 598 518 681 497 293 624 156 502 253 518 681 524 136 624 156
Fore
518 681 m 1
 624 156 l 1
 645 57 654 44 708 31 c 2
 720 29 l 1
 715 0 l 1
 444 0 l 1
 449 29 l 1
 461 31 l 2
 510 39 531 57 531 89 c 0
 531 98 529 114 524 136 c 1
 502 253 l 1
 246 253 l 1
 193 157 l 1
 175 123 167 100 167 80 c 0
 167 53 187 38 230 31 c 2
 242 29 l 1
 237 0 l 1
 -25 0 l 1
 -20 29 l 1
 -7 31 l 2
 55 46 73 64 137 175 c 1
 422 681 l 1
 518 681 l 1
497 293 m 1
 434 598 l 1
 269 293 l 1
 497 293 l 1
347 825 m 1
 634 825 l 1
 615 768 l 1
 328 768 l 1
 347 825 l 1
EndSplineSet
Ligature: 0 0 'liga' A uni0304
EndChar
StartChar: Tcommaaccent
Encoding: 309 354 203
Width: 600
Flags: W
HStem: -174 121<251 285> 0 21G<141 451> 484 197<134 725> 639 42<134 515>
VStem: 210 129<-128 -115>
DStem: 354 599 453 594 269 128 369 128
Fore
700 681 m 1xe8
 725 484 l 1
 693 484 l 1xe8
 673 531 660 553 638 578 c 0
 599 620 556 639 502 639 c 0
 468 639 460 632 453 594 c 2
 369 128 l 1
 367 120 365 93 365 84 c 0
 365 53 387 34 426 31 c 2
 456 29 l 1
 451 0 l 1
 141 0 l 1
 146 29 l 1
 176 31 l 2
 234 36 255 59 269 128 c 1
 354 599 l 1
 356 605 356 610 356 617 c 0
 356 633 346 639 317 639 c 0xd8
 231 639 156 590 84 486 c 1
 50 486 l 1
 134 681 l 1
 700 681 l 1xe8
208 -281 m 1
 199 -263 l 1
 249 -235 279 -201 291 -157 c 1
 277 -169 265 -174 251 -174 c 0
 227 -174 210 -154 210 -126 c 0
 210 -86 244 -53 285 -53 c 0
 316 -53 339 -80 339 -117 c 0
 339 -183 285 -251 208 -281 c 1
EndSplineSet
Ligature: 0 0 'liga' T uni0327
EndChar
StartChar: Ydieresis
Encoding: 310 376 204
Width: 660
Flags: W
HStem: 0 21G<160 470> 661 20G<92 362 553 809> 739 120<383 406 544 567>
VStem: 335 120<791 809> 496 120<791 809>
DStem: 170 588 290 574 316 281 399 339 316 281 419 297 288 128 388 128 596 575 624 532 399 339 419 297
Fore
809 681 m 1
 804 652 l 1
 730 642 693 617 624 532 c 1
 419 297 l 1
 388 128 l 2
 386 117 384 97 384 87 c 0
 384 52 404 34 445 31 c 2
 475 29 l 1
 470 0 l 1
 160 0 l 1
 165 29 l 1
 195 31 l 2
 253 36 274 58 288 128 c 1
 316 281 l 1
 170 588 l 1
 152 627 141 636 97 649 c 2
 87 652 l 1
 92 681 l 1
 362 681 l 1
 357 652 l 1
 346 650 l 2
 329 647 323 645 315 643 c 0
 295 636 283 621 283 603 c 0
 283 594 286 582 290 574 c 2
 399 339 l 1
 596 575 l 1
 605 587 610 598 610 609 c 0
 610 631 594 644 559 650 c 2
 547 652 l 1
 553 681 l 1
 809 681 l 1
406 859 m 0
 435 859 455 838 455 809 c 0
 455 772 421 739 383 739 c 0
 354 739 335 760 335 791 c 0
 335 827 368 859 406 859 c 0
567 859 m 0
 596 859 616 838 616 809 c 0
 616 772 582 739 544 739 c 0
 515 739 496 760 496 791 c 0
 496 827 529 859 567 859 c 0
EndSplineSet
Ligature: 0 0 'liga' Y uni0308
EndChar
StartChar: Emacron
Encoding: 311 274 205
Width: 680
Flags: W
HStem: 0 43<308 608> 336 44<277 358> 481 20G<489 521> 638 43<145 454> 768 57<336 605>
DStem: 208 553 310 560 131 128 277 380 208 553 269 336 131 128 229 115
Fore
698 681 m 1
 736 484 l 1
 694 474 l 1
 665 532 644 559 613 584 c 0
 564 622 511 638 436 638 c 0
 387 638 354 631 336 616 c 0
 321 605 315 592 310 560 c 1
 277 380 l 1
 354 380 l 2
 430 380 460 407 489 501 c 1
 521 501 l 1
 469 214 l 1
 437 214 l 1
 438 228 438 233 438 240 c 0
 438 301 407 336 352 336 c 2
 269 336 l 1
 229 115 l 1
 228 108 227 103 227 97 c 0
 227 59 258 43 330 43 c 0
 408 43 489 67 553 109 c 0
 596 137 628 166 675 218 c 1
 707 205 l 1
 608 0 l 1
 21 0 l 1
 26 29 l 1
 43 31 l 2
 98 38 117 60 131 128 c 1
 208 553 l 1
 210 561 212 587 212 596 c 0
 212 628 195 645 155 650 c 2
 139 652 l 1
 145 681 l 1
 698 681 l 1
337 825 m 1
 624 825 l 1
 605 768 l 1
 318 768 l 1
 337 825 l 1
EndSplineSet
Ligature: 0 0 'liga' E uni0304
EndChar
StartChar: Imacron
Encoding: 312 298 206
Width: 320
Flags: W
HStem: 0 21G<21 288> 661 20G<145 412> 768 57<166 435>
DStem: 205 553 305 553 128 128 228 128
Fore
294 29 m 1
 288 0 l 1
 21 0 l 1
 26 29 l 1
 43 31 l 2
 96 40 114 61 128 128 c 1
 205 553 l 2
 207 564 209 584 209 594 c 0
 209 627 191 645 155 650 c 2
 139 652 l 1
 145 681 l 1
 412 681 l 1
 407 652 l 1
 390 650 l 2
 337 641 319 620 305 553 c 1
 228 128 l 2
 226 117 224 97 224 87 c 0
 224 54 242 36 278 31 c 2
 294 29 l 1
167 825 m 1
 454 825 l 1
 435 768 l 1
 148 768 l 1
 167 825 l 1
EndSplineSet
Ligature: 0 0 'liga' I uni0304
EndChar
StartChar: Iogonek
Encoding: 313 302 207
Width: 320
Flags: W
HStem: -169 33<242 255> -20 20G<21 245> 661 20G<145 412>
VStem: 155 52<-100 -88>
DStem: 205 553 305 553 128 128 228 128
Fore
145 681 m 1
 412 681 l 1
 407 652 l 1
 390 650 l 2
 337 641 319 620 305 553 c 1
 228 128 l 2
 226 117 224 97 224 87 c 0
 224 54 242 36 278 31 c 2
 294 29 l 1
 288 0 l 1
 285 -3 280 -6 276 -9 c 0
 221 -52 207 -69 207 -96 c 0
 207 -118 227 -136 253 -136 c 0
 262 -136 268 -135 281 -130 c 1
 274 -166 l 1
 261 -168 253 -169 243 -169 c 0
 190 -169 155 -141 155 -98 c 0
 155 -58 175 -36 245 0 c 1
 21 0 l 1
 26 29 l 1
 43 31 l 2
 96 40 114 61 128 128 c 1
 205 553 l 2
 207 564 209 584 209 594 c 0
 209 627 191 645 155 650 c 2
 139 652 l 1
 145 681 l 1
EndSplineSet
Ligature: 0 0 'liga' I uni0328
EndChar
StartChar: Kcommaaccent
Encoding: 314 310 208
Width: 720
Flags: W
HStem: -174 121<311 345> 0 21G<21 303 459 749> 661 20G<145 426 532 804>
VStem: 270 129<-128 -115>
DStem: 208 553 308 553 131 128 269 336 208 553 258 277 131 128 231 128 381 371 459 430 534 98 636 127 562 568 621 552 269 336 459 430 562 568 381 371 269 336 258 277
Fore
804 681 m 1
 799 652 l 1
 746 639 689 607 621 552 c 1
 459 430 l 1
 636 127 l 1
 673 62 695 44 755 29 c 1
 749 0 l 1
 459 0 l 1
 464 29 l 1
 480 31 l 2
 525 37 543 47 543 68 c 0
 543 76 539 88 534 98 c 1
 381 371 l 1
 258 277 l 1
 231 128 l 1
 229 115 227 97 227 87 c 0
 227 53 247 34 285 31 c 2
 308 29 l 1
 303 0 l 1
 21 0 l 1
 26 29 l 1
 43 31 l 2
 98 38 117 59 131 128 c 1
 208 553 l 1
 210 561 212 586 212 596 c 0
 212 628 195 645 155 650 c 2
 139 652 l 1
 145 681 l 1
 426 681 l 1
 421 652 l 1
 397 650 l 2
 342 643 322 621 308 553 c 1
 269 336 l 1
 562 568 l 2
 580 583 589 598 589 613 c 0
 589 634 575 644 539 650 c 2
 527 652 l 1
 532 681 l 1
 804 681 l 1
268 -281 m 1
 259 -263 l 1
 309 -235 339 -201 351 -157 c 1
 337 -169 325 -174 311 -174 c 0
 287 -174 270 -154 270 -126 c 0
 270 -86 304 -53 345 -53 c 0
 376 -53 399 -80 399 -117 c 0
 399 -183 345 -251 268 -281 c 1
EndSplineSet
Ligature: 0 0 'liga' K uni0327
EndChar
StartChar: Lcommaaccent
Encoding: 315 315 209
Width: 580
Flags: W
HStem: -174 121<241 275> 0 39<282 559> 661 20G<145 419>
VStem: 200 129<-128 -115>
DStem: 208 553 308 553 131 128 233 139
Fore
656 209 m 1
 559 0 l 1
 21 0 l 1
 26 29 l 1
 43 31 l 2
 98 38 117 59 131 128 c 1
 208 553 l 1
 210 561 212 587 212 596 c 0
 212 628 195 645 155 650 c 2
 139 652 l 1
 145 681 l 1
 419 681 l 1
 413 652 l 1
 397 650 l 2
 342 643 322 622 308 553 c 1
 233 139 l 1
 227 100 226 96 226 85 c 0
 226 53 251 39 305 39 c 0
 379 39 450 64 519 115 c 0
 558 143 583 169 627 223 c 1
 656 209 l 1
198 -281 m 1
 189 -263 l 1
 239 -235 269 -201 281 -157 c 1
 267 -169 255 -174 241 -174 c 0
 217 -174 200 -154 200 -126 c 0
 200 -86 234 -53 275 -53 c 0
 306 -53 329 -80 329 -117 c 0
 329 -183 275 -251 198 -281 c 1
EndSplineSet
Ligature: 0 0 'liga' L uni0327
EndChar
StartChar: Ncommaaccent
Encoding: 316 325 210
Width: 720
Flags: W
HStem: -174 121<311 345> 0 21G<18 247 526 612> 661 20G<142 360 594 823>
VStem: 270 129<-128 -115>
DStem: 205 553 273 622 128 128 183 128 273 622 360 681 526 0 581 130 658 553 713 553 581 130 612 0
Fore
360 681 m 1
 581 130 l 1
 658 553 l 1
 659 560 661 587 661 596 c 0
 661 628 644 645 604 650 c 2
 589 652 l 1
 594 681 l 1
 823 681 l 1
 818 652 l 1
 801 650 l 2
 746 643 727 621 713 553 c 1
 612 0 l 1
 526 0 l 1
 273 622 l 1
 183 128 l 1
 181 115 179 97 179 87 c 0
 179 53 196 36 237 31 c 2
 252 29 l 1
 247 0 l 1
 18 0 l 1
 23 29 l 1
 40 31 l 2
 95 38 114 59 128 128 c 1
 205 553 l 1
 207 561 209 587 209 596 c 0
 209 628 192 645 152 650 c 2
 136 652 l 1
 142 681 l 1
 360 681 l 1
268 -281 m 1
 259 -263 l 1
 309 -235 339 -201 351 -157 c 1
 337 -169 325 -174 311 -174 c 0
 287 -174 270 -154 270 -126 c 0
 270 -86 304 -53 345 -53 c 0
 376 -53 399 -80 399 -117 c 0
 399 -183 345 -251 268 -281 c 1
EndSplineSet
Ligature: 0 0 'liga' N uni0327
EndChar
StartChar: Omacron
Encoding: 317 332 211
Width: 760
Flags: W
HStem: -13 47<375 399> 647 47<487 521> 768 57<396 665>
VStem: 88 110<249 277> 689 110<406 441>
Fore
512 694 m 0
 681 694 799 576 799 406 c 0
 799 299 756 193 680 115 c 0
 598 31 496 -13 379 -13 c 0
 206 -13 88 105 88 277 c 0
 88 388 135 497 218 578 c 0
 294 653 399 694 512 694 c 0
501 647 m 0
 424 647 342 603 289 535 c 1
 236 464 198 347 198 249 c 0
 198 119 271 34 383 34 c 0
 468 34 552 80 607 158 c 0
 655 227 689 344 689 441 c 0
 689 564 613 647 501 647 c 0
397 825 m 1
 684 825 l 1
 665 768 l 1
 378 768 l 1
 397 825 l 1
EndSplineSet
Ligature: 0 0 'liga' O uni0304
EndChar
StartChar: Rcommaaccent
Encoding: 318 342 212
Width: 700
Flags: W
HStem: -174 121<301 335> 0 21G<21 309 567 731> 326 37<274 398> 639 42<145 486>
VStem: 260 129<-128 -115> 624 107<518 535>
DStem: 208 553 312 571 131 128 274 363 208 553 267 326 131 128 231 128
Fore
398 326 m 1
 267 326 l 1
 231 128 l 1
 229 115 227 97 227 87 c 0
 227 53 248 34 285 31 c 2
 314 29 l 1
 309 0 l 1
 21 0 l 1
 26 29 l 1
 43 31 l 2
 98 38 117 59 131 128 c 1
 208 553 l 1
 210 561 212 586 212 596 c 0
 212 628 194 645 155 650 c 2
 139 652 l 1
 145 681 l 1
 514 681 l 2
 577 681 636 670 666 653 c 0
 707 630 731 586 731 533 c 0
 731 470 697 408 642 370 c 0
 609 347 573 335 510 326 c 1
 630 114 l 1
 662 56 674 47 736 29 c 1
 731 0 l 1
 567 0 l 1
 398 326 l 1
274 363 m 1
 399 363 l 2
 481 363 522 372 557 398 c 0
 598 429 624 481 624 531 c 0
 624 570 604 602 570 621 c 0
 548 632 505 639 454 639 c 0
 353 639 321 624 312 571 c 1
 274 363 l 1
258 -281 m 1
 249 -263 l 1
 299 -235 329 -201 341 -157 c 1
 327 -169 315 -174 301 -174 c 0
 277 -174 260 -154 260 -126 c 0
 260 -86 294 -53 335 -53 c 0
 366 -53 389 -80 389 -117 c 0
 389 -183 335 -251 258 -281 c 1
EndSplineSet
Ligature: 0 0 'liga' R uni0327
EndChar
StartChar: Gcommaaccent
Encoding: 319 290 213
Width: 760
Flags: W
HStem: -174 121<331 365> -13 47<362 390> 647 47<471 489>
VStem: 88 107<256 280> 290 129<-128 -115>
Fore
541 324 m 1
 813 324 l 1
 808 295 l 1
 794 293 l 2
 745 286 718 255 710 196 c 1
 674 0 l 1
 620 0 l 1
 604 74 l 1
 546 20 454 -13 362 -13 c 0
 200 -13 88 105 88 275 c 0
 88 505 262 694 474 694 c 0
 549 694 619 671 660 633 c 1
 685 681 l 1
 715 681 l 1
 736 467 l 1
 705 467 l 1
 642 590 571 647 479 647 c 0
 397 647 324 601 270 515 c 0
 222 439 195 347 195 258 c 0
 195 196 209 146 235 110 c 0
 269 62 326 34 388 34 c 0
 514 34 614 120 614 227 c 0
 614 266 595 284 547 293 c 2
 536 295 l 1
 541 324 l 1
288 -281 m 1
 279 -263 l 1
 329 -235 359 -201 371 -157 c 1
 357 -169 345 -174 331 -174 c 0
 307 -174 290 -154 290 -126 c 0
 290 -86 324 -53 365 -53 c 0
 396 -53 419 -80 419 -117 c 0
 419 -183 365 -251 288 -281 c 1
EndSplineSet
Ligature: 0 0 'liga' G uni0327
EndChar
StartChar: Umacron
Encoding: 320 362 214
Width: 720
Flags: W
HStem: -13 47<356 391> 661 20G<123 397 613 842> 768 57<376 645>
VStem: 118 107<143 163>
DStem: 187 553 287 553 126 217 231 246 677 553 732 553 622 252 675 239
Fore
842 681 m 1
 837 652 l 1
 820 650 l 2
 765 643 746 622 732 553 c 1
 675 239 l 1
 655 132 634 88 582 48 c 0
 529 8 452 -13 356 -13 c 0
 268 -13 207 5 163 45 c 0
 135 71 118 108 118 145 c 0
 118 160 122 192 126 217 c 1
 187 553 l 1
 189 562 191 586 191 596 c 0
 191 628 174 645 134 650 c 2
 118 652 l 1
 123 681 l 1
 397 681 l 1
 392 652 l 1
 376 650 l 2
 321 643 301 622 287 553 c 1
 231 246 l 2
 228 229 225 185 225 161 c 0
 225 79 283 34 389 34 c 0
 462 34 527 57 563 96 c 0
 593 129 606 164 622 252 c 2
 677 553 l 1
 679 566 681 584 681 594 c 0
 681 629 664 645 623 650 c 2
 608 652 l 1
 613 681 l 1
 842 681 l 1
377 825 m 1
 664 825 l 1
 645 768 l 1
 358 768 l 1
 377 825 l 1
EndSplineSet
Ligature: 0 0 'liga' U uni0304
EndChar
StartChar: Uogonek
Encoding: 321 370 215
Width: 720
Flags: W
HStem: -169 33<468 481> -13 47<353 391> 661 20G<123 397 613 842>
VStem: 118 107<143 163> 381 52<-100 -88>
DStem: 187 553 287 553 126 217 231 246 677 553 732 553 622 252 675 239
Fore
613 681 m 1
 842 681 l 1
 837 652 l 1
 820 650 l 2
 765 643 746 622 732 553 c 1
 675 239 l 2
 652 113 631 79 542 19 c 0
 459 -38 433 -65 433 -96 c 0
 433 -118 453 -136 479 -136 c 0
 487 -136 494 -135 506 -130 c 1
 500 -166 l 1
 486 -168 479 -169 469 -169 c 0
 416 -169 381 -141 381 -98 c 0
 381 -59 401 -36 467 -2 c 1
 428 -10 394 -13 353 -13 c 0
 268 -13 207 6 163 45 c 0
 135 71 118 108 118 145 c 0
 118 160 122 191 126 217 c 1
 187 553 l 1
 189 562 191 586 191 596 c 0
 191 628 174 645 134 650 c 2
 118 652 l 1
 123 681 l 1
 397 681 l 1
 392 652 l 1
 376 650 l 2
 321 643 301 622 287 553 c 1
 231 246 l 2
 228 229 225 185 225 161 c 0
 225 79 283 34 389 34 c 0
 462 34 527 57 563 96 c 0
 593 129 606 164 622 252 c 2
 677 553 l 1
 679 566 681 584 681 594 c 0
 681 629 664 645 623 650 c 2
 608 652 l 1
 613 681 l 1
EndSplineSet
Ligature: 0 0 'liga' U uni0328
EndChar
StartChar: adieresis
Encoding: 322 228 216
Width: 620
Flags: W
HStem: -9 47<243 263> 448 47<359 381> 552 120<322 345 484 507>
VStem: 71 97<151 176> 274 120<604 622> 436 120<604 622> 444 95<94 112>
Fore
605 486 m 1xfa
 546 160 l 1
 541 134 539 117 539 105 c 0
 539 75 563 51 592 51 c 0
 616 51 644 66 664 90 c 1
 686 69 l 1
 656 25 592 -9 540 -9 c 0
 513 -9 486 3 471 21 c 0
 456 40 444 73 444 96 c 0
 444 99 444 105 445 112 c 1
 384 29 321 -9 243 -9 c 0
 140 -9 71 65 71 176 c 0
 71 347 204 495 359 495 c 0
 417 495 470 473 504 435 c 1
 513 486 l 1
 605 486 l 1xfa
496 393 m 1
 460 433 428 448 381 448 c 0
 320 448 265 413 223 347 c 0
 191 296 168 215 168 151 c 0
 168 84 205 38 261 38 c 0
 315 38 378 78 415 137 c 0
 451 194 470 252 496 393 c 1
345 672 m 0
 373 672 394 651 394 622 c 0
 394 585 360 552 322 552 c 0
 293 552 274 573 274 604 c 0
 274 640 308 672 345 672 c 0
507 672 m 0
 535 672 556 651 556 622 c 0
 556 585 522 552 484 552 c 0
 455 552 436 573 436 604 c 0xfc
 436 640 470 672 507 672 c 0
EndSplineSet
KernsSLIF: 121 -7 0 0 119 -6 0 0 118 -7 0 0
Ligature: 0 0 'liga' a uni0308
EndChar
StartChar: aacute
Encoding: 323 225 217
Width: 620
Flags: W
HStem: -9 47<243 263> 448 47<359 381> 669 20G<483.5 505>
VStem: 71 97<151 176> 444 95<94 112>
Fore
605 486 m 1
 546 160 l 1
 541 134 539 117 539 105 c 0
 539 75 563 51 592 51 c 0
 616 51 644 66 664 90 c 1
 686 69 l 1
 656 25 592 -9 540 -9 c 0
 513 -9 486 3 471 21 c 0
 456 40 444 73 444 96 c 0
 444 99 444 105 445 112 c 1
 384 29 321 -9 243 -9 c 0
 140 -9 71 65 71 176 c 0
 71 347 204 495 359 495 c 0
 417 495 470 473 504 435 c 1
 513 486 l 1
 605 486 l 1
496 393 m 1
 460 433 428 448 381 448 c 0
 320 448 265 413 223 347 c 0
 191 296 168 215 168 151 c 0
 168 84 205 38 261 38 c 0
 315 38 378 78 415 137 c 0
 451 194 470 252 496 393 c 1
353 538 m 1
 341 567 l 1
 410 635 l 2
 451 674 473 689 494 689 c 0
 516 689 536 669 536 646 c 0
 536 621 515 602 466 583 c 2
 353 538 l 1
EndSplineSet
KernsSLIF: 121 -7 0 0 119 -6 0 0 118 -7 0 0
Ligature: 0 0 'liga' a acutecomb
EndChar
StartChar: agrave
Encoding: 324 224 218
Width: 620
Flags: W
HStem: -9 47<243 265> 448 47<359 381> 669 20G<296 318>
VStem: 71 97<151 176> 444 95<94 112>
Fore
605 486 m 1
 546 160 l 1
 541 134 539 117 539 105 c 0
 539 75 563 51 592 51 c 0
 616 51 644 66 664 90 c 1
 686 69 l 1
 656 25 592 -9 540 -9 c 0
 513 -9 486 3 471 21 c 0
 456 40 444 73 444 96 c 0
 444 99 444 105 445 112 c 1
 384 29 321 -9 243 -9 c 0
 140 -9 71 65 71 176 c 0
 71 347 204 495 359 495 c 0
 417 495 470 473 504 435 c 1
 513 486 l 1
 605 486 l 1
496 393 m 1
 460 433 428 448 381 448 c 0
 320 448 265 413 223 347 c 0
 191 296 168 215 168 151 c 0
 168 84 205 38 261 38 c 0
 315 38 378 78 415 137 c 0
 451 194 470 252 496 393 c 1
446 538 m 1
 334 583 l 2
 283 603 264 620 264 647 c 0
 264 670 284 689 308 689 c 0
 328 689 351 674 390 635 c 2
 459 567 l 1
 446 538 l 1
EndSplineSet
KernsSLIF: 121 -7 0 0 119 -6 0 0 118 -7 0 0
Ligature: 0 0 'liga' a gravecomb
EndChar
StartChar: acircumflex
Encoding: 325 226 219
Width: 620
Flags: W
HStem: -9 47<243 265> 448 47<359 381>
VStem: 71 97<151 176> 444 95<94 112>
Fore
605 486 m 1
 546 160 l 1
 541 134 539 117 539 105 c 0
 539 75 563 51 592 51 c 0
 616 51 644 66 664 90 c 1
 686 69 l 1
 656 25 592 -9 540 -9 c 0
 513 -9 486 3 471 21 c 0
 456 40 444 73 444 96 c 0
 444 99 444 105 445 112 c 1
 384 29 321 -9 243 -9 c 0
 140 -9 71 65 71 176 c 0
 71 347 204 495 359 495 c 0
 417 495 470 473 504 435 c 1
 513 486 l 1
 605 486 l 1
496 393 m 1
 460 433 428 448 381 448 c 0
 320 448 265 413 223 347 c 0
 191 296 168 215 168 151 c 0
 168 84 205 38 261 38 c 0
 315 38 378 78 415 137 c 0
 451 194 470 252 496 393 c 1
243 567 m 1
 409 666 l 1
 546 567 l 1
 521 542 l 1
 398 587 l 1
 265 541 l 1
 243 567 l 1
EndSplineSet
Ligature: 0 0 'liga' a uni0302
EndChar
StartChar: abreve
Encoding: 326 259 220
Width: 620
Flags: W
HStem: -9 47<243 263> 448 47<359 381> 553 67<413 448>
VStem: 71 97<151 176> 444 95<94 112>
Fore
605 486 m 1
 546 160 l 1
 541 134 539 117 539 105 c 0
 539 75 563 51 592 51 c 0
 616 51 644 66 664 90 c 1
 686 69 l 1
 656 25 592 -9 540 -9 c 0
 513 -9 486 3 471 21 c 0
 456 40 444 73 444 96 c 0
 444 99 444 105 445 112 c 1
 384 29 321 -9 243 -9 c 0
 140 -9 71 65 71 176 c 0
 71 347 204 495 359 495 c 0
 417 495 470 473 504 435 c 1
 513 486 l 1
 605 486 l 1
496 393 m 1
 460 433 428 448 381 448 c 0
 320 448 265 413 223 347 c 0
 191 296 168 215 168 151 c 0
 168 84 205 38 261 38 c 0
 315 38 378 78 415 137 c 0
 451 194 470 252 496 393 c 1
281 649 m 1
 305 661 l 1
 331 633 371 620 434 620 c 0
 493 620 537 633 568 660 c 1
 590 650 l 1
 553 581 507 553 431 553 c 0
 361 553 310 585 281 649 c 1
EndSplineSet
Ligature: 0 0 'liga' a uni0306
EndChar
StartChar: atilde
Encoding: 327 227 221
Width: 620
Flags: W
HStem: -9 47<243 265> 448 47<359 381> 569 60<458 489> 590 60<340 369>
VStem: 71 97<151 176> 444 95<94 112>
Fore
605 486 m 1xcc
 546 160 l 1
 541 134 539 117 539 105 c 0
 539 75 563 51 592 51 c 0
 616 51 644 66 664 90 c 1
 686 69 l 1
 656 25 592 -9 540 -9 c 0
 513 -9 486 3 471 21 c 0
 456 40 444 73 444 96 c 0
 444 99 444 105 445 112 c 1
 384 29 321 -9 243 -9 c 0
 140 -9 71 65 71 176 c 0
 71 347 204 495 359 495 c 0
 417 495 470 473 504 435 c 1
 513 486 l 1
 605 486 l 1xcc
496 393 m 1
 460 433 428 448 381 448 c 0
 320 448 265 413 223 347 c 0
 191 296 168 215 168 151 c 0
 168 84 205 38 261 38 c 0
 315 38 378 78 415 137 c 0
 451 194 470 252 496 393 c 1
543 652 m 1
 572 652 l 1
 547 597 508 569 458 569 c 0xec
 442 569 439 570 404 579 c 0
 380 585 351 590 340 590 c 0
 321 590 305 584 295 574 c 1
 264 574 l 1
 285 622 324 650 369 650 c 0xdc
 386 650 396 648 452 635 c 0
 471 631 482 629 489 629 c 0xec
 508 629 523 636 543 652 c 1
EndSplineSet
Ligature: 0 0 'liga' a tildecomb
EndChar
StartChar: aring
Encoding: 328 229 222
Width: 620
Flags: W
HStem: -9 47<243 263> 448 47<359 381> 534 33<396 408> 658 33<415 431>
VStem: 71 97<151 176> 337 37<598 608> 444 95<94 112> 456 37<614 632>
Fore
605 486 m 1xfe
 546 160 l 1
 541 134 539 117 539 105 c 0
 539 75 563 51 592 51 c 0
 616 51 644 66 664 90 c 1
 686 69 l 1
 656 25 592 -9 540 -9 c 0
 513 -9 486 3 471 21 c 0
 456 40 444 73 444 96 c 0
 444 99 444 105 445 112 c 1
 384 29 321 -9 243 -9 c 0
 140 -9 71 65 71 176 c 0
 71 347 204 495 359 495 c 0
 417 495 470 473 504 435 c 1
 513 486 l 1
 605 486 l 1xfe
496 393 m 1
 460 433 428 448 381 448 c 0
 320 448 265 413 223 347 c 0
 191 296 168 215 168 151 c 0
 168 84 205 38 261 38 c 0
 315 38 378 78 415 137 c 0
 451 194 470 252 496 393 c 1
429 691 m 0
 466 691 493 664 493 626 c 0xfd
 493 578 448 534 398 534 c 0
 362 534 337 561 337 600 c 0
 337 650 379 691 429 691 c 0
424 658 m 0
 397 658 374 634 374 606 c 0
 374 582 386 567 404 567 c 0
 431 567 456 593 456 621 c 0
 456 643 443 658 424 658 c 0
EndSplineSet
KernsSLIF: 121 -7 0 0 119 -6 0 0 118 -7 0 0
Ligature: 0 0 'liga' a uni030A
EndChar
StartChar: aogonek
Encoding: 329 261 223
Width: 620
Flags: W
HStem: -169 33<558 571> -9 47<243 263> 448 47<359 381>
VStem: 71 97<151 176> 444 95<94 112> 471 52<-100 -88>
Fore
664 90 m 1xf8
 686 69 l 1
 677 55 663 42 635 22 c 0
 541 -45 523 -64 523 -96 c 0
 523 -118 543 -136 569 -136 c 0
 577 -136 584 -135 596 -130 c 1
 590 -166 l 1
 576 -168 569 -169 559 -169 c 0
 506 -169 471 -141 471 -98 c 0xf4
 471 -61 489 -39 544 -9 c 1
 515 -8 500 -3 482 10 c 1
 462 27 444 66 444 96 c 0
 444 99 444 105 445 112 c 1
 384 29 321 -9 243 -9 c 0
 140 -9 71 65 71 176 c 0
 71 347 204 495 359 495 c 0
 417 495 470 473 504 435 c 1
 513 486 l 1
 605 486 l 1
 546 160 l 1
 541 134 539 117 539 105 c 0
 539 75 563 51 592 51 c 0
 616 51 644 66 664 90 c 1xf8
496 393 m 1
 460 433 428 448 381 448 c 0
 320 448 265 413 223 347 c 0
 191 296 168 215 168 151 c 0
 168 84 205 38 261 38 c 0
 315 38 378 78 415 137 c 0
 451 194 470 252 496 393 c 1
EndSplineSet
Ligature: 0 0 'liga' a uni0328
EndChar
StartChar: cacute
Encoding: 330 263 224
Width: 480
Flags: W
HStem: -9 47<266 295> 458 37<348 368> 669 20G<480.5 502>
VStem: 65 102<174 192> 426 96<360 387>
Fore
472 119 m 1
 494 94 l 1
 441 33 347 -9 266 -9 c 0
 147 -9 65 72 65 190 c 0
 65 351 208 495 368 495 c 0
 455 495 522 448 522 387 c 0
 522 352 498 326 464 326 c 0
 442 326 426 340 426 360 c 0
 426 363 427 369 428 376 c 0
 429 382 429 387 429 391 c 0
 429 430 398 458 354 458 c 0
 312 458 268 431 234 384 c 0
 195 332 167 243 167 176 c 0
 167 95 219 38 295 38 c 0
 349 38 406 64 472 119 c 1
350 538 m 1
 338 567 l 1
 407 635 l 2
 448 674 470 689 491 689 c 0
 513 689 533 669 533 646 c 0
 533 621 512 602 463 583 c 2
 350 538 l 1
EndSplineSet
Ligature: 0 0 'liga' c acutecomb
EndChar
StartChar: ccaron
Encoding: 331 269 225
Width: 480
Flags: W
HStem: -9 47<266 295> 458 37<352 368>
VStem: 65 102<174 192> 426 96<360 387>
Fore
472 119 m 1
 494 94 l 1
 441 33 347 -9 266 -9 c 0
 147 -9 65 72 65 190 c 0
 65 351 208 495 368 495 c 0
 455 495 522 448 522 387 c 0
 522 352 498 326 464 326 c 0
 442 326 426 340 426 360 c 0
 426 363 427 369 428 376 c 0
 429 382 429 387 429 391 c 0
 429 430 398 458 354 458 c 0
 312 458 268 431 234 384 c 0
 195 332 167 243 167 176 c 0
 167 95 219 38 295 38 c 0
 349 38 406 64 472 119 c 1
541 641 m 1
 375 541 l 1
 238 640 l 1
 263 665 l 1
 386 620 l 1
 519 666 l 1
 541 641 l 1
EndSplineSet
Ligature: 0 0 'liga' c uni030C
EndChar
StartChar: ccedilla
Encoding: 332 231 226
Width: 480
Flags: W
HStem: -182 27<240 258> -68 25<249 262> -9 47<271 295> 458 37<352 368>
VStem: 65 102<169 192> 305 52<-109 -99> 426 96<360 387>
DStem: 234 -7 271 -9 208 -74 260 -43
Fore
271 -9 m 1
 260 -43 l 1
 269 -43 l 1
 279 -43 l 2
 326 -43 357 -66 357 -101 c 0
 357 -146 307 -182 245 -182 c 0
 197 -182 162 -162 162 -134 c 0
 162 -119 173 -106 187 -106 c 0
 204 -106 210 -111 212 -128 c 0
 215 -145 228 -155 248 -155 c 0
 278 -155 305 -132 305 -107 c 0
 305 -84 282 -68 249 -68 c 0
 237 -68 223 -70 208 -74 c 1
 234 -7 l 1
 131 7 65 83 65 190 c 0
 65 351 208 495 368 495 c 0
 455 495 522 448 522 387 c 0
 522 352 498 326 464 326 c 0
 442 326 426 340 426 360 c 0
 426 363 427 369 428 376 c 0
 429 382 429 387 429 391 c 0
 429 430 398 458 354 458 c 0
 312 458 268 431 234 384 c 0
 195 332 167 243 167 176 c 0
 167 95 219 38 295 38 c 0
 349 38 406 64 472 119 c 1
 494 94 l 1
 453 40 344 -10 271 -9 c 1
EndSplineSet
Ligature: 0 0 'liga' c uni0327
EndChar
StartChar: dcaron
Encoding: 333 271 227
Width: 730
Flags: W
HStem: -9 52<238 264 544 594> 448 47<355 379> 602 121<702 736>
VStem: 65 101<155 181> 446 94<81 96> 661 129<646 661>
DStem: 534 577 651 715 508 433 551 165
Fore
672 87 m 1
 695 66 l 1
 650 16 600 -9 544 -9 c 0
 490 -9 446 31 446 81 c 0
 446 90 447 97 451 122 c 1
 414 70 393 48 355 25 c 0
 320 4 276 -9 238 -9 c 0
 134 -9 65 66 65 179 c 0
 65 350 198 495 355 495 c 0
 417 495 461 477 508 433 c 1
 534 577 l 1
 535 585 536 594 536 600 c 0
 536 633 521 645 473 651 c 2
 457 653 l 1
 463 682 l 1
 532 689 565 697 610 715 c 1
 651 715 l 1
 551 165 l 1
 540 113 540 113 540 96 c 0
 540 64 561 43 594 43 c 0
 620 43 637 53 672 87 c 1
491 347 m 1
 499 389 l 1
 462 431 427 448 377 448 c 0
 324 448 276 424 242 381 c 0
 194 319 166 236 166 155 c 0
 166 85 202 43 264 43 c 0
 323 43 377 78 420 142 c 0
 453 192 470 241 491 347 c 1
659 496 m 1
 650 514 l 1
 700 542 730 576 742 619 c 1
 728 607 717 602 702 602 c 0
 678 602 661 622 661 650 c 0
 661 690 695 723 736 723 c 0
 767 723 790 696 790 659 c 0
 790 593 736 526 659 496 c 1
EndSplineSet
Ligature: 0 0 'liga' d uni030C
EndChar
StartChar: edieresis
Encoding: 334 235 228
Width: 540
Flags: W
HStem: -9 60<281 312> 458 37<388 411> 552 120<324 347 486 509>
VStem: 65 109<166 184> 276 120<604 622> 438 120<604 622> 478 97<374 393>
Fore
501 114 m 1xfa
 527 87 l 1
 445 24 359 -9 281 -9 c 0
 157 -9 65 71 65 178 c 0
 65 345 229 495 411 495 c 0
 505 495 575 449 575 387 c 0
 575 326 514 276 404 248 c 0
 341 232 280 224 179 218 c 1
 175 203 174 194 174 182 c 0
 174 96 222 51 312 51 c 0
 371 51 415 65 501 114 c 1xfa
186 255 m 1
 199 255 l 2
 238 255 311 265 359 278 c 0
 433 297 478 338 478 386 c 0
 478 428 442 458 390 458 c 0
 341 458 297 435 256 390 c 0
 223 352 206 319 186 255 c 1
347 672 m 0
 375 672 396 651 396 622 c 0
 396 585 362 552 324 552 c 0
 295 552 276 573 276 604 c 0
 276 640 310 672 347 672 c 0
509 672 m 0
 537 672 558 651 558 622 c 0
 558 585 524 552 486 552 c 0
 457 552 438 573 438 604 c 0xfc
 438 640 472 672 509 672 c 0
EndSplineSet
Ligature: 0 0 'liga' e uni0308
EndChar
StartChar: eacute
Encoding: 335 233 229
Width: 540
Flags: W
HStem: -9 60<281 312> 458 37<388 411> 669 20G<488.5 510>
VStem: 65 109<166 184> 478 97<374 393>
Fore
501 114 m 1
 527 87 l 1
 445 24 359 -9 281 -9 c 0
 157 -9 65 71 65 178 c 0
 65 345 229 495 411 495 c 0
 505 495 575 449 575 387 c 0
 575 326 514 276 404 248 c 0
 341 232 280 224 179 218 c 1
 175 203 174 194 174 182 c 0
 174 96 222 51 312 51 c 0
 371 51 415 65 501 114 c 1
186 255 m 1
 199 255 l 2
 238 255 311 265 359 278 c 0
 433 297 478 338 478 386 c 0
 478 428 442 458 390 458 c 0
 341 458 297 435 256 390 c 0
 223 352 206 319 186 255 c 1
358 538 m 1
 346 567 l 1
 415 635 l 2
 456 674 478 689 499 689 c 0
 521 689 541 669 541 646 c 0
 541 621 520 602 471 583 c 2
 358 538 l 1
EndSplineSet
KernsSLIF: 121 -16 0 0 119 -14 0 0 118 -12 0 0
Ligature: 0 0 'liga' e acutecomb
EndChar
StartChar: egrave
Encoding: 336 232 230
Width: 540
Flags: W
HStem: -9 60<281 312> 458 37<388 411> 669 20G<305 327>
VStem: 65 109<166 184> 478 97<374 393>
Fore
501 114 m 1
 527 87 l 1
 445 24 359 -9 281 -9 c 0
 157 -9 65 71 65 178 c 0
 65 345 229 495 411 495 c 0
 505 495 575 449 575 387 c 0
 575 326 514 276 404 248 c 0
 341 232 280 224 179 218 c 1
 175 203 174 194 174 182 c 0
 174 96 222 51 312 51 c 0
 371 51 415 65 501 114 c 1
186 255 m 1
 199 255 l 2
 238 255 311 265 359 278 c 0
 433 297 478 338 478 386 c 0
 478 428 442 458 390 458 c 0
 341 458 297 435 256 390 c 0
 223 352 206 319 186 255 c 1
455 538 m 1
 343 583 l 2
 292 603 273 620 273 647 c 0
 273 670 293 689 317 689 c 0
 337 689 360 674 399 635 c 2
 468 567 l 1
 455 538 l 1
EndSplineSet
Ligature: 0 0 'liga' e gravecomb
EndChar
StartChar: ecircumflex
Encoding: 337 234 231
Width: 540
Flags: W
HStem: -9 60<281 312> 458 37<388 411>
VStem: 65 109<166 184> 478 97<374 393>
Fore
501 114 m 1
 527 87 l 1
 445 24 359 -9 281 -9 c 0
 157 -9 65 71 65 178 c 0
 65 345 229 495 411 495 c 0
 505 495 575 449 575 387 c 0
 575 326 514 276 404 248 c 0
 341 232 280 224 179 218 c 1
 175 203 174 194 174 182 c 0
 174 96 222 51 312 51 c 0
 371 51 415 65 501 114 c 1
186 255 m 1
 199 255 l 2
 238 255 311 265 359 278 c 0
 433 297 478 338 478 386 c 0
 478 428 442 458 390 458 c 0
 341 458 297 435 256 390 c 0
 223 352 206 319 186 255 c 1
262 567 m 1
 428 666 l 1
 565 567 l 1
 540 542 l 1
 417 587 l 1
 284 541 l 1
 262 567 l 1
EndSplineSet
KernsSLIF: 121 -16 0 0 119 -14 0 0 118 -12 0 0
Ligature: 0 0 'liga' e uni0302
EndChar
StartChar: ecaron
Encoding: 338 283 232
Width: 540
Flags: W
HStem: -9 60<281 312> 458 37<388 411>
VStem: 65 109<166 184> 478 97<374 393>
Fore
501 114 m 1
 527 87 l 1
 445 24 359 -9 281 -9 c 0
 157 -9 65 71 65 178 c 0
 65 345 229 495 411 495 c 0
 505 495 575 449 575 387 c 0
 575 326 514 276 404 248 c 0
 341 232 280 224 179 218 c 1
 175 203 174 194 174 182 c 0
 174 96 222 51 312 51 c 0
 371 51 415 65 501 114 c 1
186 255 m 1
 199 255 l 2
 238 255 311 265 359 278 c 0
 433 297 478 338 478 386 c 0
 478 428 442 458 390 458 c 0
 341 458 297 435 256 390 c 0
 223 352 206 319 186 255 c 1
531 641 m 1
 365 541 l 1
 228 640 l 1
 253 665 l 1
 376 620 l 1
 509 666 l 1
 531 641 l 1
EndSplineSet
Ligature: 0 0 'liga' e uni030C
EndChar
StartChar: edotaccent
Encoding: 339 279 233
Width: 540
Flags: W
HStem: -9 60<281 312> 458 37<388 411> 552 121<396 421>
VStem: 65 109<166 184> 349 121<604 623> 478 97<374 393>
Fore
501 114 m 1
 527 87 l 1
 445 24 359 -9 281 -9 c 0
 157 -9 65 71 65 178 c 0
 65 345 229 495 411 495 c 0
 505 495 575 449 575 387 c 0
 575 326 514 276 404 248 c 0
 341 232 280 224 179 218 c 1
 175 203 174 194 174 182 c 0
 174 96 222 51 312 51 c 0
 371 51 415 65 501 114 c 1
186 255 m 1
 199 255 l 2
 238 255 311 265 359 278 c 0
 433 297 478 338 478 386 c 0
 478 428 442 458 390 458 c 0
 341 458 297 435 256 390 c 0
 223 352 206 319 186 255 c 1
421 673 m 0
 449 673 470 652 470 623 c 0
 470 585 435 552 396 552 c 0
 368 552 349 573 349 604 c 0
 349 641 383 673 421 673 c 0
EndSplineSet
Ligature: 0 0 'liga' e uni0307
EndChar
StartChar: eogonek
Encoding: 340 281 234
Width: 540
Flags: W
HStem: -169 33<358 373> -9 60<280 312> 458 37<388 411>
VStem: 65 109<166 184> 271 52<-100 -88> 478 97<374 393>
Fore
501 114 m 1
 527 87 l 1
 517 79 510 74 508 73 c 2
 448 36 l 2
 424 21 397 -1 362 -33 c 0
 334 -59 323 -76 323 -95 c 0
 323 -118 343 -136 369 -136 c 0
 377 -136 384 -135 396 -130 c 1
 390 -166 l 1
 376 -168 369 -169 359 -169 c 0
 306 -169 271 -141 271 -98 c 0
 271 -56 288 -38 370 5 c 1
 333 -5 308 -9 280 -9 c 0
 226 -9 167 10 131 40 c 0
 91 72 65 126 65 178 c 0
 65 345 229 495 411 495 c 0
 505 495 575 449 575 387 c 0
 575 326 514 276 404 248 c 0
 341 232 280 224 179 218 c 1
 175 203 174 194 174 182 c 0
 174 96 222 51 312 51 c 0
 371 51 415 65 501 114 c 1
186 255 m 1
 199 255 l 2
 238 255 311 265 359 278 c 0
 433 297 478 338 478 386 c 0
 478 428 442 458 390 458 c 0
 341 458 297 435 256 390 c 0
 223 352 206 319 186 255 c 1
EndSplineSet
Ligature: 0 0 'liga' e uni0328
EndChar
StartChar: gbreve
Encoding: 341 287 235
Width: 560
Flags: W
HStem: -221 37<190 213> -9 47<224 244> 448 47<338 356> 553 67<387 425>
VStem: 59 97<151 177>
DStem: 422 118 581 486 403 12 500 42
Fore
581 486 m 1
 500 42 l 1
 481 -67 460 -108 406 -150 c 0
 349 -195 270 -221 190 -221 c 0
 91 -221 4 -182 4 -138 c 0
 4 -111 30 -89 61 -89 c 0
 86 -89 102 -99 113 -121 c 0
 129 -152 132 -156 146 -165 c 0
 164 -177 186 -184 209 -184 c 0
 303 -184 382 -104 403 12 c 2
 422 118 l 1
 377 40 301 -9 224 -9 c 0
 125 -9 59 65 59 177 c 0
 59 349 187 495 338 495 c 0
 392 495 443 472 477 432 c 1
 500 486 l 1
 581 486 l 1
470 390 m 1
 467 393 467 393 464 397 c 0
 438 430 399 448 354 448 c 0
 305 448 256 418 221 366 c 0
 182 308 156 221 156 151 c 0
 156 81 189 38 244 38 c 0
 300 38 361 82 399 148 c 0
 432 206 442 241 470 390 c 1
251 649 m 1
 275 661 l 1
 301 633 341 620 404 620 c 0
 463 620 507 633 538 660 c 1
 560 650 l 1
 523 581 477 553 401 553 c 0
 331 553 280 585 251 649 c 1
EndSplineSet
Ligature: 0 0 'liga' g uni0306
EndChar
StartChar: idieresis
Encoding: 342 239 236
Width: 280
Flags: W
HStem: -9 52<207 257> 466 20G<233 271> 552 120<136 159 305 328>
VStem: 111 93<91 104>
DStem: 156 358 271 486 114 128 206 128
Fore
159 672 m 0
 187 672 208 651 208 622 c 0
 208 585 174 552 136 552 c 0
 107 552 88 573 88 604 c 0
 88 640 122 672 159 672 c 0
328 672 m 0
 356 672 377 651 377 622 c 0
 377 585 343 552 305 552 c 0
 276 552 257 573 257 604 c 0
 257 640 291 672 328 672 c 0
328 86 m 1
 351 65 l 1
 305 15 258 -9 207 -9 c 0
 148 -9 111 30 111 93 c 0
 111 104 112 117 114 128 c 2
 156 358 l 1
 158 367 158 372 158 383 c 0
 158 412 142 426 100 433 c 2
 88 435 l 1
 93 464 l 1
 161 470 176 473 233 486 c 1
 271 486 l 1
 206 128 l 1
 205 119 204 112 204 102 c 0
 204 67 225 43 257 43 c 0
 277 43 298 55 328 86 c 1
EndSplineSet
Ligature: 0 0 'liga' i uni0308
EndChar
StartChar: iacute
Encoding: 343 237 237
Width: 280
Flags: W
HStem: -9 52<207 257> 466 20G<233 271> 669 20G<298.5 320>
VStem: 111 93<91 104>
DStem: 156 358 271 486 114 128 206 128
Fore
328 86 m 1
 351 65 l 1
 305 15 258 -9 207 -9 c 0
 148 -9 111 30 111 93 c 0
 111 104 112 117 114 128 c 2
 156 358 l 1
 158 367 158 372 158 383 c 0
 158 412 142 426 100 433 c 2
 88 435 l 1
 93 464 l 1
 161 470 176 473 233 486 c 1
 271 486 l 1
 206 128 l 1
 205 119 204 112 204 102 c 0
 204 67 225 43 257 43 c 0
 277 43 298 55 328 86 c 1
168 538 m 1
 156 567 l 1
 225 635 l 2
 266 674 288 689 309 689 c 0
 331 689 351 669 351 646 c 0
 351 621 330 602 281 583 c 2
 168 538 l 1
EndSplineSet
Ligature: 0 0 'liga' i acutecomb
EndChar
StartChar: igrave
Encoding: 344 236 238
Width: 280
Flags: W
HStem: -9 52<207 257> 466 20G<233 271> 669 20G<120 142>
VStem: 111 93<91 104>
DStem: 156 358 271 486 114 128 206 128
Fore
328 86 m 1
 351 65 l 1
 305 15 258 -9 207 -9 c 0
 148 -9 111 30 111 93 c 0
 111 104 112 117 114 128 c 2
 156 358 l 1
 158 367 158 372 158 383 c 0
 158 412 142 426 100 433 c 2
 88 435 l 1
 93 464 l 1
 161 470 176 473 233 486 c 1
 271 486 l 1
 206 128 l 1
 205 119 204 112 204 102 c 0
 204 67 225 43 257 43 c 0
 277 43 298 55 328 86 c 1
270 538 m 1
 158 583 l 2
 107 603 88 620 88 647 c 0
 88 670 108 689 132 689 c 0
 152 689 175 674 214 635 c 2
 283 567 l 1
 270 538 l 1
EndSplineSet
Ligature: 0 0 'liga' i gravecomb
EndChar
StartChar: icircumflex
Encoding: 345 238 239
Width: 280
Flags: W
HStem: -9 52<207 257> 466 20G<233 271>
VStem: 111 93<91 104>
DStem: 156 358 271 486 114 128 206 128
Fore
76 567 m 1
 242 666 l 1
 379 567 l 1
 354 542 l 1
 231 587 l 1
 98 541 l 1
 76 567 l 1
328 86 m 1
 351 65 l 1
 305 15 258 -9 207 -9 c 0
 148 -9 111 30 111 93 c 0
 111 104 112 117 114 128 c 2
 156 358 l 1
 158 367 158 372 158 383 c 0
 158 412 142 426 100 433 c 2
 88 435 l 1
 93 464 l 1
 161 470 176 473 233 486 c 1
 271 486 l 1
 206 128 l 1
 205 119 204 112 204 102 c 0
 204 67 225 43 257 43 c 0
 277 43 298 55 328 86 c 1
EndSplineSet
Ligature: 0 0 'liga' i uni0302
EndChar
StartChar: lacute
Encoding: 346 314 240
Width: 280
Flags: W
HStem: -9 57<192 248>
VStem: 100 93<85 103>
DStem: 185 577 302 715 108 153 202 164
Fore
319 85 m 1
 342 64 l 1
 301 17 247 -9 192 -9 c 0
 140 -9 100 32 100 85 c 0
 100 101 103 125 108 153 c 2
 185 577 l 1
 186 585 187 593 187 599 c 0
 187 633 172 645 124 651 c 2
 109 653 l 1
 114 682 l 1
 183 689 216 697 261 715 c 1
 302 715 l 1
 202 164 l 1
 193 116 193 114 193 101 c 0
 193 71 216 48 248 48 c 0
 270 48 289 58 319 85 c 1
170 725 m 1
 158 754 l 1
 227 822 l 2
 268 861 290 876 311 876 c 0
 333 876 353 856 353 833 c 0
 353 808 332 789 283 770 c 2
 170 725 l 1
EndSplineSet
Ligature: 0 0 'liga' l acutecomb
EndChar
StartChar: lcaron
Encoding: 347 318 241
Width: 380
Flags: W
HStem: -9 57<192 248> 602 121<352 386>
VStem: 100 93<85 103> 311 129<646 661>
DStem: 185 577 302 715 108 153 202 164
Fore
319 85 m 1
 342 64 l 1
 301 17 247 -9 192 -9 c 0
 140 -9 100 32 100 85 c 0
 100 101 103 125 108 153 c 2
 185 577 l 1
 186 585 187 593 187 599 c 0
 187 633 172 645 124 651 c 2
 109 653 l 1
 114 682 l 1
 183 689 216 697 261 715 c 1
 302 715 l 1
 202 164 l 1
 193 116 193 114 193 101 c 0
 193 71 216 48 248 48 c 0
 270 48 289 58 319 85 c 1
309 496 m 1
 300 514 l 1
 350 542 380 576 392 619 c 1
 378 607 367 602 352 602 c 0
 328 602 311 622 311 650 c 0
 311 690 345 723 386 723 c 0
 417 723 440 696 440 659 c 0
 440 593 386 526 309 496 c 1
EndSplineSet
Ligature: 0 0 'liga' l uni030C
EndChar
StartChar: nacute
Encoding: 348 324 242
Width: 620
Flags: W
HStem: -9 52<543 591> 448 47<430 468> 669 20G<470.5 492>
VStem: 450 93<86 104> 499 93<381 401>
DStem: 156 358 249 367 91 0 183 0 490 329 580 318 461 172 550 154
Fore
249 367 m 1xe8
 183 0 l 1
 91 0 l 1
 156 358 l 1
 157 367 158 373 158 383 c 0
 158 412 142 426 100 433 c 2
 88 435 l 1
 93 464 l 1
 161 470 176 473 233 486 c 1
 271 486 l 1
 258 414 l 1
 339 471 401 495 468 495 c 0
 545 495 592 459 592 401 c 0xe8
 592 380 592 380 580 318 c 1
 550 154 l 1
 545 125 543 112 543 99 c 0
 543 68 564 43 591 43 c 0
 610 43 624 52 653 81 c 1
 673 59 l 1
 637 15 591 -9 543 -9 c 0
 490 -9 450 32 450 86 c 0xf0
 450 105 452 124 461 172 c 2
 490 329 l 1
 490 329 492 343 495 354 c 0
 497 368 499 381 499 389 c 0
 499 425 472 448 430 448 c 0
 376 448 325 425 249 367 c 1xe8
340 538 m 1
 328 567 l 1
 397 635 l 2
 438 674 460 689 481 689 c 0
 503 689 523 669 523 646 c 0
 523 621 502 602 453 583 c 2
 340 538 l 1
EndSplineSet
Ligature: 0 0 'liga' n acutecomb
EndChar
StartChar: ncaron
Encoding: 349 328 243
Width: 620
Flags: W
HStem: -9 52<543 591> 448 47<430 468>
VStem: 450 93<86 104> 499 93<381 401>
DStem: 156 358 249 367 91 0 183 0 490 329 580 318 461 172 550 154
Fore
249 367 m 1xd0
 183 0 l 1
 91 0 l 1
 156 358 l 1
 157 367 158 373 158 383 c 0
 158 412 142 426 100 433 c 2
 88 435 l 1
 93 464 l 1
 161 470 176 473 233 486 c 1
 271 486 l 1
 258 414 l 1
 339 471 401 495 468 495 c 0
 545 495 592 459 592 401 c 0xd0
 592 380 592 380 580 318 c 1
 550 154 l 1
 545 125 543 112 543 99 c 0
 543 68 564 43 591 43 c 0
 610 43 624 52 653 81 c 1
 673 59 l 1
 637 15 591 -9 543 -9 c 0
 490 -9 450 32 450 86 c 0xe0
 450 105 452 124 461 172 c 2
 490 329 l 1
 490 329 492 343 495 354 c 0
 497 368 499 381 499 389 c 0
 499 425 472 448 430 448 c 0
 376 448 325 425 249 367 c 1xd0
571 641 m 1
 405 541 l 1
 268 640 l 1
 293 665 l 1
 416 620 l 1
 549 666 l 1
 571 641 l 1
EndSplineSet
Ligature: 0 0 'liga' n uni030C
EndChar
StartChar: ntilde
Encoding: 350 241 244
Width: 620
Flags: W
HStem: -9 52<543 591> 448 47<430 468> 569 60<444 475> 590 60<326 355>
VStem: 450 93<86 104> 499 93<381 401>
DStem: 156 358 249 367 91 0 183 0 490 329 580 318 461 172 550 154
Fore
249 367 m 1xc4
 183 0 l 1
 91 0 l 1
 156 358 l 1
 157 367 158 373 158 383 c 0
 158 412 142 426 100 433 c 2
 88 435 l 1
 93 464 l 1
 161 470 176 473 233 486 c 1
 271 486 l 1
 258 414 l 1
 339 471 401 495 468 495 c 0
 545 495 592 459 592 401 c 0xc4
 592 380 592 380 580 318 c 1
 550 154 l 1
 545 125 543 112 543 99 c 0
 543 68 564 43 591 43 c 0
 610 43 624 52 653 81 c 1
 673 59 l 1
 637 15 591 -9 543 -9 c 0
 490 -9 450 32 450 86 c 0xc8
 450 105 452 124 461 172 c 2
 490 329 l 1
 490 329 492 343 495 354 c 0
 497 368 499 381 499 389 c 0
 499 425 472 448 430 448 c 0
 376 448 325 425 249 367 c 1xc4
529 652 m 1
 558 652 l 1
 533 597 494 569 444 569 c 0xe0
 428 569 425 570 390 579 c 0
 366 585 337 590 326 590 c 0
 307 590 291 584 281 574 c 1
 250 574 l 1
 271 622 310 650 355 650 c 0xd0
 372 650 382 648 438 635 c 0
 457 631 468 629 475 629 c 0xe0
 494 629 509 636 529 652 c 1
EndSplineSet
Ligature: 0 0 'liga' n tildecomb
EndChar
StartChar: odieresis
Encoding: 351 246 245
Width: 540
Flags: W
HStem: -9 42<272 298> 453 42<352 372> 552 120<298 321 460 483>
VStem: 65 97<174 200> 250 120<604 622> 412 120<604 622> 470 102<290 314>
Fore
364 495 m 0xfa
 489 495 572 413 572 290 c 0
 572 124 439 -9 274 -9 c 0
 149 -9 65 71 65 190 c 0
 65 267 97 346 150 403 c 0
 208 464 280 495 364 495 c 0xfa
358 453 m 0
 309 453 264 429 230 385 c 0
 190 331 162 246 162 176 c 0
 162 85 205 33 281 33 c 0
 339 33 388 65 422 125 c 0
 449 173 470 255 470 314 c 0
 470 357 459 395 442 417 c 0
 425 437 389 453 358 453 c 0
321 672 m 0
 349 672 370 651 370 622 c 0
 370 585 336 552 298 552 c 0
 269 552 250 573 250 604 c 0
 250 640 284 672 321 672 c 0
483 672 m 0
 511 672 532 651 532 622 c 0
 532 585 498 552 460 552 c 0
 431 552 412 573 412 604 c 0xfc
 412 640 446 672 483 672 c 0
EndSplineSet
KernsSLIF: 121 -16 0 0 120 -17 0 0 119 -17 0 0 118 -18 0 0 116 -17 0 0
Ligature: 0 0 'liga' o uni0308
EndChar
StartChar: oacute
Encoding: 352 243 246
Width: 540
Flags: W
HStem: -9 42<272 290> 453 42<352 370> 669 20G<463.5 485>
VStem: 65 97<174 200> 470 102<290 314>
Fore
364 495 m 0
 489 495 572 413 572 290 c 0
 572 124 439 -9 274 -9 c 0
 149 -9 65 71 65 190 c 0
 65 267 97 346 150 403 c 0
 208 464 280 495 364 495 c 0
358 453 m 0
 309 453 264 429 230 385 c 0
 190 331 162 246 162 176 c 0
 162 85 205 33 281 33 c 0
 339 33 388 65 422 125 c 0
 449 173 470 255 470 314 c 0
 470 357 459 395 442 417 c 0
 425 437 389 453 358 453 c 0
333 538 m 1
 321 567 l 1
 390 635 l 2
 431 674 453 689 474 689 c 0
 496 689 516 669 516 646 c 0
 516 621 495 602 446 583 c 2
 333 538 l 1
EndSplineSet
KernsSLIF: 121 -16 0 0 119 -17 0 0 118 -18 0 0
Ligature: 0 0 'liga' o acutecomb
EndChar
StartChar: ograve
Encoding: 353 242 247
Width: 540
Flags: W
HStem: -9 42<272 297> 453 42<352 370> 669 20G<283 305>
VStem: 65 97<174 200> 470 102<290 314>
Fore
364 495 m 0
 489 495 572 413 572 290 c 0
 572 124 439 -9 274 -9 c 0
 149 -9 65 71 65 190 c 0
 65 267 97 346 150 403 c 0
 208 464 280 495 364 495 c 0
358 453 m 0
 309 453 264 429 230 385 c 0
 190 331 162 246 162 176 c 0
 162 85 205 33 281 33 c 0
 339 33 388 65 422 125 c 0
 449 173 470 255 470 314 c 0
 470 357 459 395 442 417 c 0
 425 437 389 453 358 453 c 0
433 538 m 1
 321 583 l 2
 270 603 251 620 251 647 c 0
 251 670 271 689 295 689 c 0
 315 689 338 674 377 635 c 2
 446 567 l 1
 433 538 l 1
EndSplineSet
KernsSLIF: 121 -16 0 0 119 -17 0 0 118 -18 0 0
Ligature: 0 0 'liga' o gravecomb
EndChar
StartChar: ocircumflex
Encoding: 354 244 248
Width: 540
Flags: W
HStem: -9 42<272 290> 453 42<352 370>
VStem: 65 97<174 200> 470 102<290 314>
Fore
364 495 m 0
 489 495 572 413 572 290 c 0
 572 124 439 -9 274 -9 c 0
 149 -9 65 71 65 190 c 0
 65 267 97 346 150 403 c 0
 208 464 280 495 364 495 c 0
358 453 m 0
 309 453 264 429 230 385 c 0
 190 331 162 246 162 176 c 0
 162 85 205 33 281 33 c 0
 339 33 388 65 422 125 c 0
 449 173 470 255 470 314 c 0
 470 357 459 395 442 417 c 0
 425 437 389 453 358 453 c 0
234 567 m 1
 400 666 l 1
 537 567 l 1
 512 542 l 1
 389 587 l 1
 256 541 l 1
 234 567 l 1
EndSplineSet
KernsSLIF: 116 -17 0 0
Ligature: 0 0 'liga' o uni0302
EndChar
StartChar: otilde
Encoding: 355 245 249
Width: 540
Flags: W
HStem: -9 42<272 290> 453 42<347 370> 569 60<438 469> 590 60<320 349>
VStem: 65 97<174 200> 470 102<290 314>
Fore
364 495 m 0xcc
 489 495 572 413 572 290 c 0
 572 124 439 -9 274 -9 c 0
 149 -9 65 71 65 190 c 0
 65 267 97 346 150 403 c 0
 208 464 280 495 364 495 c 0xcc
358 453 m 0
 309 453 264 429 230 385 c 0
 190 331 162 246 162 176 c 0
 162 85 205 33 281 33 c 0
 339 33 388 65 422 125 c 0
 449 173 470 255 470 314 c 0
 470 357 459 395 442 417 c 0
 425 437 389 453 358 453 c 0
523 652 m 1
 552 652 l 1
 527 597 488 569 438 569 c 0xec
 422 569 419 570 384 579 c 0
 360 585 331 590 320 590 c 0
 301 590 285 584 275 574 c 1
 244 574 l 1
 265 622 304 650 349 650 c 0xdc
 366 650 376 648 432 635 c 0
 451 631 462 629 469 629 c 0xec
 488 629 503 636 523 652 c 1
EndSplineSet
Ligature: 0 0 'liga' o tildecomb
EndChar
StartChar: ohungarumlaut
Encoding: 356 337 250
Width: 540
Flags: W
HStem: -9 42<265 292> 453 42<340 370>
VStem: 65 97<174 200> 470 102<290 314>
Fore
364 495 m 0
 489 495 572 413 572 290 c 0
 572 124 439 -9 274 -9 c 0
 149 -9 65 71 65 190 c 0
 65 267 97 346 150 403 c 0
 208 464 280 495 364 495 c 0
358 453 m 0
 309 453 264 429 230 385 c 0
 190 331 162 246 162 176 c 0
 162 85 205 33 281 33 c 0
 339 33 388 65 422 125 c 0
 449 173 470 255 470 314 c 0
 470 357 459 395 442 417 c 0
 425 437 389 453 358 453 c 0
290 537 m 1
 267 553 l 1
 288 631 l 1
 306 700 317 718 342 718 c 0
 363 718 382 699 382 677 c 0
 382 662 371 639 355 618 c 2
 290 537 l 1
410 537 m 1
 387 553 l 1
 408 631 l 1
 426 700 437 718 462 718 c 0
 483 718 502 699 502 677 c 0
 502 662 491 639 475 618 c 2
 410 537 l 1
EndSplineSet
Ligature: 0 0 'liga' o uni030B
EndChar
StartChar: racute
Encoding: 357 341 251
Width: 400
Flags: W
HStem: 0 21G<91 183> 419 76<335 417> 669 20G<360.5 382>
DStem: 156 358 228 251 91 0 183 0
Fore
271 486 m 1
 258 414 l 1
 313 470 363 495 417 495 c 0
 457 495 481 477 481 446 c 0
 481 414 454 392 416 392 c 0
 400 392 391 395 372 405 c 0
 351 417 345 419 335 419 c 0
 308 419 282 400 263 368 c 0
 250 345 238 305 228 251 c 1
 183 0 l 1
 91 0 l 1
 156 358 l 1
 157 367 158 373 158 383 c 0
 158 412 142 426 100 433 c 2
 88 435 l 1
 93 464 l 1
 161 470 176 473 233 486 c 1
 271 486 l 1
230 538 m 1
 218 567 l 1
 287 635 l 2
 328 674 350 689 371 689 c 0
 393 689 413 669 413 646 c 0
 413 621 392 602 343 583 c 2
 230 538 l 1
EndSplineSet
Ligature: 0 0 'liga' r acutecomb
EndChar
StartChar: sacute
Encoding: 358 347 252
Width: 540
Flags: W
HStem: -9 37<272 306> 458 37<320 346> 669 20G<430.5 452>
VStem: 131 102<346 379> 419 102<123 160>
Fore
344 495 m 0
 448 495 547 451 547 405 c 0
 547 381 528 363 501 363 c 0
 474 363 466 369 436 414 c 0
 418 440 377 458 334 458 c 0
 274 458 233 426 233 379 c 0
 233 356 244 336 266 323 c 0
 281 314 298 308 364 287 c 0
 427 268 458 255 481 238 c 0
 506 221 521 191 521 160 c 0
 521 64 419 -9 283 -9 c 0
 172 -9 65 43 65 97 c 0
 65 123 84 142 108 142 c 0
 138 142 154 129 183 84 c 0
 209 44 241 28 292 28 c 0
 364 28 419 69 419 123 c 0
 419 160 396 180 331 201 c 0
 255 225 219 238 190 253 c 0
 154 273 131 309 131 346 c 0
 131 432 221 495 344 495 c 0
300 538 m 1
 288 567 l 1
 357 635 l 2
 398 674 420 689 441 689 c 0
 463 689 483 669 483 646 c 0
 483 621 462 602 413 583 c 2
 300 538 l 1
EndSplineSet
Ligature: 0 0 'liga' s acutecomb
EndChar
StartChar: scaron
Encoding: 359 353 253
Width: 540
Flags: W
HStem: -9 37<272 306> 458 37<320 346>
VStem: 131 102<346 379> 419 102<123 160>
Fore
344 495 m 0
 448 495 547 451 547 405 c 0
 547 381 528 363 501 363 c 0
 474 363 466 369 436 414 c 0
 418 440 377 458 334 458 c 0
 274 458 233 426 233 379 c 0
 233 356 244 336 266 323 c 0
 281 314 298 308 364 287 c 0
 427 268 458 255 481 238 c 0
 506 221 521 191 521 160 c 0
 521 64 419 -9 283 -9 c 0
 172 -9 65 43 65 97 c 0
 65 123 84 142 108 142 c 0
 138 142 154 129 183 84 c 0
 209 44 241 28 292 28 c 0
 364 28 419 69 419 123 c 0
 419 160 396 180 331 201 c 0
 255 225 219 238 190 253 c 0
 154 273 131 309 131 346 c 0
 131 432 221 495 344 495 c 0
531 641 m 1
 365 541 l 1
 228 640 l 1
 253 665 l 1
 376 620 l 1
 509 666 l 1
 531 641 l 1
EndSplineSet
Ligature: 0 0 'liga' s uni030C
EndChar
